SplineFontDB: 3.0
FontName: ProggyVector
FullName: ProggyVector Regular
FamilyName: ProggyVector
Weight: 400
Copyright: Copyright (c) 2019 Tristan Grimmer\nCopyright (c) 2018 Source Foundry Authors\nCopyright (c) 2003 by Bitstream, Inc. All Rights Reserved.\n
Version: 1.0
ItalicAngle: 0
UnderlinePosition: -102.4
UnderlineWidth: 51.2
Ascent: 819
Descent: 205
InvalidEm: 0
sfntRevision: 0x00010000
LayerCount: 2
Layer: 0 0 "Back" 1
Layer: 1 0 "Fore" 0
XUID: [1021 623 1634611303 26898]
StyleMap: 0x0040
FSType: 0
OS2Version: 2
OS2_WeightWidthSlopeOnly: 0
OS2_UseTypoMetrics: 0
CreationTime: 1546348937
ModificationTime: 1546349136
PfmFamily: 81
TTFWeight: 400
TTFWidth: 5
LineGap: 0
VLineGap: 0
Panose: 0 0 0 0 0 0 0 0 0 0
OS2TypoAscent: 950
OS2TypoAOffset: 0
OS2TypoDescent: -242
OS2TypoDOffset: 0
OS2TypoLinegap: 102
OS2WinAscent: 950
OS2WinAOffset: 0
OS2WinDescent: 242
OS2WinDOffset: 0
HheadAscent: 950
HheadAOffset: 0
HheadDescent: -242
HheadDOffset: 0
OS2SubXSize: 666
OS2SubYSize: 717
OS2SubXOff: 48
OS2SubYOff: 143
OS2SupXSize: 666
OS2SupYSize: 717
OS2SupXOff: -168
OS2SupYOff: 492
OS2StrikeYSize: 50
OS2StrikeYPos: 264
OS2CapHeight: 928
OS2XHeight: 547
OS2Vendor: 'Bird'
OS2CodePages: 203f00ff.dffd0000
OS2UnicodeRanges: 00000001.00000000.00000000.00000000
Lookup: 265 0 0 "'kern' Horizontal Kerning lookup 0" { } [' RQD' ('DFLT' <'dflt' > ) 'kern' ('DFLT' <'dflt' > ) ]
MarkAttachClasses: 1
DEI: 91125

StartChar: .notdef
Encoding: 1114112 -1 0
Width: 542
Flags: W
HStem: 51 51<51 358> 644 51<51 358>
VStem: 0 51<102 644> 358 52<102 644>
LayerCount: 2
Fore
SplineSet
51 644 m 1
 51 509 51 237 51 102 c 1
 128 102 281 102 358 102 c 1
 358 237 358 509 358 644 c 1
 281 644 128 644 51 644 c 1
0 51 m 1
 0 212 0 534 0 695 c 1
 102 695 308 695 410 695 c 1
 410 534 410 212 410 51 c 1
 308 51 102 51 0 51 c 1
EndSplineSet
EndChar

StartChar: !
Encoding: 33 33 4
Width: 616
Flags: W
HStem: -5 158<256.659 360.341>
VStem: 235 148<18.6599 130.34> 246 119<349.106 764>
LayerCount: 2
Fore
SplineSet
268 258 m 1xa0
 262 352 252 539 246 633 c 0
 246 666 246 731 246 764 c 1
 276 764 335 764 365 764 c 1
 365 731 365 666 365 633 c 0
 360 539 352 352 347 258 c 1
 327 258 288 258 268 258 c 1xa0
362 18 m 0
 348 3 330 -5 309 -5 c 0
 288 -5 270 2 256 17 c 0
 242 31 235 50 235 74 c 0
 235 98 241 117 255 131 c 0
 269 145 287 153 308 153 c 0
 329 153 347 145 361 131 c 0
 375 117 383 99 383 75 c 0xc0
 383 51 376 32 362 18 c 0
EndSplineSet
EndChar

StartChar: "
Encoding: 34 34 5
Width: 616
Flags: W
HStem: 469 277<169 256 360 448>
VStem: 169 87<469 746> 360 88<469 746>
LayerCount: 2
Fore
SplineSet
169 469 m 1
 169 538 169 677 169 746 c 1
 191 746 234 746 256 746 c 1
 256 677 256 538 256 469 c 1
 234 469 191 469 169 469 c 1
360 469 m 1
 360 538 360 677 360 746 c 1
 382 746 426 746 448 746 c 1
 448 677 448 538 448 469 c 1
 426 469 382 469 360 469 c 1
EndSplineSet
EndChar

StartChar: #
Encoding: 35 35 6
Width: 616
Flags: W
HStem: 212 77<1 130 230 333 432 557> 456 77<58 192 290 394 492 614>
LayerCount: 2
Fore
SplineSet
78 5 m 1
 91 57 117 160 130 212 c 1
 98 212 33 212 1 212 c 1
 1 231 1 270 1 289 c 1
 38 289 113 289 150 289 c 1
 160 331 182 414 192 456 c 1
 159 456 91 456 58 456 c 1
 58 475 58 514 58 533 c 1
 96 533 172 533 210 533 c 1
 223 585 249 688 262 740 c 1
 282 740 322 740 342 740 c 1
 329 688 303 585 290 533 c 1
 321 533 381 533 412 533 c 1
 425 585 452 688 465 740 c 1
 485 740 525 740 545 740 c 1
 532 688 505 585 492 533 c 1
 522 533 584 533 614 533 c 1
 614 514 614 475 614 456 c 1
 579 456 509 456 474 456 c 1
 464 414 442 331 432 289 c 1
 463 289 526 289 557 289 c 1
 557 270 557 231 557 212 c 1
 521 212 448 212 412 212 c 1
 399 160 373 57 360 5 c 1
 340 5 300 5 280 5 c 1
 293 57 320 160 333 212 c 1
 302 212 241 212 210 212 c 1
 197 160 171 57 158 5 c 1
 138 5 98 5 78 5 c 1
230 284 m 1
 261 284 321 284 352 284 c 1
 362 326 384 408 394 450 c 1
 363 450 303 450 272 450 c 1
 262 408 240 326 230 284 c 1
EndSplineSet
EndChar

StartChar: $
Encoding: 36 36 7
Width: 616
Flags: W
HStem: 41 72<358 427.727> 330 85<358 438.288> 342 85<221.252 276> 633 74<220.376 276>
VStem: 91 90<464.674 591.168> 276 82<-20 40.2853 113 330 427 630 704.004 768> 471 82<156.318 296.855>
LayerCount: 2
Fore
SplineSet
279 -20 m 1xde
 278 -5 277 26 276 41 c 0
 272 42 261 43 243 46 c 0
 225 49 207 51 190 55 c 0
 159 62 126 73 91 87 c 1
 91 117 91 117 91 177 c 1
 109 166 126 157 142 149 c 0
 158 141 175 136 192 130 c 0
 218 119 246 114 276 113 c 1
 276 189 276 189 276 342 c 1xbe
 246 347 220 354 199 364 c 0
 178 374 158 386 141 402 c 0
 107 432 91 473 91 523 c 0
 91 575 109 617 144 648 c 0
 182 682 226 702 276 707 c 1
 276 727 276 753 276 768 c 1
 296 768 338 768 358 768 c 1
 358 753 358 722 358 707 c 0
 358 706 366 703 381 700 c 0
 396 697 410 694 422 692 c 0
 436 689 449 686 463 683 c 0
 477 680 491 675 505 671 c 1
 505 642 505 643 505 585 c 1
 490 593 475 599 460 605 c 0
 445 611 432 615 422 618 c 0
 411 621 400 624 390 626 c 0
 380 628 369 629 358 630 c 1
 358 558 358 559 358 415 c 1
 424 404 471 383 499 352 c 0
 535 319 553 278 553 228 c 0
 553 176 534 133 495 98 c 0
 454 63 408 44 358 41 c 1
 358 21 358 -5 358 -20 c 1
 338 -20 299 -20 279 -20 c 1xde
276 427 m 1
 276 496 276 495 276 633 c 1
 245 630 221 617 205 594 c 0
 191 574 183 551 181 528 c 0
 180 504 189 482 205 461 c 1
 225 444 249 432 276 427 c 1
358 330 m 1xde
 358 258 358 258 358 113 c 1
 395 120 422 129 440 143 c 1
 460 170 471 202 471 236 c 0
 471 263 460 287 440 307 c 1
 420 321 392 329 358 330 c 1xde
EndSplineSet
EndChar

StartChar: %
Encoding: 37 37 8
Width: 616
Flags: W
HStem: 19 69<408.236 509.184> 221 71<410.934 507.078> 455 68<104.14 204.188> 657 70<105.817 203.072>
VStem: 19 69<539.641 639.042> 222 70<540.65 638.693> 324 68<104.315 202.891> 526 70<104.929 202.702>
LayerCount: 2
Fore
SplineSet
209 465 m 0
 192 458 175 455 155 455 c 0
 136 455 118 458 101 465 c 0
 84 472 70 481 58 493 c 0
 32 519 19 552 19 591 c 0
 19 617 25 640 37 661 c 0
 49 682 66 698 86 710 c 0
 107 722 129 727 155 727 c 0
 173 727 191 724 208 717 c 0
 225 710 239 701 252 688 c 0
 265 675 275 660 282 644 c 0
 289 627 292 609 292 591 c 0
 292 552 278 520 252 494 c 0
 240 482 226 472 209 465 c 0
127 529 m 0
 135 525 144 523 154 523 c 0
 173 523 189 530 202 543 c 0
 208 549 212 555 216 563 c 0
 220 571 222 581 222 591 c 0
 222 609 215 625 202 638 c 0
 188 651 173 657 155 657 c 0
 136 657 120 651 107 638 c 0
 94 625 88 609 88 590 c 0
 88 571 94 555 107 542 c 0
 112 537 119 533 127 529 c 0
514 30 m 0
 497 23 479 19 459 19 c 0
 440 19 423 23 406 30 c 0
 389 37 375 46 363 58 c 0
 337 84 324 116 324 155 c 0
 324 181 330 205 342 226 c 0
 354 247 370 262 390 274 c 0
 411 286 434 292 460 292 c 0
 478 292 495 289 512 282 c 0
 529 275 543 265 556 252 c 0
 569 239 579 224 586 208 c 0
 593 191 596 174 596 156 c 0
 596 117 583 84 557 58 c 0
 545 46 531 37 514 30 c 0
431 93 m 0
 439 89 448 88 458 88 c 0
 477 88 493 94 506 107 c 0
 512 113 516 119 520 127 c 0
 524 135 526 145 526 155 c 0
 526 173 519 189 506 202 c 0
 492 215 477 221 459 221 c 0
 440 221 425 215 412 202 c 0
 399 189 392 173 392 154 c 0
 392 135 398 120 411 107 c 0
 416 102 423 97 431 93 c 0
63 19 m 1
 161 196 359 551 457 728 c 1
 481 728 528 728 552 728 c 1
 454 551 257 196 159 19 c 1
 135 19 87 19 63 19 c 1
EndSplineSet
EndChar

StartChar: &
Encoding: 38 38 9
Width: 616
Flags: W
HStem: -15 77<204.427 380.058> 0 21G<499 610> 645 92<395.626 437> 683 77<235.076 410.37>
VStem: 28 88<148.235 322.454> 118 88<522.722 655.835> 520 80<210.483 380>
LayerCount: 2
Fore
SplineSet
330 -10 m 0x5e
 313 -13 295 -15 276 -15 c 0
 240 -15 207 -9 177 3 c 0
 147 15 121 32 99 53 c 0
 78 73 60 98 47 126 c 0
 34 154 28 185 28 219 c 0
 28 241 31 264 37 286 c 0
 43 308 51 329 63 349 c 0
 86 388 120 424 167 458 c 1
 150 483 137 506 130 528 c 0
 122 551 118 574 118 598 c 0
 118 624 122 648 131 667 c 0
 140 686 152 702 168 716 c 0
 201 745 246 760 304 760 c 0x9e
 326 760 347 758 369 754 c 0
 387 751 410 745 437 737 c 1
 437 707 437 706 437 645 c 1x2e
 418 658 397 668 376 674 c 0
 355 680 334 683 312 683 c 0
 279 683 253 676 234 661 c 0
 215 646 206 625 206 599 c 0
 206 580 210 560 220 538 c 0
 225 528 232 516 240 502 c 0
 248 488 260 473 274 454 c 0
 343 361 343 360 482 174 c 1
 495 191 504 212 510 236 c 0
 516 261 520 291 520 324 c 0
 520 331 520 338 520 346 c 0
 520 354 519 364 518 376 c 0
 518 377 518 379 518 380 c 1
 538 380 580 380 600 380 c 1
 600 375 600 365 600 360 c 0
 600 305 593 259 581 220 c 0
 569 179 550 143 525 114 c 1
 553 76 589 29 610 0 c 1
 583 0 531 0 504 0 c 1
 494 14 475 40 465 54 c 1
 452 43 438 33 424 24 c 0
 410 15 393 8 376 2 c 0
 362 -3 347 -7 330 -10 c 0x5e
222 76 m 0
 244 67 266 62 292 62 c 0
 307 62 323 64 338 68 c 0
 356 73 371 79 383 86 c 0
 391 91 398 95 405 99 c 0
 412 103 417 106 417 107 c 0
 417 108 419 109 422 111 c 1
 352 206 352 207 212 398 c 1
 181 373 156 347 139 324 c 0
 124 297 116 267 116 236 c 0
 116 186 133 145 166 112 c 0
 182 96 200 85 222 76 c 0
EndSplineSet
EndChar

StartChar: '
Encoding: 39 39 10
Width: 616
Flags: W
HStem: 471 278<266 358>
VStem: 266 92<471 749>
LayerCount: 2
Fore
SplineSet
266 471 m 1
 266 540 266 680 266 749 c 1
 289 749 335 749 358 749 c 1
 358 680 358 540 358 471 c 1
 335 471 289 471 266 471 c 1
EndSplineSet
EndChar

StartChar: (
Encoding: 40 40 11
Width: 616
Flags: W
VStem: 168 98<197.059 544.014>
LayerCount: 2
Fore
SplineSet
398 -87 m 1
 371 -87 371 -87 318 -87 c 1
 267 -6 229 71 205 145 c 0
 180 221 168 296 168 370 c 0
 168 443 180 517 205 594 c 0
 218 632 234 670 252 708 c 0
 270 746 292 785 318 825 c 1
 345 825 345 825 398 825 c 1
 374 785 354 746 338 709 c 0
 322 672 310 635 299 598 c 0
 277 521 266 446 266 370 c 0
 266 219 310 66 398 -87 c 1
EndSplineSet
EndChar

StartChar: )
Encoding: 41 41 12
Width: 616
Flags: W
VStem: 337 97<199.269 547.299>
LayerCount: 2
Fore
SplineSet
285 -82 m 1
 258 -82 258 -82 205 -82 c 1
 249 -6 281 71 304 148 c 0
 314 184 322 221 328 259 c 0
 334 297 337 336 337 375 c 0
 337 452 326 527 304 602 c 0
 294 638 280 675 264 713 c 0
 248 751 228 790 205 830 c 1
 232 830 232 830 285 830 c 1
 336 751 373 674 397 599 c 0
 422 522 434 448 434 375 c 0
 434 301 422 226 397 149 c 0
 373 74 336 -3 285 -82 c 1
EndSplineSet
EndChar

StartChar: *
Encoding: 42 42 13
Width: 616
Flags: W
VStem: 263 86<96 304 454 651>
LayerCount: 2
Fore
SplineSet
46 480 m 1
 57 498 79 536 90 554 c 1
 133 529 219 479 262 454 c 1
 262 503 263 602 263 651 c 1
 285 651 327 651 349 651 c 1
 349 601 350 503 350 453 c 1
 394 478 482 529 526 554 c 1
 537 536 558 498 569 480 c 1
 525 455 437 404 393 379 c 1
 437 353 524 302 568 276 c 1
 557 258 535 221 524 203 c 1
 480 228 393 279 349 304 c 1
 349 252 349 148 349 96 c 1
 336 96 326 96 318 96 c 0
 313 96 308 96 305 96 c 0
 296 96 283 96 263 96 c 1
 263 111 262 140 262 182 c 0
 262 224 263 265 263 304 c 1
 205 271 132 230 88 205 c 1
 77 223 57 260 46 278 c 1
 89 303 176 354 219 379 c 1
 176 404 89 455 46 480 c 1
EndSplineSet
EndChar

StartChar: +
Encoding: 43 43 14
Width: 616
Flags: W
HStem: 328 85<41 264 348 573>
VStem: 264 84<106 328 413 635>
LayerCount: 2
Fore
SplineSet
264 106 m 1
 264 162 264 272 264 328 c 1
 208 328 97 328 41 328 c 1
 41 349 41 392 41 413 c 1
 97 413 208 413 264 413 c 1
 264 469 264 579 264 635 c 1
 285 635 327 635 348 635 c 1
 348 579 348 469 348 413 c 1
 404 413 517 413 573 413 c 1
 573 392 573 349 573 328 c 1
 517 328 404 328 348 328 c 1
 348 272 348 162 348 106 c 1
 327 106 285 106 264 106 c 1
EndSplineSet
EndChar

StartChar: ,
Encoding: 44 44 15
Width: 616
Flags: W
HStem: -149 299
VStem: 236 145<21.6592 128.341>
LayerCount: 2
Fore
SplineSet
288 -55 m 0
 297 -42 302 -24 307 0 c 1
 287 0 271 7 257 21 c 0
 243 35 236 53 236 75 c 0
 236 97 243 115 257 129 c 0
 271 143 288 150 308 150 c 0
 328 150 346 143 360 129 c 0
 374 115 381 97 381 75 c 0
 381 70 381 65 381 61 c 0
 381 42 381 26 380 13 c 0
 379 -3 375 -21 369 -40 c 0
 360 -62 349 -82 334 -100 c 0
 319 -118 301 -134 279 -149 c 1
 272 -139 267 -130 263 -123 c 0
 259 -116 253 -106 246 -96 c 1
 265 -82 279 -68 288 -55 c 0
EndSplineSet
EndChar

StartChar: -
Encoding: 45 45 16
Width: 616
Flags: W
HStem: 328 86<83 533>
LayerCount: 2
Fore
SplineSet
83 328 m 1
 83 349 83 393 83 414 c 1
 196 414 420 414 533 414 c 1
 533 393 534 349 534 328 c 1
 421 328 196 328 83 328 c 1
EndSplineSet
EndChar

StartChar: .
Encoding: 46 46 17
Width: 616
Flags: W
HStem: -1 151<258.658 360.341>
VStem: 237 144<20.6599 128.341>
LayerCount: 2
Fore
SplineSet
361 20 m 0
 347 6 329 -1 309 -1 c 0
 289 -1 272 6 258 20 c 0
 244 34 237 53 237 75 c 0
 237 97 244 115 258 129 c 0
 272 143 289 150 309 150 c 0
 329 150 347 143 361 129 c 0
 375 115 381 97 381 75 c 0
 381 53 375 34 361 20 c 0
EndSplineSet
EndChar

StartChar: /
Encoding: 47 47 18
Width: 616
Flags: W
LayerCount: 2
Fore
SplineSet
64 -51 m 1
 162 159 360 580 458 790 c 1
 482 790 529 790 553 790 c 1
 455 580 258 159 160 -51 c 1
 136 -51 88 -51 64 -51 c 1
EndSplineSet
EndChar

StartChar: 0
Encoding: 48 48 19
Width: 616
Flags: W
HStem: -15 91<247.92 377.459> 679 81<242.646 373.816>
VStem: 66 102<272.862 566.989> 453 97<185.462 481.571>
LayerCount: 2
Fore
SplineSet
489 84 m 0
 448 19 388 -15 308 -15 c 0
 228 -15 168 18 128 83 c 0
 87 149 66 245 66 372 c 0
 66 499 87 596 128 662 c 0
 168 727 228 760 308 760 c 0
 388 760 448 727 489 662 c 0
 509 630 524 590 534 542 c 0
 544 494 550 437 550 372 c 0
 550 307 544 251 534 203 c 0
 524 155 509 116 489 84 c 0
175 272 m 1
 255 383 334 492 414 602 c 1
 391 653 356 679 308 679 c 0
 261 679 226 654 203 603 c 0
 191 578 183 546 177 508 c 0
 171 470 168 425 168 371 c 0
 168 338 170 305 175 272 c 1
446 483 m 1
 366 372 287 263 207 153 c 1
 230 102 265 76 313 76 c 0
 360 76 395 101 418 152 c 0
 430 177 438 208 444 246 c 0
 450 284 453 330 453 384 c 0
 453 417 451 450 446 483 c 1
EndSplineSet
EndChar

StartChar: 1
Encoding: 49 49 20
Width: 616
Flags: W
HStem: 0 85<164 283 376 494> 726 20G<268.5 376>
VStem: 172 204<542.38 674.258> 283 93<85 632>
LayerCount: 2
Fore
SplineSet
164 0 m 1xd0
 164 21 164 64 164 85 c 1
 194 85 253 85 283 85 c 1
 283 222 283 495 283 632 c 1xd0
 256 609 201 564 174 541 c 1
 174 570 172 628 172 657 c 1xe0
 199 679 255 724 282 746 c 1
 305 746 353 746 376 746 c 1
 376 581 376 250 376 85 c 1
 406 85 464 85 494 85 c 1
 494 64 494 21 494 0 c 1
 412 0 246 0 164 0 c 1xd0
EndSplineSet
EndChar

StartChar: 2
Encoding: 50 50 21
Width: 616
Flags: W
HStem: 0 88<187 535> 675 85<171.898 367.685>
VStem: 421 103<455.975 622.178>
LayerCount: 2
Fore
SplineSet
76 0 m 1
 76 17 76 50 76 67 c 0
 76 79 80 90 88 98 c 0
 107 118 130 141 156 169 c 0
 182 197 209 227 239 259 c 0
 262 284 279 303 291 315 c 0
 303 327 311 337 317 344 c 0
 323 351 329 358 335 366 c 0
 353 387 368 405 378 420 c 0
 388 435 396 450 403 465 c 0
 415 491 421 517 421 543 c 0
 421 584 408 617 384 640 c 0
 359 664 326 675 283 675 c 0
 223 675 156 653 82 609 c 1
 82 643 82 643 82 711 c 1
 116 727 149 740 183 748 c 0
 216 756 249 760 281 760 c 0
 316 760 349 755 379 746 c 0
 409 737 435 722 458 702 c 0
 478 684 494 663 506 637 c 0
 518 611 524 583 524 551 c 0
 524 518 517 486 502 453 c 0
 495 436 486 420 474 404 c 0
 462 388 448 370 430 348 c 0
 420 337 408 323 395 308 c 0
 382 293 367 276 349 257 c 0
 336 243 325 231 314 220 c 0
 303 209 291 198 279 186 c 0
 267 174 255 161 241 146 c 0
 227 131 209 112 187 88 c 1
 303 88 448 88 535 88 c 1
 535 66 535 22 535 0 c 1
 420 0 191 0 76 0 c 1
EndSplineSet
EndChar

StartChar: 3
Encoding: 51 51 22
Width: 616
Flags: W
HStem: -14 85<144.289 379.568> 358 83<204 378.381> 675 85<145.962 381.68>
VStem: 428 100<486.362 629.779> 445 101<132.062 295.436>
LayerCount: 2
Fore
SplineSet
395 0 m 0xe8
 363 -10 325 -14 283 -14 c 0
 267 -14 251 -14 233 -12 c 0
 215 -10 197 -8 179 -5 c 0
 164 -2 147 1 129 6 c 0
 111 11 92 17 74 23 c 1
 74 57 74 57 74 125 c 1
 91 116 108 108 124 101 c 0
 140 94 158 89 175 84 c 0
 192 80 208 76 224 74 c 0
 240 72 256 71 273 71 c 0
 329 71 372 83 401 108 c 0
 431 133 445 169 445 215 c 0xe8
 445 260 430 295 401 320 c 0
 372 345 331 358 280 358 c 0
 254 358 223 358 204 358 c 1
 204 379 204 420 204 441 c 1
 223 441 261 441 280 441 c 0
 327 441 364 451 390 471 c 0
 416 491 428 520 428 558 c 0
 428 596 416 625 392 645 c 0
 369 665 334 675 287 675 c 0
 259 675 229 672 196 665 c 0
 164 659 131 649 97 635 c 1
 97 666 97 666 97 728 c 1
 138 739 174 747 205 752 c 0
 235 757 263 760 290 760 c 0
 325 760 356 756 386 747 c 0
 416 738 442 724 464 706 c 0
 507 670 528 622 528 561 c 0xf0
 528 539 525 520 519 503 c 0
 513 486 505 471 494 458 c 0
 471 431 438 412 394 400 c 1
 443 387 480 363 506 330 c 0
 520 313 530 294 536 273 c 0
 542 252 546 230 546 206 c 0
 546 138 523 83 477 44 c 0
 454 25 427 10 395 0 c 0xe8
EndSplineSet
EndChar

StartChar: 4
Encoding: 52 52 23
Width: 616
Flags: W
HStem: 0 21G<378 468> 178 82<136 378 468 568> 726 20G<297.5 468>
VStem: 378 90<0 178 260 654>
LayerCount: 2
Fore
SplineSet
378 0 m 1
 378 44 378 134 378 178 c 1
 296 178 133 178 51 178 c 1
 51 204 51 256 51 282 c 1
 122 398 262 630 333 746 c 1
 367 746 434 746 468 746 c 1
 468 624 468 382 468 260 c 1
 493 260 543 260 568 260 c 1
 568 240 568 198 568 178 c 1
 543 178 493 178 468 178 c 1
 468 134 468 44 468 0 c 1
 445 0 401 0 378 0 c 1
136 260 m 1
 196 260 318 260 378 260 c 1
 378 359 378 555 378 654 c 1
 353 614 303 536 278 496 c 0
 242 437 172 319 136 260 c 1
EndSplineSet
EndChar

StartChar: 5
Encoding: 53 53 24
Width: 616
Flags: W
HStem: -15 85<134.042 358.53> 408 86<195.789 354.875> 662 84<195 481>
VStem: 103 92<478 662> 433 101<144.453 331.132>
LayerCount: 2
Fore
SplineSet
380 3 m 0
 347 -9 307 -15 262 -15 c 0
 247 -15 230 -14 212 -13 c 0
 194 -12 176 -10 160 -7 c 0
 143 -4 127 -1 113 3 c 0
 99 7 85 12 72 17 c 1
 72 51 72 52 72 120 c 1
 103 103 134 91 164 83 c 0
 195 75 225 70 256 70 c 0
 314 70 359 85 388 114 c 0
 418 144 433 185 433 238 c 0
 433 267 428 292 420 313 c 0
 412 334 400 350 386 364 c 0
 372 377 354 388 332 396 c 0
 310 404 284 408 254 408 c 0
 228 408 202 405 177 399 c 0
 151 393 126 384 103 372 c 1
 103 497 103 652 103 746 c 1
 197 746 387 746 481 746 c 1
 481 725 481 683 481 662 c 1
 409 662 267 662 195 662 c 1
 195 616 195 524 195 478 c 1
 209 483 224 487 239 490 c 0
 252 492 266 494 283 494 c 0
 323 494 359 487 390 475 c 0
 421 463 446 446 467 425 c 0
 512 380 534 318 534 240 c 0
 534 160 511 98 464 53 c 0
 441 31 413 15 380 3 c 0
EndSplineSet
EndChar

StartChar: 6
Encoding: 54 54 25
Width: 616
Flags: W
HStem: -11 79<240.192 394.218> 415 78<240.109 394.14> 633 104<450.501 495.484> 667 81<280.389 474.753>
VStem: 67 93<390 527.351> 451 99<131.949 352.774>
LayerCount: 2
Fore
SplineSet
490 54 m 0xdc
 450 11 392 -11 317 -11 c 0
 271 -11 233 -3 203 12 c 0
 173 27 148 49 128 79 c 0
 107 112 91 152 81 199 c 0
 71 246 67 301 67 362 c 0
 67 497 96 595 156 655 c 0
 216 715 280 746 349 747 c 0
 361 747 373 748 387 748 c 0
 389 748 391 748 393 748 c 0xdc
 405 748 415 747 424 745 c 0
 437 742 450 740 462 737 c 0
 474 734 485 730 496 726 c 1
 496 695 496 656 496 633 c 1xec
 475 646 452 656 429 662 c 0
 417 665 405 667 392 667 c 0
 379 667 368 667 356 667 c 0
 306 666 258 640 213 590 c 1
 180 541 163 475 160 390 c 1
 176 423 198 449 226 467 c 0
 255 485 289 493 328 493 c 0
 397 493 450 471 490 427 c 0
 530 383 550 320 550 240 c 0
 550 159 530 97 490 54 c 0xdc
257 81 m 0
 274 73 294 68 317 68 c 0
 361 68 395 83 417 113 c 0
 440 143 451 185 451 240 c 0
 451 298 440 341 417 371 c 0
 405 386 391 397 374 404 c 0
 357 411 338 415 317 415 c 0
 294 415 274 410 257 402 c 0
 240 394 225 383 214 369 c 0
 202 354 193 336 187 314 c 0
 181 292 177 268 177 240 c 0
 177 212 181 187 187 167 c 0
 193 147 202 129 214 114 c 0
 225 100 240 89 257 81 c 0
EndSplineSet
EndChar

StartChar: 7
Encoding: 55 55 26
Width: 616
Flags: W
HStem: 0 21G<167 305.5> 662 84<70 427>
LayerCount: 2
Fore
SplineSet
167 0 m 1
 232 165 362 497 427 662 c 1
 338 662 159 662 70 662 c 1
 70 683 70 725 70 746 c 1
 188 746 422 746 540 746 c 1
 540 735 540 715 540 704 c 0
 473 528 339 176 272 0 c 1
 246 0 193 0 167 0 c 1
EndSplineSet
EndChar

StartChar: 8
Encoding: 56 56 27
Width: 616
Flags: W
HStem: -14 78<225.721 392.622> 354 80<227.709 389.286> 682 78<227.995 388.935>
VStem: 66 101<121.699 298.169> 83 101<478.713 638.005> 433 101<477.336 638.374> 450 101<122.811 297.783>
LayerCount: 2
Fore
SplineSet
486 42 m 0xe4
 443 4 384 -14 308 -14 c 0
 232 -14 173 5 130 42 c 0
 87 79 66 132 66 200 c 0xf4
 66 253 79 296 106 330 c 1
 121 363 154 385 204 396 c 1
 184 401 167 409 155 419 c 0
 143 429 132 442 120 457 c 0
 107 473 98 490 92 509 c 0
 86 528 83 547 83 568 c 0
 83 626 104 673 144 708 c 0
 164 725 187 738 214 747 c 0
 241 756 272 760 308 760 c 0
 378 760 433 743 473 708 c 0
 513 674 534 627 534 568 c 0xec
 534 524 524 488 506 458 c 0
 488 428 457 407 413 396 c 1
 463 385 499 363 520 330 c 0
 541 297 551 254 551 201 c 0xe2
 551 166 545 135 534 109 c 0
 523 83 507 60 486 42 c 0xe4
216 466 m 0
 237 445 268 434 308 434 c 0
 349 434 380 445 401 466 c 0
 422 487 433 517 433 557 c 0
 433 598 422 629 401 650 c 0
 380 671 349 682 308 682 c 0
 268 682 237 671 216 650 c 0
 195 629 184 598 184 557 c 0xec
 184 517 195 487 216 466 c 0
204 103 m 0
 229 77 265 64 310 64 c 0
 354 64 389 77 413 103 c 0
 437 129 450 164 450 209 c 0
 450 234 446 254 440 272 c 0
 434 290 425 304 413 316 c 0
 388 341 353 354 308 354 c 0
 263 354 229 342 204 317 c 0
 179 292 167 256 167 210 c 0xf2
 167 164 179 129 204 103 c 0
EndSplineSet
EndChar

StartChar: 9
Encoding: 57 57 28
Width: 616
Flags: W
HStem: -4 74<129.393 337.964> 252 79<219.413 374.413> 681 79<219.248 374.168>
VStem: 64 99<394.365 618.341> 436 111<297.007 573.929>
LayerCount: 2
Fore
SplineSet
465 87 m 0
 426 30 364 -2 279 -8 c 0
 255 -6 238 -5 229 -5 c 0
 220 -5 209 -5 195 -4 c 0
 168 1 142 7 118 14 c 1
 118 42 118 42 118 97 c 1
 142 87 164 79 185 74 c 0
 210 72 235 71 259 70 c 0
 317 72 361 98 394 146 c 0
 427 195 447 264 454 355 c 1
 446 338 436 323 424 310 c 0
 412 297 401 286 388 278 c 0
 360 260 325 252 284 252 c 0
 216 252 163 274 123 318 c 0
 83 363 64 425 64 505 c 0
 64 544 68 580 78 612 c 0
 88 644 103 671 124 694 c 0
 164 738 222 760 297 760 c 0
 343 760 381 752 411 736 c 0
 441 720 466 696 486 666 c 0
 507 633 522 592 532 544 c 0
 542 496 547 443 547 383 c 0
 547 317 540 260 525 211 c 0
 510 162 490 121 465 87 c 0
197 375 m 0
 219 346 253 331 297 331 c 0
 320 331 340 335 357 343 c 0
 374 351 389 363 400 377 c 0
 424 408 436 451 436 506 c 0
 436 561 424 604 400 635 c 0
 389 649 374 661 357 669 c 0
 340 677 320 681 297 681 c 0
 276 681 257 678 240 671 c 0
 223 664 209 652 197 637 c 0
 174 607 163 564 163 506 c 0
 163 448 174 405 197 375 c 0
EndSplineSet
EndChar

StartChar: :
Encoding: 58 58 29
Width: 616
Flags: W
HStem: 118 150<255.659 356.341> 464 150<256.658 358.342>
VStem: 234 145<138.66 246.341 485.658 593.34>
LayerCount: 2
Fore
SplineSet
357 138 m 0
 343 124 325 118 305 118 c 0
 285 118 269 124 255 138 c 0
 241 152 234 171 234 193 c 0
 234 215 241 233 255 247 c 0
 269 261 287 268 307 268 c 0
 327 268 344 261 358 247 c 0
 372 233 379 215 379 193 c 0
 379 171 371 152 357 138 c 0
359 485 m 0
 345 471 328 464 307 464 c 0
 287 464 270 471 256 485 c 0
 242 499 235 516 235 539 c 0
 235 561 242 580 256 594 c 0
 270 608 287 614 307 614 c 0
 328 614 345 608 359 594 c 0
 373 580 379 561 379 539 c 0
 379 516 373 499 359 485 c 0
EndSplineSet
EndChar

StartChar: ;
Encoding: 59 59 30
Width: 616
Flags: W
HStem: 464 150<256.658 358.342>
VStem: 235 144<138.659 246.34 485.658 592.341>
LayerCount: 2
Fore
SplineSet
359 485 m 0
 345 471 328 464 307 464 c 0
 287 464 270 471 256 485 c 0
 242 499 235 516 235 539 c 0
 235 561 242 579 256 593 c 0
 270 607 287 614 307 614 c 0
 328 614 345 607 359 593 c 0
 373 579 379 561 379 539 c 0
 379 516 373 499 359 485 c 0
286 62 m 0
 295 75 301 93 306 117 c 1
 286 117 269 124 255 138 c 0
 241 152 235 170 235 192 c 0
 235 214 242 233 256 247 c 0
 270 261 287 268 307 268 c 0
 327 268 344 261 358 247 c 0
 372 233 379 214 379 192 c 0
 379 187 380 183 380 179 c 0
 380 160 379 143 378 130 c 0
 377 114 374 97 368 78 c 0
 359 56 347 35 332 17 c 0
 317 -1 300 -17 278 -32 c 1
 271 -22 265 -12 261 -5 c 0
 257 2 252 11 245 21 c 1
 264 35 277 49 286 62 c 0
EndSplineSet
EndChar

StartChar: <
Encoding: 60 60 31
Width: 616
Flags: W
LayerCount: 2
Fore
SplineSet
569 123 m 1
 437 175 173 280 41 332 c 1
 41 353 41 394 41 415 c 1
 173 467 437 572 569 624 c 1
 569 601 569 556 569 533 c 1
 463 493 250 413 144 373 c 1
 250 333 463 254 569 214 c 1
 569 191 569 146 569 123 c 1
EndSplineSet
EndChar

StartChar: =
Encoding: 61 61 32
Width: 616
Flags: W
HStem: 218 86<45 573> 447 85<45 573>
LayerCount: 2
Fore
SplineSet
45 447 m 1
 45 468 45 511 45 532 c 1
 177 532 441 532 573 532 c 1
 573 511 573 468 573 447 c 1
 441 447 177 447 45 447 c 1
45 218 m 1
 45 240 45 282 45 304 c 1
 177 304 441 304 573 304 c 1
 573 282 573 240 573 218 c 1
 441 218 177 218 45 218 c 1
EndSplineSet
EndChar

StartChar: >
Encoding: 62 62 33
Width: 616
Flags: W
LayerCount: 2
Fore
SplineSet
573 330 m 1
 441 278 176 173 44 121 c 1
 44 144 44 190 44 213 c 1
 150 253 363 331 469 371 c 1
 363 411 150 491 44 531 c 1
 44 554 44 599 44 622 c 1
 176 570 441 465 573 413 c 1
 573 392 573 351 573 330 c 1
EndSplineSet
EndChar

StartChar: ?
Encoding: 63 63 34
Width: 616
Flags: W
HStem: 1 150<236.658 337.342> 682 82<194.593 370.103>
VStem: 215 144<22.6592 129.341> 238 95<236 360.854> 410 101<520.064 644.099>
LayerCount: 2
Fore
SplineSet
238 236 m 1xd8
 238 250 238 278 238 292 c 0
 238 318 243 342 253 364 c 0
 264 387 284 413 311 440 c 0
 326 455 326 454 356 484 c 0
 366 494 373 503 381 512 c 0
 389 521 394 529 398 536 c 0
 406 551 410 566 410 583 c 0
 410 599 407 612 401 624 c 0
 395 636 388 646 378 654 c 0
 356 672 327 682 291 682 c 0
 263 682 236 676 207 665 c 0
 192 659 177 652 161 643 c 0
 145 634 129 624 113 613 c 1
 113 644 113 644 113 707 c 1
 145 726 177 741 208 750 c 0
 238 759 271 764 306 764 c 0
 339 764 368 759 393 751 c 0
 418 743 440 731 457 716 c 0
 493 684 511 641 511 589 c 0
 511 562 505 537 494 516 c 0
 482 494 461 468 431 438 c 0
 416 424 416 424 387 395 c 0
 364 373 349 355 343 341 c 0
 337 328 333 315 333 300 c 0
 333 279 333 252 333 236 c 1
 309 236 262 236 238 236 c 1xd8
338 22 m 0
 324 8 307 1 287 1 c 0
 267 1 250 8 236 22 c 0
 222 36 215 54 215 76 c 0
 215 98 222 116 236 130 c 0
 250 144 267 151 287 151 c 0
 307 151 324 144 338 130 c 0
 352 116 359 98 359 76 c 0xe8
 359 54 352 36 338 22 c 0
EndSplineSet
EndChar

StartChar: @
Encoding: 64 64 35
Width: 616
Flags: W
HStem: -34 85<296.836 557.005> 146 98<350.98 456.787> 516 91<352.11 455.561> 702 80<271.854 449.707>
VStem: 23 90<256.033 503.81> 219 93<285.849 470.812> 497 94<287.987 470.919> 513 78<156 212 541 641.262>
LayerCount: 2
Fore
SplineSet
527 -23 m 0xfd
 498 -31 464 -34 427 -34 c 0
 370 -34 317 -25 265 -8 c 0
 213 9 169 39 132 81 c 0
 97 121 71 162 52 203 c 0
 33 244 23 302 23 375 c 0
 23 442 31 499 48 546 c 0
 65 593 91 635 126 673 c 0
 169 717 211 746 251 761 c 0
 289 775 322 782 351 782 c 0
 352 782 355 782 356 782 c 0
 431 782 488 764 528 728 c 0
 568 692 589 640 591 570 c 0
 591 432 591 259 591 156 c 1
 571 156 533 156 513 156 c 1
 513 170 513 198 513 212 c 1
 500 189 484 173 464 164 c 0
 442 152 423 146 407 146 c 0
 355 149 310 171 273 214 c 0
 256 233 243 256 234 281 c 0
 225 306 219 337 219 372 c 0
 219 405 223 435 232 463 c 0
 241 491 255 517 273 539 c 0
 292 562 312 578 334 590 c 0
 356 602 381 607 406 607 c 0
 422 608 441 604 464 593 c 0
 484 582 500 564 513 541 c 1
 513 552 513 567 513 575 c 0
 507 612 495 641 476 663 c 1
 444 688 402 701 352 702 c 0
 320 699 291 691 264 676 c 0
 237 661 211 637 186 605 c 0
 139 537 115 460 113 376 c 0
 115 292 142 216 195 147 c 0
 219 120 249 96 283 79 c 0
 317 62 356 53 399 51 c 0
 462 49 526 60 590 85 c 1
 598 58 609 24 615 4 c 1
 586 -6 556 -15 527 -23 c 0xfd
339 278 m 0
 359 255 381 244 404 244 c 0
 430 244 452 257 470 281 c 0
 488 305 497 338 497 380 c 0xfe
 497 423 487 457 467 482 c 0
 447 505 426 516 404 516 c 0
 379 517 357 504 338 477 c 0
 323 456 314 424 312 380 c 1
 315 335 324 301 339 278 c 0
EndSplineSet
EndChar

StartChar: A
Encoding: 65 65 36
Width: 616
Flags: W
HStem: 0 21G<18 130 487 598> 194 82<202 414> 726 20G<218.5 398.5>
LayerCount: 2
Fore
SplineSet
18 0 m 1
 75 187 190 559 247 746 c 1
 278 746 339 746 370 746 c 1
 427 559 541 187 598 0 c 1
 572 0 520 0 494 0 c 1
 480 49 452 145 438 194 c 1
 373 194 242 194 177 194 c 1
 163 145 137 49 123 0 c 1
 97 0 44 0 18 0 c 1
202 276 m 1
 255 276 361 276 414 276 c 1
 387 372 335 562 308 658 c 1
 281 562 229 372 202 276 c 1
EndSplineSet
EndChar

StartChar: B
Encoding: 66 66 37
Width: 616
Flags: W
HStem: 0 83<178 433.706> 356 82<178 398.153> 663 83<178 403.722>
VStem: 72 106<83 356 438 663> 440 91<477.199 627.988> 485 90<131.819 301.529>
LayerCount: 2
Fore
SplineSet
72 0 m 1xf4
 72 187 72 559 72 746 c 1
 127 746 238 746 293 746 c 0
 369 746 427 730 469 697 c 0
 509 663 529 616 531 556 c 0xf8
 531 533 529 513 523 495 c 0
 517 477 509 462 499 449 c 0
 488 436 479 427 471 422 c 0
 463 417 447 408 423 399 c 1
 478 384 515 364 533 337 c 0
 561 303 575 258 575 204 c 0
 575 137 552 86 508 52 c 0
 463 17 397 0 310 0 c 0
 230 0 132 0 72 0 c 1xf4
178 438 m 1
 209 438 271 438 302 438 c 0
 351 438 387 448 408 467 c 0
 430 486 440 515 440 555 c 0
 440 594 429 622 408 638 c 0
 386 655 351 663 302 663 c 0
 261 663 209 663 178 663 c 1
 178 607 178 494 178 438 c 1
178 83 m 1
 214 83 286 83 322 83 c 0
 380 83 421 93 447 114 c 0
 472 135 485 168 485 215 c 0xf4
 485 264 471 299 445 322 c 0
 418 345 378 356 322 356 c 0
 274 356 214 356 178 356 c 1
 178 288 178 151 178 83 c 1
EndSplineSet
EndChar

StartChar: C
Encoding: 67 67 38
Width: 616
Flags: W
HStem: -14 82<280.138 472.443> 678 82<280.613 472.159>
VStem: 70 105<204.949 540.728>
LayerCount: 2
Fore
SplineSet
458 -4 m 0
 431 -11 402 -14 371 -14 c 0
 324 -14 283 -6 245 11 c 0
 207 28 176 53 149 87 c 0
 96 155 70 250 70 372 c 0
 70 453 82 523 106 581 c 0
 130 639 164 683 209 714 c 0
 254 745 308 760 371 760 c 0
 403 760 432 756 458 750 c 0
 484 744 510 734 536 719 c 1
 536 685 536 685 536 616 c 1
 512 636 486 651 457 662 c 0
 428 673 399 678 370 678 c 0
 305 678 257 653 224 602 c 0
 191 551 175 474 175 372 c 0
 175 169 240 68 371 68 c 0
 400 68 429 73 458 84 c 0
 486 95 512 110 536 130 c 1
 536 96 536 95 536 26 c 1
 510 12 484 3 458 -4 c 0
EndSplineSet
EndChar

StartChar: D
Encoding: 68 68 39
Width: 616
Flags: W
HStem: 0 83<170 355.312> 664 82<170 358.591>
VStem: 68 102<83 664> 454 102<198.203 547.131>
LayerCount: 2
Fore
SplineSet
68 0 m 1
 68 187 68 559 68 746 c 1
 115 746 211 746 258 746 c 0
 372 746 450 717 492 656 c 0
 534 595 556 500 556 372 c 0
 556 245 531 152 480 91 c 0
 426 30 352 0 258 0 c 0
 195 0 115 0 68 0 c 1
170 83 m 1
 191 83 235 83 256 83 c 0
 322 83 372 104 404 146 c 0
 438 188 454 264 454 374 c 0
 454 484 437 560 404 601 c 0
 387 622 369 638 349 648 c 0
 329 658 298 664 256 664 c 0
 227 664 191 664 170 664 c 1
 170 519 170 228 170 83 c 1
EndSplineSet
EndChar

StartChar: E
Encoding: 69 69 40
Width: 616
Flags: W
HStem: 0 85<200 551> 356 84<200 526> 662 84<200 542>
VStem: 98 102<85 356 440 662>
LayerCount: 2
Fore
SplineSet
98 0 m 1
 98 187 98 559 98 746 c 1
 209 746 431 746 542 746 c 1
 542 725 542 683 542 662 c 1
 456 662 286 662 200 662 c 1
 200 607 200 495 200 440 c 1
 282 440 444 440 526 440 c 1
 526 419 526 377 526 356 c 1
 444 356 282 356 200 356 c 1
 200 288 200 153 200 85 c 1
 288 85 463 85 551 85 c 1
 551 64 551 21 551 0 c 1
 438 0 211 0 98 0 c 1
EndSplineSet
EndChar

StartChar: F
Encoding: 70 70 41
Width: 616
Flags: W
HStem: 0 21G<116 215> 348 82<215 461> 666 82<215 553>
VStem: 116 99<0 348 430 666>
LayerCount: 2
Fore
SplineSet
116 0 m 1
 116 187 116 559 116 746 c 1
 225 746 444 748 553 748 c 1
 553 728 553 686 553 666 c 1
 469 666 299 666 215 666 c 1
 215 607 215 489 215 430 c 1
 276 430 400 430 461 430 c 1
 461 410 461 368 461 348 c 1
 400 348 276 348 215 348 c 1
 215 261 215 87 215 0 c 1
 190 0 141 0 116 0 c 1
EndSplineSet
EndChar

StartChar: G
Encoding: 71 71 42
Width: 616
Flags: W
HStem: -14 81<258.577 440.597> 300 83<322 455> 678 82<262.21 452.198>
VStem: 51 105<201.07 540.13> 455 97<84.8132 300>
LayerCount: 2
Fore
SplineSet
461 5 m 0
 427 -8 390 -14 350 -14 c 0
 302 -14 260 -5 223 12 c 0
 186 29 155 55 129 88 c 0
 77 156 51 251 51 372 c 0
 51 495 78 590 131 658 c 0
 184 726 257 760 351 760 c 0
 384 760 415 756 444 747 c 0
 473 738 500 724 526 706 c 1
 526 672 526 672 526 603 c 1
 512 617 498 629 484 638 c 0
 470 647 456 654 443 660 c 0
 428 666 413 671 398 674 c 0
 383 677 368 678 353 678 c 0
 288 678 239 653 206 602 c 0
 173 551 156 474 156 371 c 0
 156 318 160 274 168 236 c 0
 176 198 188 167 204 142 c 0
 236 92 285 67 351 67 c 0
 373 67 393 70 410 75 c 0
 418 78 425 81 433 85 c 0
 441 89 448 93 455 99 c 1
 455 166 455 250 455 300 c 1
 422 300 355 300 322 300 c 1
 322 321 322 362 322 383 c 1
 380 383 494 383 552 383 c 1
 552 303 552 141 552 61 c 1
 525 36 494 17 461 5 c 0
EndSplineSet
EndChar

StartChar: H
Encoding: 72 72 43
Width: 616
Flags: W
HStem: 0 21G<68 170 446 548> 356 84<170 446> 726 20G<68 170 446 548>
VStem: 68 102<0 356 440 746> 446 102<0 356 440 746>
LayerCount: 2
Fore
SplineSet
68 0 m 1
 68 187 68 559 68 746 c 1
 93 746 145 746 170 746 c 1
 170 670 170 516 170 440 c 1
 239 440 377 440 446 440 c 1
 446 516 446 670 446 746 c 1
 471 746 523 746 548 746 c 1
 548 559 548 187 548 0 c 1
 523 0 471 0 446 0 c 1
 446 89 446 267 446 356 c 1
 377 356 239 356 170 356 c 1
 170 267 170 89 170 0 c 1
 145 0 93 0 68 0 c 1
EndSplineSet
EndChar

StartChar: I
Encoding: 73 73 44
Width: 616
Flags: W
HStem: 0 85<100 257 358 515> 662 84<100 257 358 515>
VStem: 257 101<85 662>
LayerCount: 2
Fore
SplineSet
100 0 m 1
 100 21 100 64 100 85 c 1
 139 85 218 85 257 85 c 1
 257 229 257 518 257 662 c 1
 218 662 139 662 100 662 c 1
 100 683 100 725 100 746 c 1
 204 746 411 746 515 746 c 1
 515 725 515 683 515 662 c 1
 476 662 397 662 358 662 c 1
 358 518 358 229 358 85 c 1
 397 85 476 85 515 85 c 1
 515 64 515 21 515 0 c 1
 411 0 204 0 100 0 c 1
EndSplineSet
EndChar

StartChar: J
Encoding: 74 74 45
Width: 616
Flags: W
HStem: -10 82<61 337.43> 662 84<186 377>
VStem: 377 101<113.958 662>
LayerCount: 2
Fore
SplineSet
382 10 m 0
 359 -4 320 -10 266 -10 c 0
 232 -10 195 -10 154 -10 c 0
 120 -10 88 -10 61 -10 c 1
 61 17 61 17 61 72 c 1
 88 72 116 72 143 72 c 0
 177 72 212 72 246 72 c 0
 268 72 289 74 307 79 c 0
 325 84 339 92 349 105 c 0
 368 130 377 176 377 244 c 0
 377 383 377 558 377 662 c 1
 329 662 234 662 186 662 c 1
 186 683 186 725 186 746 c 1
 259 746 405 746 478 746 c 1
 478 620 478 370 478 244 c 0
 478 181 470 131 455 93 c 0
 440 55 415 27 382 10 c 0
EndSplineSet
EndChar

StartChar: K
Encoding: 75 75 46
Width: 616
Flags: W
HStem: 0 21G<68 170 459.5 612> 726 20G<68 170 446.5 604>
VStem: 68 102<0 315.853 414 746>
LayerCount: 2
Fore
SplineSet
68 0 m 1
 68 187 68 559 68 746 c 1
 93 746 145 746 170 746 c 1
 170 663 170 497 170 414 c 1
 249 497 407 663 486 746 c 1
 516 746 574 746 604 746 c 1
 531 670 387 518 314 442 c 1
 389 332 537 110 612 0 c 1
 582 0 520 0 490 0 c 1
 429 94 308 280 247 374 c 1
 228 354 189 312 170 292 c 1
 170 219 170 73 170 0 c 1
 145 0 93 0 68 0 c 1
EndSplineSet
EndChar

StartChar: L
Encoding: 76 76 47
Width: 616
Flags: W
HStem: 0 85<209 570> 726 20G<108 209>
VStem: 108 101<85 746>
LayerCount: 2
Fore
SplineSet
108 0 m 1
 108 187 108 559 108 746 c 1
 133 746 184 746 209 746 c 1
 209 581 209 250 209 85 c 1
 299 85 480 85 570 85 c 1
 570 64 570 21 570 0 c 1
 454 0 224 0 108 0 c 1
EndSplineSet
EndChar

StartChar: M
Encoding: 77 77 48
Width: 616
Flags: W
HStem: 0 21G<38 126 492 580> 726 20G<38 190 428 580>
VStem: 38 88<0 653> 492 88<0 653>
LayerCount: 2
Fore
SplineSet
38 0 m 1
 38 187 38 559 38 746 c 1
 72 746 139 746 173 746 c 1
 207 654 274 472 308 380 c 1
 342 472 411 654 445 746 c 1
 479 746 546 746 580 746 c 1
 580 559 580 187 580 -0 c 1
 558 0 514 0 492 -0 c 1
 492 163 492 490 492 653 c 1
 456 555 383 358 347 260 c 1
 328 260 290 260 271 260 c 1
 235 358 162 555 126 653 c 1
 126 490 126 163 126 0 c 1
 104 0 60 0 38 0 c 1
EndSplineSet
EndChar

StartChar: N
Encoding: 78 78 49
Width: 616
Flags: W
HStem: -0 21G<70 167 387.5 547> 726 20G<70 229.5 450 547>
VStem: 70 97<0 608> 450 97<138 746>
LayerCount: 2
Fore
SplineSet
70 0 m 1
 70 187 70 559 70 746 c 1
 102 746 166 746 198 746 c 1
 261 594 387 290 450 138 c 1
 450 290 450 594 450 746 c 1
 474 746 523 746 547 746 c 1
 547 559 547 187 547 -0 c 1
 515 0 451 0 419 -0 c 1
 356 152 230 456 167 608 c 1
 167 456 167 152 167 0 c 1
 143 0 94 0 70 0 c 1
EndSplineSet
EndChar

StartChar: O
Encoding: 79 79 50
Width: 616
Flags: W
HStem: -9 82<235.626 380.839> 673 82<236.768 379.185>
VStem: 58 106<178.611 566.147> 453 105<180.178 564.892>
LayerCount: 2
Fore
SplineSet
417 14 m 0
 385 -1 349 -9 308 -9 c 0
 224 -9 161 22 120 86 c 0
 79 149 58 244 58 372 c 0
 58 500 79 596 120 659 c 0
 162 723 225 755 308 755 c 0
 349 755 385 747 417 732 c 0
 449 717 475 692 496 659 c 0
 537 595 558 499 558 372 c 0
 558 245 537 151 496 87 c 0
 475 54 449 29 417 14 c 0
198 143 m 0
 221 96 257 73 308 73 c 0
 359 73 396 96 419 143 c 0
 441 189 453 265 453 372 c 0
 453 479 441 556 419 602 c 0
 396 649 359 673 308 673 c 0
 257 673 221 649 198 602 c 0
 175 554 164 477 164 372 c 0
 164 267 175 191 198 143 c 0
EndSplineSet
EndChar

StartChar: P
Encoding: 80 80 51
Width: 616
Flags: W
HStem: 0 21G<86 187> 300 83<187 393.163> 664 83<187 392.17>
VStem: 86 101<0 300 383 664> 452 106<440.185 606.931>
LayerCount: 2
Fore
SplineSet
86 0 m 1
 86 187 86 560 86 747 c 1
 140 747 250 747 304 747 c 0
 387 747 450 728 494 690 c 0
 516 670 532 646 542 618 c 0
 552 590 558 558 558 523 c 0
 558 450 537 394 494 356 c 0
 452 318 388 300 304 300 c 0
 265 300 216 300 187 300 c 1
 187 225 187 75 187 0 c 1
 162 0 111 0 86 0 c 1
187 383 m 1
 216 383 275 383 304 383 c 0
 329 383 350 386 368 393 c 0
 386 400 401 409 413 420 c 0
 439 445 452 480 452 524 c 0
 452 568 439 602 413 627 c 0
 388 651 352 664 304 664 c 0
 265 664 216 664 187 664 c 1
 187 594 187 453 187 383 c 1
EndSplineSet
EndChar

StartChar: Q
Encoding: 81 81 52
Width: 616
Flags: W
HStem: -9 82<235.626 380.839> 673 82<236.065 380.839>
VStem: 59 105<175.353 566.828> 453 105<176.939 569.061>
LayerCount: 2
Fore
SplineSet
417 14 m 0
 385 -1 349 -9 308 -9 c 0
 224 -9 161 22 120 86 c 0
 79 149 59 245 59 373 c 0
 59 501 80 596 121 659 c 0
 163 723 225 755 308 755 c 0
 349 755 385 747 417 732 c 0
 449 717 476 692 497 659 c 0
 538 595 558 500 558 373 c 0
 558 246 538 151 497 87 c 0
 476 54 449 29 417 14 c 0
198 143 m 0
 221 96 257 73 308 73 c 0
 359 73 396 96 419 143 c 0
 441 189 453 266 453 373 c 0
 453 480 441 557 419 603 c 0
 396 650 359 673 308 673 c 0
 257 673 221 650 198 603 c 0
 175 555 164 478 164 373 c 0
 164 268 175 191 198 143 c 0
429 46 m 1
 451 67 474 87 496 108 c 1
 536 59 577 9 617 -40 c 1
 617 -61 617 -83 617 -104 c 1
 595 -104 574 -104 552 -104 c 1
 511 -54 470 -4 429 46 c 1
EndSplineSet
EndChar

StartChar: R
Encoding: 82 82 53
Width: 616
Flags: W
HStem: 0 21G<72 173 497 616> 316 82<173 347> 663 83<173 373.561>
VStem: 72 101<0 316 398 663> 427 106<445.364 611.411>
LayerCount: 2
Fore
SplineSet
72 0 m 1
 72 187 72 559 72 746 c 1
 124 746 228 746 280 746 c 0
 362 746 425 728 468 691 c 0
 512 654 533 600 533 532 c 0
 533 506 530 483 523 463 c 0
 516 443 506 426 493 410 c 0
 467 379 429 359 380 352 c 1
 407 345 429 333 446 315 c 0
 455 305 466 292 477 274 c 0
 488 256 500 233 515 204 c 0
 549 136 591 51 616 0 c 1
 589 0 535 0 508 0 c 1
 486 47 441 141 419 188 c 0
 406 216 394 239 382 256 c 0
 370 273 360 284 350 292 c 0
 340 300 328 306 314 310 c 0
 300 314 286 316 270 316 c 0
 238 316 197 316 173 316 c 1
 173 237 173 79 173 0 c 1
 148 0 97 0 72 0 c 1
173 398 m 1
 201 398 256 398 284 398 c 0
 332 398 368 409 392 431 c 0
 416 453 427 485 427 529 c 0
 427 573 415 606 390 629 c 0
 378 640 362 648 344 654 c 0
 326 660 305 663 280 663 c 0
 244 663 200 663 173 663 c 1
 173 597 173 464 173 398 c 1
EndSplineSet
EndChar

StartChar: S
Encoding: 83 83 54
Width: 616
Flags: W
HStem: -15 82<173.827 391.693> 678 82<225.815 434.463>
VStem: 70 96<485.461 622.854> 453 96<123.25 274.439>
LayerCount: 2
Fore
SplineSet
484 42 m 0
 440 5 376 -15 292 -15 c 0
 256 -15 221 -11 186 -3 c 0
 151 5 115 15 79 30 c 1
 79 66 79 66 79 138 c 1
 117 114 153 96 188 84 c 0
 222 73 256 67 291 67 c 0
 342 67 381 78 410 101 c 0
 438 124 453 157 453 200 c 0
 453 236 443 263 424 282 c 0
 413 293 399 302 383 309 c 0
 367 316 347 322 322 328 c 0
 304 332 304 333 268 341 c 0
 234 349 204 358 179 369 c 0
 154 380 134 395 117 412 c 0
 86 443 70 485 70 539 c 0
 70 607 92 660 137 700 c 0
 158 719 184 734 214 744 c 0
 244 754 278 760 316 760 c 0
 345 760 375 756 406 750 c 0
 421 747 437 743 454 738 c 0
 471 733 488 728 506 721 c 1
 506 687 506 686 506 618 c 1
 490 628 474 638 459 645 c 0
 444 652 429 658 414 663 c 0
 383 673 352 678 321 678 c 0
 273 678 236 666 208 644 c 0
 180 622 166 591 166 552 c 0
 166 535 168 522 173 510 c 0
 178 498 185 488 194 480 c 0
 213 462 246 447 295 436 c 0
 313 432 313 432 348 424 c 0
 417 408 467 383 500 347 c 0
 532 313 549 265 549 205 c 0
 549 167 544 135 532 108 c 0
 520 81 504 59 484 42 c 0
EndSplineSet
EndChar

StartChar: T
Encoding: 84 84 55
Width: 616
Flags: W
HStem: 0 21G<258 360> 662 84<24 258 360 593>
VStem: 258 102<0 662>
LayerCount: 2
Fore
SplineSet
258 0 m 1
 258 165 258 497 258 662 c 1
 199 662 83 662 24 662 c 1
 24 683 24 725 24 746 c 1
 166 746 451 746 593 746 c 1
 593 725 593 683 593 662 c 1
 535 662 418 662 360 662 c 1
 360 497 360 165 360 0 c 1
 335 0 283 0 258 0 c 1
EndSplineSet
EndChar

StartChar: U
Encoding: 85 85 56
Width: 616
Flags: W
HStem: -15 82<210.366 406.139> 726 20G<61 162 454 555>
VStem: 61 101<113.761 746> 454 101<113.681 746>
LayerCount: 2
Fore
SplineSet
368 -10 m 0
 349 -13 329 -15 309 -15 c 0
 280 -15 245 -10 201 -0 c 0
 188 5 175 10 161 18 c 0
 147 26 135 34 124 44 c 0
 114 53 104 64 96 77 c 0
 88 90 82 105 76 124 c 0
 71 141 66 162 64 187 c 0
 62 212 61 245 61 286 c 0
 61 439 61 631 61 746 c 1
 86 746 137 746 162 746 c 1
 162 620 162 366 162 240 c 0
 162 204 163 178 165 163 c 0
 167 148 171 136 176 127 c 0
 187 107 202 92 222 82 c 0
 242 72 271 67 308 67 c 0
 345 67 374 72 394 82 c 0
 415 93 431 108 441 127 c 0
 446 137 449 148 451 162 c 0
 453 178 454 203 454 239 c 0
 454 408 454 619 454 746 c 1
 479 746 530 746 555 746 c 1
 555 631 555 401 555 286 c 0
 555 242 554 208 551 184 c 0
 548 160 545 139 541 124 c 0
 532 92 516 65 492 44 c 0
 481 34 469 25 455 18 c 0
 441 11 429 5 416 0 c 0
 404 -4 387 -7 368 -10 c 0
EndSplineSet
EndChar

StartChar: V
Encoding: 86 86 57
Width: 616
Flags: W
HStem: 0 21G<219.5 397.5> 726 20G<28 149.5 467.5 588>
LayerCount: 2
Fore
SplineSet
247 0 m 1
 192 187 83 559 28 746 c 1
 53 746 102 746 127 746 c 1
 172 582 263 255 308 91 c 1
 353 255 445 582 490 746 c 1
 515 746 563 746 588 746 c 1
 533 559 425 187 370 0 c 1
 339 0 278 0 247 0 c 1
EndSplineSet
EndChar

StartChar: W
Encoding: 87 87 58
Width: 616
Flags: W
HStem: 0 21G<98 219.5 397.5 519> 726 20G<0 100.5 516.5 616>
VStem: 0 91<601.486 746> 526 90<689.788 746>
LayerCount: 2
Fore
SplineSet
112 0 m 1
 84 187 28 559 0 746 c 1
 23 746 68 746 91 746 c 1
 110 597 147 300 166 151 c 1
 188 249 233 444 255 542 c 1
 281 542 335 542 361 542 c 1
 383 444 428 248 450 150 c 1
 469 299 507 597 526 746 c 1
 549 746 593 746 616 746 c 1
 588 559 533 187 505 0 c 1
 481 0 434 0 410 0 c 1
 385 107 333 323 308 430 c 1
 283 323 232 107 207 0 c 1
 183 0 136 0 112 0 c 1
EndSplineSet
EndChar

StartChar: X
Encoding: 88 88 59
Width: 616
Flags: W
HStem: 0 21G<9 142.5 475 607> 726 20G<43 172.5 461 591>
LayerCount: 2
Fore
SplineSet
9 0 m 1
 71 99 197 297 259 396 c 1
 205 484 97 658 43 746 c 1
 70 746 125 746 152 746 c 1
 193 676 275 535 316 465 c 1
 358 535 440 676 482 746 c 1
 509 746 564 746 591 746 c 1
 535 658 424 484 368 396 c 1
 428 297 547 99 607 0 c 1
 580 0 525 0 498 0 c 1
 452 80 362 242 316 322 c 1
 267 242 167 80 118 0 c 1
 91 0 36 0 9 0 c 1
EndSplineSet
EndChar

StartChar: Y
Encoding: 89 89 60
Width: 616
Flags: W
HStem: 0 21G<257 358> 726 20G<18 149 467.5 598>
VStem: 257 101<0 372.191>
LayerCount: 2
Fore
SplineSet
257 0 m 1
 257 84 257 251 257 335 c 1
 197 438 78 643 18 746 c 1
 45 746 99 746 126 746 c 1
 172 664 262 499 308 417 c 1
 353 499 445 664 490 746 c 1
 517 746 571 746 598 746 c 1
 538 643 418 438 358 335 c 1
 358 251 358 84 358 0 c 1
 333 0 282 0 257 0 c 1
EndSplineSet
EndChar

StartChar: Z
Encoding: 90 90 61
Width: 616
Flags: W
HStem: 0 85<160 562> 662 84<66 434>
LayerCount: 2
Fore
SplineSet
55 0 m 1
 55 19 55 58 55 77 c 1
 150 223 339 516 434 662 c 1
 342 662 158 662 66 662 c 1
 66 683 66 725 66 746 c 1
 187 746 429 746 550 746 c 1
 550 727 550 689 550 670 c 1
 452 524 258 231 160 85 c 1
 260 85 462 85 562 85 c 1
 562 64 562 21 562 0 c 1
 435 0 182 0 55 0 c 1
EndSplineSet
EndChar

StartChar: [
Encoding: 91 91 62
Width: 616
Flags: W
HStem: -95 79<241 461> 763 79<241 461>
VStem: 149 92<-16 763>
LayerCount: 2
Fore
SplineSet
149 -95 m 1
 149 139 149 608 149 842 c 1
 227 842 383 842 461 842 c 1
 461 822 461 783 461 763 c 1
 406 763 296 763 241 763 c 1
 241 568 241 179 241 -16 c 1
 296 -16 406 -16 461 -16 c 1
 461 -36 461 -75 461 -95 c 1
 383 -95 227 -95 149 -95 c 1
EndSplineSet
EndChar

StartChar: \
Encoding: 92 92 63
Width: 616
Flags: W
LayerCount: 2
Fore
SplineSet
158 793 m 1
 256 583 453 161 551 -49 c 1
 527 -49 480 -49 456 -49 c 1
 358 161 161 583 63 793 c 1
 87 793 134 793 158 793 c 1
EndSplineSet
EndChar

StartChar: ]
Encoding: 93 93 64
Width: 616
Flags: W
HStem: -95 79<154 374> 763 80<154 374>
VStem: 374 92<-16 763>
LayerCount: 2
Fore
SplineSet
154 -95 m 1
 154 -75 154 -36 154 -16 c 1
 209 -16 319 -16 374 -16 c 1
 374 179 374 568 374 763 c 1
 319 763 209 763 154 763 c 1
 154 783 154 823 154 843 c 1
 232 843 388 843 466 843 c 1
 466 609 466 139 466 -95 c 1
 388 -95 232 -95 154 -95 c 1
EndSplineSet
EndChar

StartChar: ^
Encoding: 94 94 65
Width: 616
Flags: W
HStem: 468 278
LayerCount: 2
Fore
SplineSet
36 468 m 1
 93 538 207 676 264 746 c 1
 286 746 330 746 352 746 c 1
 409 676 523 538 580 468 c 1
 552 468 498 468 470 468 c 1
 429 517 349 614 308 663 c 1
 268 614 186 517 146 468 c 1
 118 468 64 468 36 468 c 1
EndSplineSet
EndChar

StartChar: _
Encoding: 95 95 66
Width: 616
Flags: W
HStem: -93 71<-9 625>
LayerCount: 2
Fore
SplineSet
-9 -93 m 1
 -9 -75 -9 -40 -9 -22 c 1
 150 -22 466 -22 625 -22 c 1
 625 -40 625 -75 625 -93 c 1
 466 -93 150 -93 -9 -93 c 1
EndSplineSet
EndChar

StartChar: `
Encoding: 96 96 67
Width: 616
Flags: W
HStem: 599 220
VStem: 167 258
LayerCount: 2
Fore
SplineSet
425 599 m 1
 397 599 341 599 313 599 c 1
 276 654 204 764 167 819 c 1
 195 819 250 819 278 819 c 1
 315 764 388 654 425 599 c 1
EndSplineSet
EndChar

StartChar: a
Encoding: 97 97 68
Width: 616
Flags: W
HStem: -14 76<198.978 361.793> -1 21G<516.5 530.5> 281 73<210.153 438> 496 78<142 393.5>
VStem: 68 92<99.6108 238.402> 438 93<148.058 281 354 452.964> 448 83<0 74>
LayerCount: 2
Fore
SplineSet
365 4 m 0x7a
 330 -9 293 -14 254 -14 c 0
 200 -14 156 1 121 32 c 0
 86 63 68 109 68 167 c 0
 68 215 80 253 103 280 c 0
 126 307 156 326 194 337 c 0
 232 348 272 354 315 354 c 0
 356 354 407 354 438 354 c 1
 438 358 438 364 438 368 c 0xbc
 438 416 426 449 402 468 c 0
 378 487 344 496 300 496 c 0
 266 496 238 495 216 495 c 0
 194 495 169 494 142 493 c 1
 142 519 142 519 142 571 c 1
 170 571 196 571 217 572 c 0
 238 573 265 574 298 574 c 0
 331 574 363 569 395 560 c 0
 427 551 454 536 477 515 c 0
 500 494 515 466 523 431 c 0
 528 406 531 370 531 320 c 0xba
 531 282 531 281 531 205 c 0xbc
 531 174 531 140 531 102 c 0
 531 64 531 30 530 -1 c 1
 503 -1 503 -1 448 0 c 1
 449 21 448 34 448 41 c 0
 448 48 448 59 448 74 c 1
 428 40 400 17 365 4 c 0x7a
192 89 m 0
 214 71 242 62 277 62 c 0
 315 62 346 71 370 90 c 0
 394 109 411 133 422 163 c 0
 433 193 438 226 438 261 c 0
 438 268 438 276 438 281 c 1
 409 281 351 281 322 281 c 0
 296 281 271 279 246 273 c 0
 221 267 200 256 184 240 c 0
 168 224 160 199 160 168 c 0
 160 133 170 107 192 89 c 0
EndSplineSet
EndChar

StartChar: b
Encoding: 98 98 69
Width: 616
Flags: W
HStem: -14 78<252.143 397.687> 0 21G<96 180> 496 78<252.796 396.731>
VStem: 96 92<141.148 417.863 489 778> 96 83<0 69.8714> 459 97<142.326 418.024>
LayerCount: 2
Fore
SplineSet
444 12 m 0x74
 417 -5 382 -14 342 -14 c 0
 271 -14 220 14 188 71 c 1xb4
 185 47 181 18 179 0 c 1
 158 0 117 0 96 0 c 1x6c
 96 194 96 584 96 778 c 1
 119 778 165 778 188 778 c 1
 188 706 188 561 188 489 c 1
 203 518 225 539 252 553 c 0
 279 567 309 574 343 574 c 0
 383 574 417 565 444 548 c 0
 471 531 493 508 509 479 c 0
 526 451 538 420 545 385 c 0
 552 350 556 315 556 280 c 0
 556 245 552 211 545 176 c 0
 538 141 526 109 509 80 c 0
 493 51 471 29 444 12 c 0x74
254 84 m 0
 272 70 295 64 324 64 c 0
 353 64 377 70 395 84 c 0
 413 98 426 116 435 138 c 0
 444 160 451 183 454 208 c 0
 457 233 459 257 459 280 c 0
 459 303 457 326 454 351 c 0
 451 376 444 400 435 422 c 0
 426 444 413 461 395 475 c 0
 377 489 353 496 324 496 c 0
 295 496 272 489 254 475 c 0
 236 461 222 444 212 422 c 0
 203 400 197 377 194 352 c 0
 191 327 188 303 188 280 c 0
 188 257 191 233 194 208 c 0
 197 183 203 159 212 137 c 0
 222 115 236 98 254 84 c 0
EndSplineSet
EndChar

StartChar: c
Encoding: 99 99 70
Width: 616
Flags: W
HStem: -15 79<264.08 461.713> 495 78<266.173 459.468>
VStem: 82 97<160.351 400.408>
LayerCount: 2
Fore
SplineSet
515 28 m 1
 467 -1 413 -15 352 -15 c 0
 293 -15 244 -2 204 23 c 0
 164 48 133 82 112 126 c 0
 92 170 82 221 82 279 c 0
 82 337 92 389 113 433 c 0
 134 477 164 511 204 536 c 0
 244 561 294 573 354 573 c 0
 385 573 413 570 438 563 c 0
 463 556 489 544 515 530 c 1
 515 498 515 498 515 434 c 1
 491 455 468 470 444 480 c 0
 420 490 392 495 362 495 c 0
 317 495 282 485 255 466 c 0
 228 447 208 421 196 388 c 0
 184 355 179 319 179 279 c 0
 179 239 185 204 197 171 c 0
 209 138 228 111 255 92 c 0
 282 73 317 64 362 64 c 0
 391 64 419 68 444 78 c 0
 469 88 493 103 515 124 c 1
 515 92 515 92 515 28 c 1
EndSplineSet
EndChar

StartChar: d
Encoding: 100 100 71
Width: 616
Flags: W
HStem: -15 78<221.78 364.703> 0 21G<437 521> 496 78<222.177 365.726>
VStem: 61 98<138.979 420.026> 429 92<143.239 415.785 488 778> 438 83<0 69.1447>
LayerCount: 2
Fore
SplineSet
429 70 m 1x78
 396 13 345 -15 277 -15 c 0
 236 -15 202 -6 174 11 c 0
 146 28 125 52 108 81 c 0
 92 110 79 142 72 177 c 0
 65 212 61 248 61 284 c 0
 61 373 81 444 120 496 c 0
 159 548 212 574 279 574 c 0
 312 574 341 567 367 553 c 0
 393 539 414 517 429 488 c 1
 429 584 429 706 429 778 c 1
 452 778 498 778 521 778 c 1xb8
 521 584 521 194 521 0 c 1
 500 0 459 0 438 0 c 1x74
 436 18 431 52 429 70 c 1x78
223 84 m 0
 241 70 264 63 293 63 c 0
 322 63 346 70 364 84 c 0
 382 98 395 115 404 137 c 0
 414 159 421 183 424 208 c 0
 427 233 429 257 429 280 c 0
 429 303 427 327 424 352 c 0
 421 377 414 400 404 422 c 0
 395 444 382 461 364 475 c 0
 346 489 322 496 293 496 c 0
 264 496 241 489 223 475 c 0
 205 461 191 444 182 422 c 0
 173 400 167 377 164 352 c 0
 161 327 159 303 159 280 c 0
 159 257 161 233 164 208 c 0
 167 183 173 159 182 137 c 0
 191 115 205 98 223 84 c 0
EndSplineSet
EndChar

StartChar: e
Encoding: 101 101 72
Width: 616
Flags: W
HStem: -14 78<242.069 458.743> 258 72<161 464> 496 78<240.306 404.492>
VStem: 62 96<152.066 258 330 404.484> 464 92<330 431.564>
LayerCount: 2
Fore
SplineSet
439 -3 m 0
 407 -11 373 -14 339 -14 c 0
 253 -14 185 11 136 63 c 0
 87 115 62 186 62 276 c 0
 62 332 71 381 91 426 c 0
 111 471 140 508 178 534 c 0
 217 561 264 574 321 574 c 0
 396 574 454 550 495 502 c 0
 536 454 556 388 556 303 c 0
 556 288 556 269 556 258 c 1
 456 258 258 258 158 258 c 1
 158 257 158 256 158 255 c 0
 158 197 173 151 204 116 c 0
 235 81 280 64 340 64 c 0
 375 64 409 69 441 80 c 0
 473 91 505 104 535 120 c 1
 535 90 535 89 535 28 c 1
 503 15 471 5 439 -3 c 0
161 330 m 1
 262 330 262 330 464 330 c 1
 464 361 459 389 450 414 c 0
 441 439 426 459 405 474 c 0
 385 489 358 496 324 496 c 0
 290 496 262 488 239 473 c 0
 216 458 198 439 185 414 c 0
 172 389 164 361 161 330 c 1
EndSplineSet
EndChar

StartChar: f
Encoding: 102 102 73
Width: 616
Flags: W
HStem: 0 21G<232 324> 430 78<97 232 324 492> 671 77<343.617 521>
VStem: 232 92<0 430 508 650.336>
LayerCount: 2
Fore
SplineSet
232 0 m 1
 232 108 232 322 232 430 c 1
 198 430 131 430 97 430 c 1
 97 449 97 489 97 508 c 1
 131 508 198 508 232 508 c 1
 232 523 232 554 232 569 c 0
 232 630 246 675 274 704 c 0
 302 733 346 748 406 748 c 0
 445 748 492 748 521 748 c 1
 521 729 521 690 521 671 c 1
 494 671 439 671 412 671 c 0
 379 671 356 665 343 651 c 0
 330 637 324 613 324 579 c 0
 324 555 324 526 324 508 c 1
 366 508 450 508 492 508 c 1
 492 489 492 449 492 430 c 1
 450 430 366 430 324 430 c 1
 324 322 324 108 324 0 c 1
 301 0 255 0 232 0 c 1
EndSplineSet
EndChar

StartChar: g
Encoding: 103 103 74
Width: 616
Flags: W
HStem: -215 82<143 405.287> -4 77<238.515 380.922> 496 78<239.158 382.18> 538 20G<452 535>
VStem: 76 97<153.878 419.034> 451 81<-89.5677 72 487 558>
LayerCount: 2
Fore
SplineSet
481 -148 m 0xdc
 447 -192 403 -215 348 -215 c 0
 321 -215 287 -215 246 -215 c 0
 205 -215 170 -215 143 -215 c 1
 143 -188 143 -188 143 -133 c 1
 173 -133 204 -133 233 -133 c 0
 262 -133 290 -133 317 -133 c 0
 406 -133 451 -92 451 -10 c 0
 451 4 451 18 451 33 c 0
 451 48 451 62 451 72 c 1
 431 38 407 16 382 8 c 0
 357 0 327 -4 292 -4 c 0
 252 -4 219 5 191 22 c 0
 163 39 141 61 124 89 c 0
 107 117 95 149 87 183 c 0
 79 217 76 251 76 285 c 0
 76 319 79 353 87 387 c 0
 95 421 107 452 124 480 c 0
 141 508 163 531 191 548 c 0
 219 565 253 574 293 574 c 0xec
 327 574 358 567 386 553 c 0
 414 539 437 518 453 487 c 1
 453 511 452 540 452 558 c 1
 473 558 514 558 535 558 c 1
 534 418 533 140 532 -0 c 0
 532 -55 515 -104 481 -148 c 0xdc
209 128 m 0
 233 91 266 73 310 73 c 0
 354 73 387 91 409 127 c 0
 431 163 443 217 443 286 c 0
 443 308 441 332 438 356 c 0
 435 380 428 403 419 424 c 0
 410 445 397 463 379 476 c 0
 361 489 339 496 310 496 c 0
 266 496 232 477 208 442 c 0
 184 407 173 355 173 286 c 0
 173 217 185 165 209 128 c 0
EndSplineSet
EndChar

StartChar: h
Encoding: 104 104 75
Width: 616
Flags: W
HStem: 0 21G<98 190 433 526> 494 83<251.305 396.931>
VStem: 98 92<0 428.071 492 778> 433 93<0 454.804>
LayerCount: 2
Fore
SplineSet
98 0 m 1
 98 194 98 584 98 778 c 1
 121 778 167 778 190 778 c 1
 190 707 190 563 190 492 c 1
 224 552 278 580 355 577 c 0
 401 577 437 566 461 543 c 0
 485 520 503 492 512 458 c 0
 521 424 526 387 526 347 c 0
 526 231 526 87 526 0 c 1
 503 0 456 0 433 0 c 1
 433 87 433 260 433 347 c 0
 433 397 425 434 409 458 c 0
 393 482 366 494 329 494 c 0
 294 494 266 485 245 468 c 0
 224 451 210 429 202 402 c 0
 194 375 190 346 190 316 c 0
 190 210 190 79 190 0 c 1
 167 0 121 0 98 0 c 1
EndSplineSet
EndChar

StartChar: i
Encoding: 105 105 76
Width: 616
Flags: W
HStem: 0 21G<284 376> 477 83<164 284> 662 116<274 376>
VStem: 274 102<662 778> 284 92<0 477>
LayerCount: 2
Fore
SplineSet
361 662 m 0xf0
 337 662 337 662 289 662 c 0
 279 662 274 666 274 676 c 0
 274 705 274 705 274 763 c 0
 274 773 279 778 289 778 c 0
 313 778 313 778 361 778 c 0
 371 778 376 773 376 763 c 0
 376 734 376 734 376 676 c 0
 376 666 371 662 361 662 c 0xf0
376 0 m 1xe8
 345 0 307 0 284 0 c 1
 284 41 284 68 284 82 c 0
 284 96 284 135 284 199 c 0
 284 292 284 408 284 477 c 1
 254 477 194 477 164 477 c 1
 164 498 164 539 164 560 c 1
 217 560 323 560 376 560 c 1
 376 536 376 513 376 492 c 0
 376 471 375 445 375 415 c 0
 375 374 375 349 375 339 c 0
 375 329 375 312 375 291 c 0
 375 262 376 263 377 146 c 0
 377 140 377 133 377 127 c 0
 377 111 376 95 376 79 c 0
 376 56 376 29 376 0 c 1xe8
EndSplineSet
EndChar

StartChar: j
Encoding: 106 106 77
Width: 616
Flags: W
HStem: -214 82<114 310.919> 477 83<204 341> 662 116<332 434>
VStem: 332 102<662 778> 341 92<-101.043 477>
LayerCount: 2
Fore
SplineSet
419 662 m 0xf0
 395 662 395 662 347 662 c 0
 337 662 332 666 332 676 c 0
 332 705 332 705 332 763 c 0
 332 773 337 778 347 778 c 0
 371 778 371 778 419 778 c 0
 429 778 434 773 434 763 c 0
 434 734 434 734 434 676 c 0
 434 666 429 662 419 662 c 0xf0
114 -214 m 1
 114 -194 114 -152 114 -132 c 1
 148 -132 217 -132 251 -132 c 0
 311 -132 341 -92 341 -10 c 0
 341 152 341 355 341 477 c 1
 307 477 238 477 204 477 c 1
 204 498 204 539 204 560 c 1
 261 560 376 560 433 560 c 1
 433 418 433 132 433 -10 c 0xe8
 433 -75 418 -125 388 -161 c 0
 358 -197 316 -214 261 -214 c 0
 212 -214 151 -214 114 -214 c 1
EndSplineSet
EndChar

StartChar: k
Encoding: 107 107 78
Width: 616
Flags: W
HStem: 0 21G<113 208 458 596> 540 20G<420 562>
VStem: 113 95<0 245.145 328 778>
LayerCount: 2
Fore
SplineSet
113 0 m 1
 113 194 113 584 113 778 c 1
 137 778 184 778 208 778 c 1
 208 665 208 441 208 328 c 1
 268 386 390 502 450 560 c 1
 478 560 534 560 562 560 c 1
 507 507 396 402 341 349 c 1
 405 262 532 87 596 0 c 1
 568 0 512 0 484 0 c 1
 432 72 328 217 276 289 c 1
 259 273 225 240 208 224 c 1
 208 168 208 56 208 0 c 1
 184 0 137 0 113 0 c 1
EndSplineSet
EndChar

StartChar: l
Encoding: 108 108 79
Width: 616
Flags: W
HStem: 0 21G<267 359> 664 84<137 266>
VStem: 267 92<0 665>
LayerCount: 2
Fore
SplineSet
308 0 m 0
 301 0 287 0 267 0 c 1
 267 48 267 121 267 220 c 0
 267 319 267 383 267 410 c 0
 267 437 267 464 267 491 c 0
 267 518 267 576 266 665 c 1
 223 665 169 664 137 664 c 1
 137 685 137 727 137 748 c 1
 193 748 305 748 361 748 c 1
 361 697 359 594 359 543 c 0
 359 502 359 475 359 461 c 0
 359 447 359 423 359 389 c 0
 359 358 359 358 359 297 c 0
 359 249 359 198 359 143 c 0
 359 88 359 41 359 0 c 1
 332 0 315 0 308 0 c 0
EndSplineSet
EndChar

StartChar: m
Encoding: 109 109 80
Width: 616
Flags: W
HStem: 0 21G<41 125 268 352 496 580> 496 78<154.653 250.762 376.492 480.267> 540 20G<41 117>
VStem: 41 84<0 477.843> 41 76<511 560> 268 84<0 465.435> 496 84<0 480.105>
LayerCount: 2
Fore
SplineSet
41 0 m 1xd6
 41 140 41 420 41 560 c 1
 60 560 98 560 117 560 c 1
 117 548 117 523 117 511 c 1xae
 140 552 179 573 238 574 c 0
 278 574 308 550 327 503 c 1
 358 550 402 574 458 574 c 0
 503 574 535 556 553 522 c 0
 571 487 580 421 580 324 c 0
 580 216 580 81 580 0 c 1
 559 0 517 0 496 0 c 1
 496 80 496 240 496 320 c 0
 496 362 495 395 493 418 c 0
 491 441 488 458 483 469 c 0
 475 487 457 496 431 496 c 0
 406 496 384 486 368 466 c 0
 362 454 358 438 356 416 c 0
 354 394 352 361 352 320 c 0
 352 213 352 80 352 0 c 1
 331 0 289 0 268 0 c 1
 268 80 268 240 268 320 c 0
 268 360 267 392 265 416 c 0
 263 440 259 457 254 468 c 0
 245 487 228 496 203 496 c 0
 170 496 149 487 140 467 c 0
 135 456 131 438 129 415 c 0
 127 392 125 360 125 320 c 0
 125 213 125 80 125 0 c 1
 104 0 62 0 41 0 c 1xd6
EndSplineSet
EndChar

StartChar: n
Encoding: 110 110 81
Width: 616
Flags: W
HStem: -0 21G<98 190 433 526> 493 80<260.876 394.568> 540 20G<98 181>
VStem: 98 92<0 426.509> 98 82<477 560> 433 93<0 451.26>
LayerCount: 2
Fore
SplineSet
98 0 m 1xd4
 98 140 98 420 98 560 c 1
 119 560 159 560 180 560 c 1xac
 182 539 188 497 190 476 c 1
 224 541 278 573 354 573 c 0
 468 573 526 498 526 347 c 0
 526 231 526 87 526 -0 c 1
 503 0 456 0 433 -0 c 1
 433 87 433 260 433 347 c 0
 433 397 425 434 407 458 c 0
 389 482 363 493 326 493 c 0
 282 493 249 478 225 447 c 0
 201 416 190 372 190 316 c 0
 190 210 190 79 190 0 c 1
 167 0 121 0 98 0 c 1xd4
EndSplineSet
EndChar

StartChar: o
Encoding: 111 111 82
Width: 616
Flags: W
HStem: -14 78<235.19 382.192> 496 78<234.966 381.829>
VStem: 69 97<148.16 411.494> 451 97<148.96 411.641>
LayerCount: 2
Fore
SplineSet
486 61 m 0
 445 11 386 -14 309 -14 c 0
 231 -14 171 11 130 61 c 0
 89 111 69 184 69 279 c 0
 69 374 90 447 131 498 c 0
 172 549 231 574 308 574 c 0
 385 574 445 548 486 498 c 0
 527 448 548 374 548 278 c 0
 548 183 527 111 486 61 c 0
203 120 m 0
 228 83 263 64 309 64 c 0
 355 64 390 83 414 120 c 0
 438 157 451 210 451 280 c 0
 451 349 438 403 414 440 c 0
 390 477 355 496 309 496 c 0
 263 496 227 477 203 440 c 0
 179 403 166 349 166 280 c 0
 166 210 178 157 203 120 c 0
EndSplineSet
EndChar

StartChar: p
Encoding: 112 112 83
Width: 616
Flags: W
HStem: -213 21G<95 188> -14 78<254.717 395.707> 496 78<254.029 396.029> 540 20G<95 179>
VStem: 95 93<-213 70 145.021 415.366> 95 83<488.857 560> 457 97<139.075 420.821>
LayerCount: 2
Fore
SplineSet
95 -213 m 1xea
 95 -20 95 367 95 560 c 1
 116 560 157 560 178 560 c 1xd6
 180 542 185 506 187 488 c 1
 219 545 270 574 338 574 c 0
 405 574 458 547 496 495 c 0
 534 443 554 371 554 280 c 0
 554 189 535 117 496 64 c 0
 457 11 404 -14 338 -14 c 0
 268 -14 218 13 188 70 c 1
 188 -24 188 -142 188 -213 c 1
 165 -213 118 -213 95 -213 c 1xea
223 120 m 0
 247 82 281 64 326 64 c 0
 414 64 457 136 457 280 c 0
 457 424 414 496 326 496 c 0xe2
 281 496 247 477 223 440 c 0
 199 403 187 349 187 280 c 0
 187 211 199 158 223 120 c 0
EndSplineSet
EndChar

StartChar: q
Encoding: 113 113 84
Width: 616
Flags: W
HStem: -16 77<230.951 369.2> 493 79<231.942 370.345> 538 20G<443 528>
VStem: 69 97<143.023 411.755> 435 93<-215 70 143.021 413.366> 444 84<487.129 558>
LayerCount: 2
Fore
SplineSet
435 -215 m 1xb8
 435 -144 435 -1 435 70 c 1
 404 13 353 -16 283 -16 c 0
 243 -16 209 -8 182 9 c 0
 155 26 133 50 116 78 c 0
 99 106 87 137 80 171 c 0
 73 205 69 240 69 274 c 0
 69 366 88 439 127 492 c 0
 166 545 219 572 286 572 c 0
 354 572 404 543 435 486 c 1xd8
 438 510 442 540 444 558 c 1
 465 558 507 558 528 558 c 1xb4
 528 365 528 -22 528 -215 c 1
 505 -215 458 -215 435 -215 c 1xb8
201 118 m 0
 224 80 257 61 300 61 c 0
 343 61 377 80 400 118 c 0
 423 156 435 209 435 278 c 0
 435 347 423 401 400 438 c 0
 377 475 343 493 300 493 c 0
 257 493 224 474 201 437 c 0
 178 400 166 347 166 278 c 0
 166 209 178 156 201 118 c 0
EndSplineSet
EndChar

StartChar: r
Encoding: 114 114 85
Width: 616
Flags: W
HStem: 0 21G<151 244> 488 86<325.01 514.24> 540 20G<151 238>
VStem: 151 90<0 396.693 476 560>
LayerCount: 2
Fore
SplineSet
151 0 m 1xd0
 151 140 151 420 151 560 c 1
 173 560 216 560 238 560 c 1xb0
 238 539 240 497 240 476 c 1
 258 506 282 530 314 547 c 0
 346 564 384 574 428 574 c 0
 474 574 514 561 548 538 c 1
 548 507 548 507 548 444 c 1
 512 473 469 488 420 488 c 0
 363 488 320 472 289 437 c 0
 258 402 243 355 241 297 c 0
 242 256 243 74 244 0 c 1
 213 0 174 0 151 0 c 1xd0
EndSplineSet
EndChar

StartChar: s
Encoding: 115 115 86
Width: 616
Flags: W
HStem: -14 76<180.76 381.665> 496 77<229.833 437.009>
VStem: 108 94<365.19 469.114> 422 93<97.8485 204.175>
LayerCount: 2
Fore
SplineSet
456 33 m 0
 417 1 362 -14 294 -14 c 0
 241 -14 178 -3 106 20 c 1
 106 52 106 53 106 116 c 1
 176 81 238 62 293 62 c 0
 332 62 364 71 387 87 c 0
 410 103 422 125 422 152 c 0
 422 176 413 196 393 210 c 0
 373 224 342 236 299 245 c 0
 286 248 287 248 261 253 c 0
 208 264 169 282 145 306 c 0
 121 330 108 364 108 406 c 0
 108 460 126 501 163 530 c 0
 200 559 252 573 320 573 c 0
 377 573 432 562 486 540 c 1
 486 510 486 510 486 450 c 1
 434 481 379 496 322 496 c 0
 241 496 202 469 202 414 c 0
 202 396 205 381 212 371 c 0
 219 361 232 351 252 344 c 0
 272 337 301 330 339 322 c 0
 351 320 351 320 376 315 c 0
 469 297 515 247 515 164 c 0
 515 109 495 65 456 33 c 0
EndSplineSet
EndChar

StartChar: t
Encoding: 116 116 87
Width: 616
Flags: W
HStem: -2 84<263.809 488> 476 84<244 453>
VStem: 152 92<103.148 476 560 706>
LayerCount: 2
Fore
SplineSet
488 -2 m 1
 451 -2 377 -2 340 -2 c 0
 271 -2 223 12 195 40 c 0
 167 68 152 115 152 182 c 0
 152 231 152 257 152 261 c 0
 152 265 152 413 152 706 c 1
 166 706 179 707 193 707 c 0
 197 707 202 707 207 707 c 0
 218 707 230 707 244 707 c 1
 244 658 244 597 244 560 c 1
 296 560 401 560 453 560 c 1
 453 539 453 497 453 476 c 1
 401 476 296 476 244 476 c 1
 244 403 244 255 244 182 c 0
 244 141 251 114 267 101 c 0
 283 88 310 82 349 82 c 0
 395 82 453 82 488 82 c 1
 488 61 488 19 488 -2 c 1
EndSplineSet
EndChar

StartChar: u
Encoding: 117 117 88
Width: 616
Flags: W
HStem: -15 81<224.779 372.007> 0 21G<447 532> 539 20G<84 176 438.5 532>
VStem: 84 92<118.34 559> 436 96<127.542 559> 447 85<0 61>
LayerCount: 2
Fore
SplineSet
286 -15 m 0xb4
 280 -15 274 -14 268 -14 c 0
 145 -14 84 61 84 212 c 0
 84 328 84 472 84 559 c 1
 107 559 153 559 176 559 c 1
 176 472 176 299 176 212 c 0
 176 114 217 66 299 66 c 1
 345 70 380 86 403 113 c 0
 426 140 436 174 436 215 c 0
 437 330 438 473 439 559 c 1
 462 559 509 559 532 559 c 1xb8
 532 419 532 140 532 0 c 1
 511 0 468 0 447 0 c 1x74
 447 15 447 46 447 61 c 1
 422 10 368 -15 286 -15 c 0xb4
EndSplineSet
EndChar

StartChar: v
Encoding: 118 118 89
Width: 616
Flags: W
HStem: 0 21G<224 393> 540 20G<50 166.5 450.5 566>
LayerCount: 2
Fore
SplineSet
249 0 m 1
 199 140 100 420 50 560 c 1
 74 560 122 560 146 560 c 1
 187 442 267 208 308 90 c 1
 349 208 430 442 471 560 c 1
 495 560 542 560 566 560 c 1
 516 420 418 140 368 0 c 1
 338 0 279 0 249 0 c 1
EndSplineSet
EndChar

StartChar: w
Encoding: 119 119 90
Width: 616
Flags: W
HStem: 0 21G<114.5 230 387 502.5> 540 20G<0 102.5 515.5 616>
VStem: 526 90<468.33 560>
LayerCount: 2
Fore
SplineSet
131 0 m 1
 98 140 33 420 0 560 c 1
 23 560 68 560 91 560 c 1
 114 451 161 232 184 123 c 1
 202 192 238 330 256 399 c 1
 282 399 332 399 358 399 c 1
 378 330 420 192 440 123 c 1
 461 232 505 451 526 560 c 1
 549 560 593 560 616 560 c 1
 583 420 519 140 486 0 c 1
 464 0 420 0 398 0 c 1
 376 77 330 230 308 307 c 1
 286 230 241 77 219 0 c 1
 197 0 153 0 131 0 c 1
EndSplineSet
EndChar

StartChar: x
Encoding: 120 120 91
Width: 616
Flags: W
HStem: 0 21G<38 164.5 451.5 578> 540 20G<58 178.5 437.5 559>
LayerCount: 2
Fore
SplineSet
38 0 m 1
 93 73 203 219 258 292 c 1
 208 359 108 493 58 560 c 1
 84 560 134 560 160 560 c 1
 197 509 271 409 308 358 c 1
 345 409 419 509 456 560 c 1
 482 560 533 560 559 560 c 1
 509 493 408 359 358 292 c 1
 413 219 523 73 578 0 c 1
 551 0 499 0 472 0 c 1
 431 56 349 168 308 224 c 1
 267 168 185 56 144 0 c 1
 117 0 65 0 38 0 c 1
EndSplineSet
EndChar

StartChar: y
Encoding: 121 121 92
Width: 616
Flags: W
HStem: -216 86<176.223 412.012> 15 86<204.829 443> 541 20G<159.5 171 503 534>
VStem: 78 93<132.995 560> 443 92<-96.5319 15 101 560>
LayerCount: 2
Fore
SplineSet
198 -130 m 0
 229 -130 294 -130 362 -130 c 1
 441 -122 444 -46 443 15 c 1
 371 15 334 15 262 15 c 1
 151 29 90 89 78 197 c 1
 78 318 79 469 79 560 c 1
 102 560 148 561 171 561 c 1
 171 500 171 444 171 394 c 0
 171 344 171 289 171 231 c 0
 171 183 179 150 195 130 c 0
 211 110 240 101 283 101 c 0
 338 101 369 101 378 101 c 0
 387 101 409 101 443 101 c 1
 443 176 443 253 443 331 c 0
 443 409 443 486 442 560 c 1
 473 560 472 560 534 561 c 1
 534 500 535 443 535 390 c 0
 535 337 535 281 535 221 c 0
 535 95 536 41 536 -46 c 1
 522 -164 434 -216 383 -216 c 0
 352 -216 266 -216 198 -216 c 0
 147 -216 147 -130 198 -130 c 0
EndSplineSet
EndChar

StartChar: z
Encoding: 122 122 93
Width: 616
Flags: W
HStem: 0 75<198 520> 488 73<114 423>
LayerCount: 2
Fore
SplineSet
102 0 m 1
 102 21 102 64 102 85 c 1
 182 186 343 387 423 488 c 1
 346 488 191 488 114 488 c 1
 114 506 114 543 114 561 c 1
 216 561 418 561 520 561 c 1
 520 540 520 498 520 477 c 1
 440 377 278 175 198 75 c 1
 278 75 440 75 520 75 c 1
 520 56 520 19 520 0 c 1
 415 0 207 0 102 0 c 1
EndSplineSet
EndChar

StartChar: {
Encoding: 123 123 94
Width: 616
Flags: W
HStem: -100 78<389.668 515> 332 82<92 245.271> 767 78<389.668 515>
VStem: 274 93<-5.93481 301.912 443.088 750.935>
LayerCount: 2
Fore
SplineSet
515 -100 m 1
 507 -100 491 -100 483 -100 c 0
 401 -100 345 -88 316 -63 c 0
 288 -39 274 10 274 84 c 0
 274 124 274 124 274 204 c 0
 274 254 265 288 247 308 c 0
 229 324 197 332 150 332 c 0
 131 332 106 332 92 332 c 1
 92 352 92 394 92 414 c 1
 106 414 136 414 150 414 c 0
 197 414 229 421 247 437 c 0
 265 457 274 492 274 541 c 0
 274 581 274 581 274 661 c 0
 274 735 288 784 316 808 c 0
 343 832 399 845 483 845 c 0
 494 845 507 845 515 845 c 1
 515 826 515 786 515 767 c 1
 506 767 489 767 480 767 c 0
 433 767 403 762 389 752 c 0
 375 738 367 707 367 659 c 0
 367 618 367 618 367 535 c 0
 367 483 360 445 345 421 c 0
 330 397 304 381 267 373 c 1
 304 364 330 348 345 324 c 0
 360 300 367 262 367 210 c 0
 367 169 367 169 367 86 c 0
 367 38 375 7 389 -7 c 0
 403 -17 433 -22 480 -22 c 0
 492 -22 506 -22 515 -22 c 1
 515 -42 515 -80 515 -100 c 1
EndSplineSet
EndChar

StartChar: |
Encoding: 124 124 95
Width: 616
Flags: W
VStem: 262 86<-80 826>
LayerCount: 2
Fore
SplineSet
262 -80 m 1
 262 147 262 599 262 826 c 1
 284 826 326 826 348 826 c 1
 348 599 348 147 348 -80 c 1
 326 -80 284 -80 262 -80 c 1
EndSplineSet
EndChar

StartChar: }
Encoding: 125 125 96
Width: 616
Flags: W
HStem: -100 78<102 227.286> 333 81<386.484 528> 767 78<102 227.286>
VStem: 250 92<-5.04846 289.805 456.786 751.331>
LayerCount: 2
Fore
SplineSet
102 -100 m 1
 102 -80 102 -42 102 -22 c 1
 110 -22 128 -22 136 -22 c 0
 183 -22 213 -16 228 -6 c 0
 242 8 250 40 250 87 c 0
 250 128 250 128 250 211 c 0
 250 263 257 300 272 324 c 0
 287 348 313 364 350 373 c 1
 313 382 288 398 273 421 c 0
 266 432 260 447 256 465 c 0
 252 483 250 507 250 535 c 0
 250 576 250 576 250 659 c 0
 250 706 242 738 228 752 c 0
 213 762 183 767 136 767 c 0
 125 767 110 767 102 767 c 1
 102 786 102 826 102 845 c 1
 110 845 125 845 133 845 c 0
 217 845 273 833 300 809 c 0
 328 785 342 735 342 661 c 0
 342 621 342 621 342 541 c 0
 342 515 345 493 352 477 c 0
 359 461 370 448 384 438 c 0
 397 428 414 422 433 419 c 0
 452 416 473 414 496 414 c 0
 507 414 520 414 528 414 c 1
 528 394 528 353 528 333 c 1
 520 333 504 333 496 333 c 0
 447 333 410 325 384 309 c 0
 370 299 359 285 352 268 c 0
 345 251 342 230 342 204 c 0
 342 164 342 165 342 85 c 0
 342 11 328 -38 300 -63 c 0
 271 -88 215 -100 133 -100 c 0
 123 -100 110 -100 102 -100 c 1
EndSplineSet
EndChar

StartChar: ~
Encoding: 126 126 97
Width: 616
Flags: W
HStem: 256 78<375.165 466.268> 423 78<147.23 239.915>
VStem: 495 78<365.641 446>
LayerCount: 2
Fore
SplineSet
495 464 m 1
 521 458 521 458 573 446 c 1
 573 430 571 411 566 391 c 0
 561 371 551 350 539 328 c 0
 515 280 476 256 421 256 c 0
 395 256 371 262 352 273 c 0
 335 284 314 306 289 340 c 0
 263 377 244 399 232 408 c 0
 218 418 205 423 193 423 c 0
 167 423 150 411 139 387 c 0
 128 349 121 318 118 294 c 1
 92 300 92 300 40 313 c 1
 48 363 60 401 74 429 c 0
 102 477 141 501 191 501 c 0
 215 501 237 495 257 483 c 0
 267 477 277 469 289 458 c 0
 301 447 311 433 322 418 c 0
 340 393 358 373 375 356 c 0
 389 341 404 334 419 334 c 0
 446 334 464 346 475 370 c 0
 486 394 492 425 495 464 c 1
EndSplineSet
EndChar

StartChar: "+AKEA"
Encoding: 161 161 99
Width: 616
Flags: W
HStem: 577 172<257.142 368.858>
VStem: 232 162<601.708 724.292> 246 132<-30 358.893>
LayerCount: 2
Fore
SplineSet
255 725 m 0xc0
 270 741 290 749 313 749 c 0
 336 749 356 741 371 725 c 0
 386 710 394 689 394 663 c 0
 394 637 386 616 371 601 c 0
 355 585 336 577 313 577 c 0
 290 577 271 585 255 601 c 0
 240 616 232 637 232 663 c 0
 232 689 240 710 255 725 c 0xc0
284 476 m 1
 299 476 330 476 345 476 c 1
 353 405 370 263 378 192 c 1
 378 136 378 26 378 -30 c 1
 345 -30 279 -30 246 -30 c 1
 246 26 246 136 246 192 c 1xa0
 256 263 274 405 284 476 c 1
EndSplineSet
EndChar

StartChar: "+AKIA"
Encoding: 162 162 100
Width: 616
Flags: W
HStem: -14 75<289.766 349 400 484.678> 495 77<285.948 349 400 489.889>
VStem: 105 98<160.615 397.999> 349 51<-156 -11.9621 63 495 569.755 716>
LayerCount: 2
Fore
SplineSet
349 -156 m 1
 349 -120 349 -50 349 -14 c 1
 312 -10 278 0 249 14 c 0
 220 28 194 49 172 76 c 0
 151 102 135 132 123 167 c 0
 111 202 105 239 105 279 c 0
 105 320 111 358 123 393 c 0
 135 428 151 458 172 483 c 0
 192 508 217 529 246 544 c 0
 275 559 310 568 349 572 c 1
 349 620 349 680 349 716 c 1
 362 716 387 716 400 716 c 1
 400 680 400 608 400 572 c 1
 420 570 442 568 462 563 c 0
 482 558 505 549 530 538 c 1
 530 509 530 509 530 452 c 1
 509 465 487 475 464 483 c 0
 452 487 441 490 431 492 c 0
 421 494 410 495 400 496 c 1
 400 351 400 351 400 61 c 1
 411 62 421 64 432 66 c 0
 443 68 454 71 465 75 c 0
 475 79 486 84 497 89 c 0
 508 94 519 99 530 106 c 1
 530 77 530 77 530 20 c 1
 515 13 502 9 492 6 c 0
 482 3 471 -1 461 -4 c 0
 439 -10 418 -13 400 -14 c 1
 400 -62 400 -120 400 -156 c 1
 387 -156 362 -156 349 -156 c 1
349 63 m 1
 349 207 349 207 349 495 c 1
 305 491 269 469 243 430 c 0
 216 390 203 340 203 279 c 0
 203 218 216 169 243 129 c 0
 270 90 305 67 349 63 c 1
EndSplineSet
EndChar

StartChar: "+AKMA"
Encoding: 163 163 101
Width: 616
Flags: W
HStem: 0 85<70 188 288 556> 318 71<88 188 288 473> 683 77<342.219 510.002>
VStem: 188 100<85 317 389 621.53>
LayerCount: 2
Fore
SplineSet
70 0 m 1
 70 21 70 64 70 85 c 1
 100 85 158 85 188 85 c 1
 188 143 188 259 188 317 c 1
 163 317 113 317 88 317 c 1
 88 335 88 371 88 389 c 1
 113 389 163 389 188 389 c 1
 188 419 188 478 188 508 c 0
 188 593 206 655 243 697 c 0
 279 739 333 760 405 760 c 0
 430 760 454 758 476 753 c 0
 484 751 494 749 507 745 c 0
 520 741 533 736 546 731 c 1
 546 700 546 700 546 639 c 1
 535 647 524 653 513 659 c 0
 502 665 493 669 484 672 c 0
 463 679 441 683 418 683 c 0
 373 683 341 668 320 638 c 0
 299 609 288 563 288 498 c 0
 288 462 288 416 288 389 c 1
 334 389 427 389 473 389 c 1
 473 371 473 336 473 318 c 1
 427 318 334 318 288 318 c 1
 288 260 288 143 288 85 c 1
 355 85 489 85 556 85 c 1
 556 64 556 21 556 0 c 1
 434 0 192 0 70 0 c 1
EndSplineSet
EndChar

StartChar: "+AKQA"
Encoding: 164 164 102
Width: 616
Flags: W
HStem: 150 63<260.07 393.038> 428 64<259.683 395.243>
VStem: 156 63<254.331 387.227> 434 63<253.919 389.289>
LayerCount: 2
Fore
SplineSet
148 98 m 1
 136 109 115 131 103 142 c 1
 124 163 165 205 186 226 c 1
 175 244 166 259 162 274 c 0
 158 289 156 305 156 321 c 0
 156 338 159 354 164 369 c 0
 170 385 177 400 187 414 c 1
 159 442 124 477 103 498 c 1
 115 510 138 533 150 545 c 1
 171 524 212 482 233 461 c 1
 248 471 264 479 279 484 c 0
 294 489 310 492 326 492 c 0
 356 492 388 482 422 462 c 1
 450 490 484 524 505 545 c 1
 516 533 539 510 550 498 c 1
 529 477 488 437 467 416 c 1
 478 398 486 381 490 368 c 0
 495 353 497 337 497 320 c 0
 497 304 494 288 489 273 c 0
 484 256 476 242 466 228 c 1
 494 200 529 165 550 144 c 1
 538 132 515 110 503 98 c 1
 482 119 441 160 420 181 c 1
 405 171 390 163 375 158 c 0
 359 153 343 150 326 150 c 0
 294 150 262 160 230 179 c 1
 203 152 168 118 148 98 c 1
250 244 m 0
 271 223 296 213 326 213 c 0
 356 213 382 223 403 244 c 0
 424 265 434 292 434 322 c 0
 434 352 424 378 404 398 c 0
 384 418 357 428 326 428 c 0
 296 428 271 418 251 398 c 0
 230 378 219 352 219 321 c 0
 219 292 229 266 250 244 c 0
EndSplineSet
EndChar

StartChar: "+AKUA"
Encoding: 165 165 103
Width: 616
Flags: W
HStem: 0 21G<257 358> 262 56<58 257 358 559> 410 56<58 179 433 559> 726 20G<18 149 467.5 598>
VStem: 257 101<0 262 318 372.5>
LayerCount: 2
Fore
SplineSet
257 0 m 1
 257 66 257 196 257 262 c 1
 207 262 108 262 58 262 c 1
 58 276 58 304 58 318 c 1
 108 318 207 318 257 318 c 1
 257 322 257 331 257 335 c 0
 246 354 223 391 212 410 c 1
 173 410 97 410 58 410 c 1
 58 424 58 452 58 466 c 1
 88 466 149 466 179 466 c 1
 139 536 58 676 18 746 c 1
 45 746 99 746 126 746 c 1
 172 664 262 499 308 417 c 1
 353 499 445 664 490 746 c 1
 517 746 571 746 598 746 c 1
 557 676 474 536 433 466 c 1
 465 466 527 466 559 466 c 1
 559 452 559 424 559 410 c 1
 520 410 441 410 402 410 c 1
 391 391 369 354 358 335 c 0
 358 331 358 322 358 318 c 1
 408 318 509 318 559 318 c 1
 559 304 559 276 559 262 c 1
 509 262 408 262 358 262 c 1
 358 196 358 66 358 0 c 1
 333 0 282 0 257 0 c 1
EndSplineSet
EndChar

StartChar: "+AKYA"
Encoding: 166 166 104
Width: 616
Flags: W
VStem: 266 86<-72 307 440 819>
LayerCount: 2
Fore
SplineSet
266 440 m 1
 266 535 266 724 266 819 c 1
 288 819 330 819 352 819 c 1
 352 724 352 535 352 440 c 1
 330 440 288 440 266 440 c 1
266 -72 m 1
 266 23 266 212 266 307 c 1
 288 307 330 307 352 307 c 1
 352 212 352 23 352 -72 c 1
 330 -72 288 -72 266 -72 c 1
EndSplineSet
EndChar

StartChar: "+AKcA"
Encoding: 167 167 105
Width: 616
Flags: W
HStem: -98 72<180.257 365.055> 688 72<249.291 428.477>
VStem: 100 81<319.532 432.333> 132 93<566.736 663.796> 393 93<0.0790577 102.337> 436 82<240.882 353.356>
LayerCount: 2
Fore
SplineSet
434 -56 m 0xc8
 400 -84 355 -98 298 -98 c 0
 285 -98 271 -97 258 -96 c 0
 245 -95 233 -92 222 -90 c 0
 210 -88 197 -85 183 -81 c 0
 169 -77 154 -74 139 -69 c 1
 139 -42 139 -42 139 13 c 1
 197 -13 246 -26 286 -26 c 0
 320 -26 346 -19 365 -5 c 0
 384 9 393 28 393 51 c 0
 393 71 384 90 366 107 c 0
 348 124 320 145 282 167 c 0
 278 169 278 169 270 174 c 0
 237 193 209 210 186 225 c 0
 163 240 146 256 132 272 c 0xd8
 111 297 100 328 100 362 c 0xe0
 100 391 107 418 123 443 c 0
 139 467 162 487 192 503 c 1
 172 518 156 534 147 553 c 0
 137 572 132 593 132 615 c 0
 132 660 149 695 182 721 c 0
 199 735 220 745 243 751 c 0
 266 757 290 760 315 760 c 0
 328 760 340 759 354 758 c 0
 368 757 379 755 390 753 c 0
 414 748 440 741 468 731 c 1
 468 704 468 704 468 649 c 1
 413 675 366 688 326 688 c 0
 309 688 294 687 282 683 c 0
 270 679 260 674 252 668 c 0
 243 661 235 654 231 644 c 0
 227 634 225 625 225 616 c 0
 225 600 232 583 248 566 c 0
 264 549 290 531 326 510 c 0
 333 506 333 506 347 498 c 0
 387 476 417 458 438 442 c 0
 459 426 474 412 485 400 c 0
 507 374 518 345 518 311 c 0xd4
 518 282 511 256 496 232 c 0
 480 208 457 187 426 170 c 1
 446 153 461 135 471 117 c 0
 476 108 480 99 482 89 c 0
 484 79 486 69 486 56 c 0
 486 10 468 -28 434 -56 c 0xc8
272 264 m 0
 296 249 330 229 375 205 c 1
 396 221 411 236 421 250 c 0
 431 265 436 280 436 296 c 0
 436 310 432 323 426 335 c 0
 420 347 411 358 400 368 c 0
 376 391 323 424 242 468 c 1
 221 452 206 437 196 423 c 0
 191 416 188 408 185 401 c 0
 182 394 181 385 181 376 c 0xe4
 181 351 193 327 217 305 c 0
 230 293 248 279 272 264 c 0
EndSplineSet
EndChar

StartChar: "+AKgA"
Encoding: 168 168 106
Width: 616
Flags: W
HStem: 675 101<160 261 356 456>
VStem: 160 101<675 776> 356 100<675 776>
LayerCount: 2
Fore
SplineSet
174 776 m 0
 198 776 198 776 246 776 c 0
 256 776 261 771 261 761 c 0
 261 737 261 737 261 690 c 0
 261 680 256 675 246 675 c 0
 222 675 222 675 174 675 c 0
 164 675 160 680 160 690 c 0
 160 714 160 714 160 761 c 0
 160 771 164 776 174 776 c 0
370 776 m 0
 394 776 395 776 442 776 c 0
 452 776 456 771 456 761 c 0
 456 737 456 737 456 690 c 0
 456 680 452 675 442 675 c 0
 418 675 417 675 370 675 c 0
 360 675 356 680 356 690 c 0
 356 714 356 714 356 761 c 0
 356 771 360 776 370 776 c 0
EndSplineSet
EndChar

StartChar: "+AKkA"
Encoding: 169 169 107
Width: 616
Flags: W
HStem: 63 51<203.478 412.784> 185 49<242.13 426.6> 509 49<243.091 421.319> 628 51<203.245 413.882>
VStem: -0 51<265.54 477.036> 125 67<285.232 457.436> 565 51<265.447 476.553>
LayerCount: 2
Fore
SplineSet
426 86 m 0
 390 71 351 63 308 63 c 0
 224 63 151 93 90 154 c 0
 61 183 39 216 23 254 c 0
 8 290 0 329 -0 371 c 0
 0 414 8 453 23 489 c 0
 39 526 62 559 91 589 c 0
 120 619 152 642 190 657 c 0
 226 672 266 679 308 679 c 0
 350 679 389 672 426 657 c 0
 445 649 462 640 479 628 c 0
 496 616 511 603 525 589 c 0
 541 572 556 555 567 538 c 0
 578 521 587 504 594 488 c 0
 609 452 616 414 616 371 c 0
 616 328 609 289 594 254 c 0
 587 237 578 219 566 202 c 0
 554 185 541 169 526 154 c 0
 512 140 497 127 480 115 c 0
 463 103 445 94 426 86 c 0
210 133 m 0
 240 120 273 114 308 114 c 0
 342 114 375 120 406 133 c 0
 437 147 465 165 489 189 c 0
 500 200 512 213 522 228 c 0
 532 243 540 258 546 273 c 0
 558 302 565 335 565 371 c 0
 565 406 559 439 546 470 c 0
 533 500 514 528 489 553 c 0
 464 578 437 597 407 609 c 0
 377 621 344 628 308 628 c 0
 272 628 239 621 210 609 c 0
 179 596 152 578 127 553 c 0
 102 528 82 500 70 470 c 0
 57 439 51 406 51 371 c 0
 51 336 57 303 70 273 c 0
 78 254 87 238 97 224 c 0
 107 210 117 200 127 190 c 0
 152 165 179 146 210 133 c 0
432 207 m 1
 397 192 359 185 319 185 c 0
 258 185 210 202 176 235 c 0
 142 268 125 314 125 371 c 0
 125 429 142 474 177 508 c 0
 212 541 259 558 319 558 c 0
 338 558 357 557 377 553 c 0
 394 550 413 544 432 536 c 1
 432 518 432 518 432 482 c 1
 413 491 394 498 376 503 c 0
 367 505 357 507 347 508 c 0
 337 509 328 509 320 509 c 0
 301 509 284 506 268 500 c 0
 252 494 238 486 226 473 c 0
 203 448 192 414 192 370 c 0
 192 327 204 293 227 269 c 0
 250 245 284 234 328 234 c 0
 366 234 401 242 432 259 c 1
 432 242 432 242 432 207 c 1
EndSplineSet
EndChar

StartChar: "+AKoA"
Encoding: 170 170 108
Width: 616
Flags: W
HStem: 235 61<147 481> 349 60<226.701 357.727> 552 58<232.148 406> 702 58<191.128 375.539>
VStem: 135 73<428.318 528.454> 406 71<358 413.334 459.238 552 610 672.486>
LayerCount: 2
Fore
SplineSet
348 366 m 0
 327 355 303 349 274 349 c 0
 232 349 199 360 173 383 c 0
 148 406 135 436 135 474 c 0
 135 517 151 550 182 574 c 0
 213 597 257 610 314 610 c 0
 344 610 383 610 406 610 c 1
 406 612 l 0
 406 642 396 665 376 680 c 0
 364 689 351 695 336 698 c 0
 321 701 306 702 291 702 c 0
 271 702 251 700 231 694 c 0
 210 688 188 679 166 668 c 1
 166 689 166 690 166 732 c 1
 189 742 211 749 234 753 c 0
 245 755 257 757 267 758 c 0
 277 759 289 760 302 760 c 0
 361 760 405 746 434 717 c 0
 463 689 477 644 477 582 c 0
 477 507 477 414 477 358 c 1
 461 358 428 358 412 358 c 1
 410 372 408 400 406 414 c 1
 389 392 369 377 348 366 c 0
230 428 m 0
 245 415 264 409 288 409 c 0
 323 409 351 421 373 445 c 0
 395 469 406 500 406 538 c 0
 406 543 406 548 406 552 c 1
 390 552 358 552 342 552 c 0
 294 552 259 546 239 535 c 0
 218 523 208 505 208 479 c 0
 208 467 210 457 214 449 c 0
 218 441 223 434 230 428 c 0
147 235 m 1
 147 250 147 281 147 296 c 1
 231 296 397 296 481 296 c 1
 481 281 481 250 481 235 c 1
 397 235 231 235 147 235 c 1
EndSplineSet
EndChar

StartChar: "+AKsA"
Encoding: 171 171 109
Width: 616
Flags: W
LayerCount: 2
Fore
SplineSet
274 70 m 1
 215 122 99 228 40 280 c 1
 40 290 40 310 40 320 c 1
 99 372 215 478 274 530 c 1
 274 506 274 458 274 434 c 1
 236 400 162 334 124 300 c 1
 162 266 236 200 274 166 c 1
 274 142 274 94 274 70 c 1
501 70 m 1
 442 122 325 228 266 280 c 1
 266 290 266 310 266 320 c 1
 325 372 442 478 501 530 c 1
 501 506 501 458 501 434 c 1
 463 400 388 334 350 300 c 1
 388 266 463 200 501 166 c 1
 501 142 501 94 501 70 c 1
EndSplineSet
EndChar

StartChar: "+AKwA"
Encoding: 172 172 110
Width: 616
Flags: W
HStem: 345 86<44 488>
VStem: 488 84<186 345>
LayerCount: 2
Fore
SplineSet
488 186 m 1
 488 226 488 305 488 345 c 1
 377 345 155 345 44 345 c 1
 44 367 44 409 44 431 c 1
 176 431 440 431 572 431 c 1
 572 370 572 247 572 186 c 1
 551 186 509 186 488 186 c 1
EndSplineSet
EndChar

StartChar: "+AK0A"
Encoding: 173 173 111
Width: 616
Flags: W
HStem: 240 82<178 438>
VStem: 178 260<240 322>
LayerCount: 2
Fore
SplineSet
178 240 m 1
 178 260 178 302 178 322 c 1
 243 322 373 322 438 322 c 1
 438 302 438 260 438 240 c 1
 373 240 243 240 178 240 c 1
EndSplineSet
EndChar

StartChar: "+AK4A"
Encoding: 174 174 112
Width: 616
Flags: W
HStem: 63 51<203.478 412.784> 351 41<246 311.53> 508 42<246 360.385> 628 51<203.245 413.882>
VStem: -0 51<265.54 477.036> 181 65<203 351 392 508> 379 67<404.75 496.218> 565 51<265.447 476.553>
LayerCount: 2
Fore
SplineSet
426 86 m 0
 390 71 351 63 308 63 c 0
 224 63 151 93 90 154 c 0
 61 183 39 216 23 254 c 0
 8 290 0 329 -0 371 c 0
 0 414 8 453 23 489 c 0
 39 526 62 559 91 589 c 0
 120 619 152 642 190 657 c 0
 226 672 266 679 308 679 c 0
 350 679 389 672 426 657 c 0
 445 649 462 640 479 628 c 0
 496 616 511 603 525 589 c 0
 541 572 556 555 567 538 c 0
 578 521 587 504 594 488 c 0
 609 452 616 414 616 371 c 0
 616 328 609 289 594 254 c 0
 587 237 578 219 566 202 c 0
 554 185 541 169 526 154 c 0
 512 140 497 127 480 115 c 0
 463 103 445 94 426 86 c 0
210 133 m 0
 240 120 273 114 308 114 c 0
 342 114 375 120 406 133 c 0
 437 147 465 165 489 189 c 0
 500 200 512 213 522 228 c 0
 532 243 540 258 546 273 c 0
 558 302 565 335 565 371 c 0
 565 406 559 439 546 470 c 0
 533 500 514 528 489 553 c 0
 464 578 437 597 407 609 c 0
 377 621 344 628 308 628 c 0
 272 628 239 621 210 609 c 0
 179 596 152 578 127 553 c 0
 102 528 82 500 70 470 c 0
 57 439 51 406 51 371 c 0
 51 336 57 303 70 273 c 0
 78 254 87 238 97 224 c 0
 107 210 117 200 127 190 c 0
 152 165 179 146 210 133 c 0
181 203 m 1
 181 290 181 463 181 550 c 1
 211 550 270 550 300 550 c 0
 350 550 387 542 410 526 c 0
 434 510 446 485 446 452 c 0
 446 428 439 408 424 392 c 0
 409 376 389 367 362 362 c 1
 368 361 376 354 386 343 c 0
 390 338 395 330 402 321 c 0
 409 312 414 303 419 296 c 0
 438 265 462 226 476 203 c 1
 458 203 423 203 405 203 c 1
 392 225 364 268 351 290 c 0
 334 317 322 334 312 341 c 0
 302 348 290 351 274 351 c 0
 265 351 253 351 246 351 c 1
 246 314 246 240 246 203 c 1
 230 203 197 203 181 203 c 1
246 392 m 1
 259 392 284 392 297 392 c 0
 327 392 349 397 361 406 c 0
 373 415 379 429 379 450 c 0
 379 460 378 468 375 476 c 0
 372 484 368 490 361 495 c 0
 348 504 327 508 297 508 c 0
 280 508 259 508 246 508 c 1
 246 479 246 421 246 392 c 1
EndSplineSet
EndChar

StartChar: "+AK8A"
Encoding: 175 175 113
Width: 616
Flags: W
HStem: 689 74<158 458>
VStem: 158 300<689 763>
LayerCount: 2
Fore
SplineSet
458 763 m 1
 458 745 458 707 458 689 c 1
 383 689 233 689 158 689 c 1
 158 707 158 745 158 763 c 1
 233 763 383 763 458 763 c 1
EndSplineSet
EndChar

StartChar: "+ALAA"
Encoding: 176 176 114
Width: 616
Flags: W
HStem: 442 64<244.21 370.906> 695 65<246.648 370.906>
VStem: 149 64<537.042 661.436> 404 63<539.687 661.81>
LayerCount: 2
Fore
SplineSet
370 455 m 0
 350 447 329 442 306 442 c 0
 285 442 264 446 245 454 c 0
 226 462 209 472 194 487 c 0
 181 500 170 517 162 536 c 0
 154 555 149 576 149 599 c 0
 149 644 165 682 195 713 c 0
 225 744 262 760 307 760 c 0
 317 760 328 759 339 757 c 0
 350 755 360 752 370 748 c 0
 380 744 389 738 398 732 c 0
 407 726 414 719 421 712 c 0
 429 704 436 695 442 686 c 0
 448 677 452 668 455 661 c 0
 463 642 467 622 467 601 c 0
 467 555 452 518 421 488 c 0
 407 474 390 463 370 455 c 0
240 532 m 0
 258 514 281 506 307 506 c 0
 321 506 334 508 346 513 c 0
 358 518 368 525 376 533 c 0
 386 543 393 553 397 565 c 0
 401 577 404 588 404 600 c 0
 404 626 395 649 376 668 c 0
 368 676 358 682 346 687 c 0
 334 692 322 695 308 695 c 0
 281 695 259 686 241 668 c 0
 222 649 213 626 213 599 c 0
 213 573 222 550 240 532 c 0
EndSplineSet
EndChar

StartChar: "+ALEA"
Encoding: 177 177 115
Width: 616
Flags: W
HStem: 0 85<44 572> 336 85<44 266 350 572>
VStem: 266 84<170 336 421 586>
LayerCount: 2
Fore
SplineSet
266 170 m 1
 266 212 266 294 266 336 c 1
 210 336 100 336 44 336 c 1
 44 357 44 400 44 421 c 1
 100 421 210 421 266 421 c 1
 266 462 266 545 266 586 c 1
 287 586 329 586 350 586 c 1
 350 545 350 462 350 421 c 1
 406 421 516 421 572 421 c 1
 572 400 572 357 572 336 c 1
 516 336 406 336 350 336 c 1
 350 294 350 212 350 170 c 1
 329 170 287 170 266 170 c 1
44 0 m 1
 44 21 44 64 44 85 c 1
 176 85 440 85 572 85 c 1
 572 64 572 21 572 0 c 1
 440 0 176 0 44 0 c 1
EndSplineSet
EndChar

StartChar: "+ALIA"
Encoding: 178 178 116
Width: 616
Flags: W
HStem: 560 57<242 446> 932 54<190.041 344.012>
VStem: 368 76<803.411 910.505>
LayerCount: 2
Fore
SplineSet
161 560 m 1
 161 574 161 601 161 615 c 1
 190 643 247 700 276 728 c 0
 297 748 313 764 323 775 c 0
 333 786 342 797 348 807 c 0
 361 827 368 847 368 864 c 0
 368 884 360 900 343 913 c 0
 326 926 305 932 278 932 c 0
 261 932 243 929 224 923 c 0
 205 917 185 908 164 896 c 1
 164 917 164 916 164 958 c 1
 187 967 208 974 227 979 c 0
 248 984 268 986 288 986 c 0
 335 986 372 975 400 953 c 0
 415 942 426 929 433 914 c 0
 440 899 444 884 444 867 c 0
 444 855 441 845 438 836 c 0
 435 827 431 817 425 808 c 0
 410 785 384 756 347 720 c 0
 312 686 268 643 242 617 c 1
 293 617 395 617 446 617 c 1
 446 603 446 574 446 560 c 1
 375 560 232 560 161 560 c 1
EndSplineSet
EndChar

StartChar: "+ALMA"
Encoding: 179 179 117
Width: 616
Flags: W
HStem: 555 54<174.49 358.94> 575 61<163 237.104> 758 54<243 350.199> 934 54<181.017 355.498>
VStem: 376 76<830.137 916.89> 386 76<635.558 735.378>
LayerCount: 2
Fore
SplineSet
414 588 m 0xb4
 382 566 338 555 281 555 c 0xb4
 269 555 258 555 249 556 c 0
 240 557 231 558 221 560 c 0
 210 562 200 565 191 567 c 0
 182 569 173 572 163 575 c 1
 163 595 163 596 163 636 c 1x74
 175 631 186 627 196 624 c 0
 206 621 216 618 226 616 c 0
 243 612 260 609 278 609 c 0
 310 609 337 616 357 630 c 0
 366 636 373 643 378 652 c 0
 383 661 386 673 386 686 c 0xb4
 386 709 376 727 358 740 c 0
 339 753 312 758 276 758 c 0
 265 758 251 758 243 758 c 1
 243 772 243 798 243 812 c 1
 252 812 271 812 280 812 c 0
 311 812 334 817 351 828 c 0
 367 838 376 854 376 874 c 0
 376 893 368 907 352 918 c 0
 336 928 314 934 286 934 c 0
 270 934 252 932 234 928 c 0
 225 926 216 923 206 920 c 0
 196 917 187 914 177 910 c 1
 177 930 177 930 177 970 c 1
 189 973 199 976 210 978 c 0
 221 980 231 982 241 984 c 0
 260 987 279 988 296 988 c 0
 343 988 381 979 410 959 c 0
 438 939 452 913 452 880 c 0xb8
 452 856 445 837 430 821 c 0
 415 805 394 794 366 788 c 1
 398 781 422 768 438 750 c 0
 454 733 462 710 462 682 c 0
 462 642 446 611 414 588 c 0xb4
EndSplineSet
EndChar

StartChar: "+ALQA"
Encoding: 180 180 118
Width: 616
Flags: W
HStem: 631 188
VStem: 238 239
LayerCount: 2
Fore
SplineSet
477 819 m 1
 436 772 355 678 314 631 c 1
 295 631 257 631 238 631 c 1
 273 678 343 772 378 819 c 1
 403 819 452 819 477 819 c 1
EndSplineSet
EndChar

StartChar: "+ALUA"
Encoding: 181 181 119
Width: 616
Flags: W
HStem: -214 21G<82 166> -14 80<221.353 366.06 495.5 575.485> 540 20G<83 175 418 511>
VStem: 82 84<-214 64> 83 92<115.242 560> 418 93<123.673 560>
LayerCount: 2
Fore
SplineSet
82 -214 m 1xf4
 82 -20 83 366 83 560 c 1
 106 560 152 560 175 560 c 1
 175 473 175 299 175 212 c 0xec
 175 186 178 164 183 147 c 0
 188 130 196 116 205 104 c 0
 225 79 253 66 291 66 c 0
 333 66 365 80 386 108 c 0
 407 136 418 178 418 233 c 0
 418 342 418 478 418 560 c 1
 441 560 488 560 511 560 c 1
 511 452 511 236 511 128 c 0
 511 108 514 93 519 84 c 0
 524 75 532 70 542 70 c 0
 545 70 549 71 555 73 c 0
 560 74 567 77 576 82 c 1
 576 57 576 57 576 8 c 1
 563 1 551 -5 540 -9 c 0
 527 -13 516 -15 506 -15 c 0
 485 -15 469 -8 457 5 c 0
 444 19 436 38 432 64 c 1
 417 37 398 18 376 5 c 0
 354 -8 327 -14 297 -14 c 0
 238 -14 195 12 166 64 c 1
 166 -28 166 -145 166 -214 c 1
 145 -214 103 -214 82 -214 c 1xf4
EndSplineSet
EndChar

StartChar: "+ALYA"
Encoding: 182 182 120
Width: 616
Flags: W
HStem: 685 61<349 444>
VStem: 53 296<435.681 632.542> 278 71<-98 326.084> 444 71<-98 685>
LayerCount: 2
Fore
SplineSet
278 -98 m 1xb0
 278 8 278 218 278 324 c 1xb0
 206 330 151 351 112 388 c 0
 93 406 78 427 68 451 c 0
 58 475 53 503 53 535 c 0xd0
 53 599 74 649 118 688 c 0
 162 727 220 746 291 746 c 0
 366 746 459 746 515 746 c 1
 515 535 515 113 515 -98 c 1
 497 -98 462 -98 444 -98 c 1
 444 98 444 489 444 685 c 1
 420 685 373 685 349 685 c 1
 349 489 349 98 349 -98 c 1
 331 -98 296 -98 278 -98 c 1xb0
EndSplineSet
EndChar

StartChar: "+ALcA"
Encoding: 183 183 121
Width: 616
Flags: W
HStem: 288 169<251.509 364.491>
VStem: 227 162<312.752 433.246>
LayerCount: 2
Fore
SplineSet
366 312 m 0
 350 296 331 288 308 288 c 0
 285 288 266 296 250 312 c 0
 234 328 227 347 227 372 c 0
 227 397 234 418 250 434 c 0
 266 450 285 457 308 457 c 0
 331 457 350 450 366 434 c 0
 382 418 389 397 389 372 c 0
 389 347 382 328 366 312 c 0
EndSplineSet
EndChar

StartChar: "+ALgA"
Encoding: 184 184 122
Width: 616
Flags: W
HStem: -198 62<198.868 329.108> -20 20G<291 359>
VStem: 335 70<-128.596 -42.3769>
LayerCount: 2
Fore
SplineSet
291 0 m 1
 311 0 311 0 350 -0 c 1
 368 -20 382 -40 392 -58 c 0
 396 -66 399 -74 401 -82 c 0
 403 -90 405 -100 405 -110 c 0
 405 -138 395 -160 375 -175 c 0
 365 -182 353 -188 338 -192 c 0
 323 -196 306 -198 285 -198 c 0
 270 -198 256 -196 242 -194 c 0
 227 -192 212 -190 198 -186 c 1
 198 -164 198 -164 198 -120 c 1
 221 -131 246 -136 273 -136 c 0
 314 -136 335 -121 335 -90 c 0
 335 -79 331 -66 324 -52 c 0
 317 -38 306 -21 291 0 c 1
EndSplineSet
EndChar

StartChar: "+ALkA"
Encoding: 185 185 123
Width: 616
Flags: W
HStem: 560 55<181 284 356 458> 900 58<172 212.141>
VStem: 284 72<615 920>
LayerCount: 2
Fore
SplineSet
181 560 m 1
 181 574 181 601 181 615 c 1
 207 615 258 615 284 615 c 1
 284 691 284 844 284 920 c 1
 256 915 200 905 172 900 c 1
 172 914 172 944 172 958 c 1
 201 963 257 973 286 978 c 0
 303 978 339 978 356 978 c 1
 356 887 356 706 356 615 c 1
 382 615 432 615 458 615 c 1
 458 601 458 574 458 560 c 1
 389 560 250 560 181 560 c 1
EndSplineSet
EndChar

StartChar: "+ALoA"
Encoding: 186 186 124
Width: 616
Flags: W
HStem: 235 61<138 476> 349 59<243.903 372.066> 702 58<244.873 372.141>
VStem: 122 78<456.434 652.242> 417 77<457.946 653.93>
LayerCount: 2
Fore
SplineSet
387 364 m 0
 365 354 338 349 308 349 c 0
 277 349 250 354 228 364 c 0
 206 374 188 388 173 404 c 0
 157 421 145 442 136 467 c 0
 127 492 122 521 122 554 c 0
 122 616 139 666 173 704 c 0
 189 721 208 735 230 745 c 0
 252 755 278 760 308 760 c 0
 338 760 365 755 387 745 c 0
 409 735 428 721 444 703 c 0
 477 666 494 616 494 554 c 0
 494 492 477 442 444 405 c 0
 428 388 409 374 387 364 c 0
229 446 m 0
 248 421 274 408 308 408 c 0
 342 408 369 421 388 447 c 0
 397 459 404 474 409 492 c 0
 414 510 417 531 417 555 c 0
 417 601 408 637 389 663 c 0
 380 675 368 684 355 691 c 0
 342 698 327 702 309 702 c 0
 275 702 248 689 229 663 c 0
 210 637 200 600 200 554 c 0
 200 507 210 472 229 446 c 0
138 235 m 1
 138 250 138 281 138 296 c 1
 222 296 392 296 476 296 c 1
 476 281 476 250 476 235 c 1
 392 235 222 235 138 235 c 1
EndSplineSet
EndChar

StartChar: "+ALsA"
Encoding: 187 187 125
Width: 616
Flags: W
LayerCount: 2
Fore
SplineSet
116 70 m 1
 116 94 116 142 116 166 c 1
 154 200 228 266 266 300 c 1
 228 334 154 400 116 434 c 1
 116 458 116 506 116 530 c 1
 175 478 291 372 350 320 c 1
 350 310 350 290 350 280 c 1
 291 228 175 122 116 70 c 1
342 70 m 1
 342 94 342 142 342 166 c 1
 380 200 455 266 493 300 c 1
 455 334 380 400 342 434 c 1
 342 458 342 506 342 530 c 1
 401 478 518 372 577 320 c 1
 577 310 577 290 577 280 c 1
 518 228 401 122 342 70 c 1
EndSplineSet
EndChar

StartChar: "+ALwA"
Encoding: 188 188 126
Width: 616
Flags: W
HStem: -42 56<282 420 488 546> 412 55<52 154 226 328> 752 58<43 152.668>
VStem: 154 72<467 772> 420 68<-135 -42 14 220>
LayerCount: 2
Fore
SplineSet
52 412 m 1
 52 426 52 453 52 467 c 1
 78 467 128 467 154 467 c 1
 154 543 154 696 154 772 c 1
 126 767 71 757 43 752 c 1
 43 766 43 796 43 810 c 1
 72 815 129 825 158 830 c 0
 175 830 209 830 226 830 c 1
 226 739 226 558 226 467 c 1
 252 467 302 467 328 467 c 1
 328 453 328 426 328 412 c 1
 259 412 121 412 52 412 c 1
26 252 m 1
 23 266 17 292 14 306 c 1
 146 339 412 404 544 437 c 1
 547 423 554 397 557 383 c 1
 424 350 159 285 26 252 c 1
420 -135 m 1
 420 -112 420 -65 420 -42 c 1
 372 -42 274 -42 226 -42 c 1
 226 -27 226 3 226 18 c 1
 271 84 363 216 408 282 c 1
 428 282 468 282 488 282 c 1
 488 215 488 81 488 14 c 1
 502 14 532 14 546 14 c 1
 546 0 546 -28 546 -42 c 1
 532 -42 502 -42 488 -42 c 1
 488 -65 488 -112 488 -135 c 1
 471 -135 437 -135 420 -135 c 1
282 14 m 1
 316 14 386 14 420 14 c 1
 420 66 420 168 420 220 c 1
 386 168 316 66 282 14 c 1
EndSplineSet
EndChar

StartChar: "+AL0A"
Encoding: 189 189 127
Width: 616
Flags: W
HStem: -135 57<342 547> 237 54<290.361 443.855> 412 55<52 154 226 328> 752 58<43 152.668>
VStem: 154 72<467 772> 468 76<108.574 215.505>
LayerCount: 2
Fore
SplineSet
52 412 m 1
 52 426 52 453 52 467 c 1
 78 467 128 467 154 467 c 1
 154 543 154 696 154 772 c 1
 126 767 71 757 43 752 c 1
 43 766 43 796 43 810 c 1
 72 815 129 825 158 830 c 0
 175 830 209 830 226 830 c 1
 226 739 226 558 226 467 c 1
 252 467 302 467 328 467 c 1
 328 453 328 426 328 412 c 1
 259 412 121 412 52 412 c 1
26 252 m 1
 23 266 17 292 14 306 c 1
 146 339 412 404 544 437 c 1
 547 423 554 397 557 383 c 1
 424 350 159 285 26 252 c 1
262 -135 m 1
 262 -121 262 -94 262 -80 c 1
 291 -52 348 5 377 33 c 0
 398 53 413 69 423 80 c 0
 433 91 441 102 448 112 c 0
 461 132 468 152 468 169 c 0
 468 189 460 205 443 218 c 0
 426 231 405 237 378 237 c 0
 361 237 342 234 324 228 c 0
 305 222 285 213 264 201 c 1
 264 222 264 221 264 263 c 1
 286 272 308 279 328 284 c 0
 349 289 368 291 388 291 c 0
 434 291 472 280 501 258 c 0
 516 247 527 234 534 219 c 0
 541 204 544 189 544 172 c 0
 544 160 542 150 539 141 c 0
 536 132 532 123 526 114 c 0
 511 91 485 60 448 24 c 0
 413 -10 368 -52 342 -78 c 1
 393 -78 496 -78 547 -78 c 1
 547 -92 547 -121 547 -135 c 1
 476 -135 333 -135 262 -135 c 1
EndSplineSet
EndChar

StartChar: "+AL4A"
Encoding: 190 190 128
Width: 616
Flags: W
HStem: -42 56<282 419 488 546> 405 54<60.4895 243.375> 608 54<130 237.199> 760 21G<63 68> 784 54<67.0608 241.498>
VStem: 262 76<679.241 766.89> 272 76<485.558 586.176> 419 69<-135 -42 14 220>
LayerCount: 2
Fore
SplineSet
301 438 m 0xfb
 269 416 224 405 167 405 c 0
 155 405 145 405 136 406 c 0
 127 407 117 408 107 410 c 0
 96 412 87 415 78 417 c 0
 69 419 59 422 49 425 c 1
 49 445 49 446 49 486 c 1
 61 481 72 477 82 474 c 0
 92 471 102 468 112 466 c 0
 129 462 146 459 164 459 c 0
 196 459 223 466 243 480 c 0
 252 486 259 493 264 502 c 0
 269 511 272 523 272 536 c 0xfb
 272 559 263 577 245 590 c 0
 226 603 199 608 163 608 c 0
 152 608 138 608 130 608 c 1
 130 622 130 648 130 662 c 1
 139 662 158 662 167 662 c 0
 198 662 221 667 238 678 c 0
 254 688 262 704 262 724 c 0
 262 743 254 757 238 768 c 0
 222 778 200 784 172 784 c 0
 156 784 140 782 121 778 c 0
 112 776 103 773 93 770 c 0
 83 767 73 764 63 760 c 1
 63 780 63 780 63 820 c 1
 75 823 86 826 97 828 c 0
 108 830 118 832 128 834 c 0
 148 837 165 838 182 838 c 0
 229 838 267 829 296 809 c 0
 324 789 338 763 338 730 c 0xfd
 338 706 331 687 316 671 c 0
 301 655 280 644 252 638 c 1
 283 631 307 618 324 600 c 0
 340 583 348 560 348 532 c 0
 348 492 333 461 301 438 c 0xfb
25 252 m 1
 22 266 16 292 13 306 c 1
 145 339 411 404 543 437 c 1
 546 423 554 397 557 383 c 1
 424 350 158 285 25 252 c 1
419 -135 m 1
 419 -112 419 -65 419 -42 c 1
 371 -42 274 -42 226 -42 c 1
 226 -27 226 4 226 19 c 1
 271 85 362 217 407 283 c 1
 427 283 468 283 488 283 c 1
 488 216 488 81 488 14 c 1
 502 14 532 14 546 14 c 1
 546 0 546 -28 546 -42 c 1
 532 -42 502 -42 488 -42 c 1
 488 -65 488 -112 488 -135 c 1
 471 -135 436 -135 419 -135 c 1
282 14 m 1
 316 14 385 14 419 14 c 1
 419 66 419 168 419 220 c 1
 385 168 316 66 282 14 c 1
EndSplineSet
EndChar

StartChar: "+AL8A"
Encoding: 191 191 129
Width: 616
Flags: W
HStem: -14 82<237.94 412.291> 626 152<276.658 379.341>
VStem: 97 101<106.646 232.002> 255 145<648.658 756.34> 274 96<389.261 546>
LayerCount: 2
Fore
SplineSet
380 648 m 0xf0
 366 634 348 626 328 626 c 0
 307 626 290 633 276 647 c 0
 262 661 255 679 255 702 c 0
 255 724 262 743 276 757 c 0
 282 763 288 768 297 772 c 0
 306 776 317 778 328 778 c 0
 349 778 366 771 380 757 c 0
 394 743 400 724 400 702 c 0
 400 679 394 662 380 648 c 0xf0
351 -10 m 0
 334 -12 317 -14 301 -14 c 0
 238 -14 189 2 152 34 c 0
 115 66 97 109 97 162 c 0
 97 180 99 197 103 212 c 0
 107 227 116 241 128 257 c 0
 140 273 156 291 177 312 c 0
 192 326 192 326 221 355 c 0
 231 365 239 374 247 383 c 0
 255 392 260 400 264 408 c 0
 270 421 274 439 274 461 c 0
 274 462 274 462 274 464 c 0
 274 468 274 470 274 474 c 0
 274 478 275 481 275 484 c 0
 275 504 275 531 275 546 c 1
 299 546 346 546 370 546 c 1
 370 527 370 488 370 469 c 0xe8
 370 436 365 409 355 386 c 0
 345 363 325 337 297 310 c 0
 282 295 282 296 252 266 c 0
 245 259 238 251 229 242 c 0
 220 233 214 223 209 214 c 0
 205 206 202 198 200 189 c 0
 198 180 198 173 198 166 c 0
 198 152 201 138 207 126 c 0
 213 114 220 104 230 96 c 0
 252 78 281 68 317 68 c 0
 331 68 344 70 358 73 c 0
 372 76 386 80 401 86 c 0
 431 97 463 114 495 137 c 1
 495 106 495 106 495 43 c 1
 478 33 462 24 446 17 c 0
 430 10 414 4 400 0 c 0
 384 -5 368 -8 351 -10 c 0
EndSplineSet
EndChar

StartChar: "+AMAA"
Encoding: 192 192 130
Width: 616
Flags: W
HStem: 0 21G<18 130 487 598> 194 82<202 414> 726 20G<218.5 398.5>
LayerCount: 2
Fore
SplineSet
292 792 m 1
 264 825 207 891 179 924 c 1
 202 924 248 924 271 924 c 1
 296 891 345 825 370 792 c 1
 351 792 311 792 292 792 c 1
18 0 m 1
 75 187 190 559 247 746 c 1
 278 746 339 746 370 746 c 1
 427 559 541 187 598 0 c 1
 572 0 520 0 494 0 c 1
 480 49 452 145 438 194 c 1
 373 194 242 194 177 194 c 1
 163 145 137 49 123 0 c 1
 97 0 44 0 18 0 c 1
202 276 m 1
 255 276 361 276 414 276 c 1
 387 372 335 562 308 658 c 1
 281 562 229 372 202 276 c 1
EndSplineSet
EndChar

StartChar: "+AMEA"
Encoding: 193 193 131
Width: 616
Flags: W
HStem: 0 21G<18 130 487 598> 194 82<202 414> 726 20G<218.5 398.5>
LayerCount: 2
Fore
SplineSet
247 796 m 1
 272 829 321 895 346 928 c 1
 369 928 415 928 438 928 c 1
 409 895 353 829 324 796 c 1
 305 796 266 796 247 796 c 1
18 0 m 1
 75 187 190 559 247 746 c 1
 278 746 339 746 370 746 c 1
 427 559 541 187 598 0 c 1
 572 0 520 0 494 0 c 1
 480 49 452 145 438 194 c 1
 373 194 242 194 177 194 c 1
 163 145 137 49 123 0 c 1
 97 0 44 0 18 0 c 1
202 276 m 1
 255 276 361 276 414 276 c 1
 387 372 335 562 308 658 c 1
 281 562 229 372 202 276 c 1
EndSplineSet
EndChar

StartChar: "+AMIA"
Encoding: 194 194 132
Width: 616
Flags: W
HStem: 0 21G<18 130 487 598> 194 82<202 414> 726 20G<218.5 398.5>
LayerCount: 2
Fore
SplineSet
156 793 m 1
 182 826 235 893 261 926 c 1
 285 926 332 926 356 926 c 1
 382 893 435 826 461 793 c 1
 443 793 409 793 391 793 c 1
 370 815 329 860 308 882 c 1
 287 860 247 815 226 793 c 1
 208 793 174 793 156 793 c 1
18 0 m 1
 75 187 190 559 247 746 c 1
 278 746 339 746 370 746 c 1
 427 559 541 187 598 0 c 1
 572 0 520 0 494 0 c 1
 480 49 452 145 438 194 c 1
 373 194 242 194 177 194 c 1
 163 145 137 49 123 0 c 1
 97 0 44 0 18 0 c 1
202 276 m 1
 255 276 361 276 414 276 c 1
 387 372 335 562 308 658 c 1
 281 562 229 372 202 276 c 1
EndSplineSet
EndChar

StartChar: "+AMMA"
Encoding: 195 195 133
Width: 616
Flags: W
HStem: 0 21G<18 130 487 598> 194 82<202 414> 726 20G<218.5 398.5> 794 60<321.153 402.367> 844 59<213.389 294.716>
VStem: 144 62<794 831.576> 410 63<867.423 903>
LayerCount: 2
Fore
SplineSet
206 794 m 1xf6
 190 794 160 794 144 794 c 1xf6
 144 810 146 825 150 838 c 0
 154 851 161 863 170 874 c 0
 187 894 209 903 238 903 c 0xee
 248 903 259 902 271 899 c 0
 280 897 293 891 310 882 c 0
 320 877 320 877 339 867 c 0
 346 863 352 859 359 857 c 0
 364 855 370 854 375 854 c 0xf6
 385 854 393 858 400 867 c 0
 407 876 410 887 410 900 c 0
 410 901 410 902 410 903 c 1
 426 903 457 903 473 903 c 1xee
 472 870 463 844 446 824 c 0
 429 804 406 794 378 794 c 0xf6
 368 794 358 795 347 798 c 0
 342 799 337 801 331 803 c 0
 325 805 316 810 306 815 c 0
 296 821 296 821 277 832 c 0
 273 834 271 835 267 837 c 0
 263 839 260 841 257 842 c 0
 252 844 247 844 242 844 c 0xee
 231 844 222 840 216 832 c 0
 209 823 206 811 206 796 c 0
 206 795 206 795 206 794 c 1xf6
18 0 m 1
 75 187 190 559 247 746 c 1
 278 746 339 746 370 746 c 1
 427 559 541 187 598 0 c 1
 572 0 520 0 494 0 c 1
 480 49 452 145 438 194 c 1
 373 194 242 194 177 194 c 1
 163 145 137 49 123 0 c 1
 97 0 44 0 18 0 c 1
202 276 m 1
 255 276 361 276 414 276 c 1
 387 372 335 562 308 658 c 1
 281 562 229 372 202 276 c 1
EndSplineSet
EndChar

StartChar: "+AMQA"
Encoding: 196 196 134
Width: 616
Flags: W
HStem: 0 21G<18 130 487 598> 194 82<202 414> 726 20G<218.5 398.5> 824 101<160 261 356 456>
VStem: 160 101<824 925> 356 100<824 925>
LayerCount: 2
Fore
SplineSet
246 824 m 0
 222 824 222 824 174 824 c 0
 164 824 160 828 160 838 c 0
 160 862 160 862 160 910 c 0
 160 920 164 925 174 925 c 0
 198 925 198 925 246 925 c 0
 256 925 261 920 261 910 c 0
 261 886 261 886 261 838 c 0
 261 828 256 824 246 824 c 0
442 824 m 0
 418 824 417 824 370 824 c 0
 360 824 356 828 356 838 c 0
 356 862 356 862 356 910 c 0
 356 920 360 925 370 925 c 0
 394 925 395 925 442 925 c 0
 452 925 456 920 456 910 c 0
 456 886 456 886 456 838 c 0
 456 828 452 824 442 824 c 0
18 0 m 1
 75 187 190 559 247 746 c 1
 278 746 339 746 370 746 c 1
 427 559 541 187 598 0 c 1
 572 0 520 0 494 0 c 1
 480 49 452 145 438 194 c 1
 373 194 242 194 177 194 c 1
 163 145 137 49 123 0 c 1
 97 0 44 0 18 0 c 1
202 276 m 1
 255 276 361 276 414 276 c 1
 387 372 335 562 308 658 c 1
 281 562 229 372 202 276 c 1
EndSplineSet
EndChar

StartChar: "+AMUA"
Encoding: 197 197 135
Width: 616
Flags: W
HStem: 0 21G<18 130 487 598> 194 82<202 415> 889 62<254.877 361.996>
VStem: 171 62<760.205 867.593> 384 62<760.497 867.287>
LayerCount: 2
Fore
SplineSet
18 0 m 1
 72 175 179 525 233 700 c 1
 214 711 199 726 188 746 c 0
 177 766 171 788 171 813 c 0
 171 839 178 862 190 883 c 0
 202 904 218 920 239 932 c 0
 260 944 283 951 308 951 c 0
 327 951 345 947 362 940 c 0
 379 933 394 923 406 911 c 0
 418 899 427 885 434 868 c 0
 441 851 446 832 446 812 c 0
 446 788 441 767 430 747 c 0
 420 728 404 713 384 700 c 1
 455 467 544 175 598 0 c 1
 572 0 520 0 494 0 c 1
 480 49 452 145 438 194 c 1
 373 194 242 194 177 194 c 1
 163 145 137 49 123 0 c 1
 97 0 44 0 18 0 c 1
255 760 m 0
 270 745 287 738 308 738 c 0
 329 738 347 745 362 760 c 0
 377 775 384 792 384 813 c 0
 384 834 377 852 362 867 c 0
 354 875 346 880 336 884 c 0
 326 888 318 889 308 889 c 0
 287 889 269 882 255 868 c 0
 240 853 233 835 233 813 c 0
 233 792 240 775 255 760 c 0
202 276 m 1
 255 276 362 276 415 276 c 1
 388 371 335 561 308 656 c 1
 281 561 229 371 202 276 c 1
EndSplineSet
EndChar

StartChar: "+AMYA"
Encoding: 198 198 136
Width: 616
Flags: W
HStem: 0 85<412 590> 192 84<164 318> 356 84<412 565> 662 84<260.021 318 412 580>
VStem: 318 94<85 192 276 356 440 662>
LayerCount: 2
Fore
SplineSet
0 0 m 1
 51 187 154 559 205 746 c 1
 299 746 486 746 580 746 c 1
 580 725 580 683 580 662 c 1
 538 662 454 662 412 662 c 1
 412 607 412 495 412 440 c 1
 450 440 527 440 565 440 c 1
 565 419 565 377 565 356 c 1
 527 356 450 356 412 356 c 1
 412 288 412 153 412 85 c 1
 457 85 545 85 590 85 c 1
 590 64 590 21 590 0 c 1
 522 0 386 0 318 0 c 1
 318 48 318 144 318 192 c 1
 274 192 186 192 142 192 c 1
 129 144 105 48 92 0 c 1
 69 0 23 0 0 0 c 1
164 276 m 1
 203 276 279 276 318 276 c 1
 318 372 318 566 318 662 c 1
 305 662 278 662 265 662 c 1
 240 566 189 372 164 276 c 1
EndSplineSet
EndChar

StartChar: "+AMcA"
Encoding: 199 199 137
Width: 616
Flags: W
HStem: -198 62<247.869 379.108> 678 82<280.488 472.159>
VStem: 70 105<200.868 544.287> 385 69<-128.596 -40.2078>
LayerCount: 2
Fore
SplineSet
457 662 m 0
 428 673 399 678 370 678 c 0
 305 678 257 653 224 602 c 0
 191 551 175 474 175 372 c 0
 175 270 191 194 224 143 c 0
 240 119 260 100 284 87 c 0
 308 74 337 67 371 67 c 0
 400 67 429 72 458 83 c 0
 486 94 512 110 536 130 c 1
 536 96 536 95 536 26 c 1
 510 12 483 2 457 -5 c 0
 450 -7 443 -7 435 -9 c 0
 427 -11 419 -12 411 -13 c 1
 425 -30 436 -45 442 -58 c 0
 446 -66 449 -74 451 -82 c 0
 453 -90 454 -100 454 -110 c 0
 454 -138 444 -160 424 -175 c 0
 414 -182 403 -188 388 -192 c 0
 373 -196 356 -198 335 -198 c 0
 320 -198 305 -197 291 -195 c 0
 276 -193 261 -190 247 -186 c 1
 247 -164 247 -164 247 -120 c 1
 270 -131 296 -136 323 -136 c 0
 364 -136 385 -121 385 -90 c 0
 385 -79 381 -67 374 -53 c 0
 371 -48 368 -41 364 -35 c 0
 360 -29 355 -21 350 -14 c 1
 264 -8 196 25 148 87 c 0
 95 155 70 250 70 372 c 0
 70 432 76 486 89 534 c 0
 102 582 122 624 149 658 c 0
 202 726 276 760 371 760 c 0
 402 760 431 757 458 750 c 0
 484 743 510 733 536 719 c 1
 536 685 536 685 536 616 c 1
 512 636 486 651 457 662 c 0
EndSplineSet
EndChar

StartChar: "+AMgA"
Encoding: 200 200 138
Width: 616
Flags: W
HStem: 0 85<200 551> 356 84<200 526> 662 84<200 542>
VStem: 98 102<85 356 440 662>
LayerCount: 2
Fore
SplineSet
311 796 m 1
 283 829 226 895 198 928 c 1
 221 928 267 928 290 928 c 1
 315 895 363 829 388 796 c 1
 369 796 330 796 311 796 c 1
98 0 m 1
 98 187 98 559 98 746 c 1
 209 746 431 746 542 746 c 1
 542 725 542 683 542 662 c 1
 456 662 286 662 200 662 c 1
 200 607 200 495 200 440 c 1
 282 440 444 440 526 440 c 1
 526 419 526 377 526 356 c 1
 444 356 282 356 200 356 c 1
 200 288 200 153 200 85 c 1
 288 85 463 85 551 85 c 1
 551 64 551 21 551 0 c 1
 438 0 211 0 98 0 c 1
EndSplineSet
EndChar

StartChar: "+AMkA"
Encoding: 201 201 139
Width: 616
Flags: W
HStem: 0 85<200 551> 356 84<200 526> 662 84<200 542>
VStem: 98 102<85 356 440 662>
LayerCount: 2
Fore
SplineSet
246 796 m 1
 271 829 320 895 345 928 c 1
 368 928 415 928 438 928 c 1
 409 895 353 829 324 796 c 1
 305 796 265 796 246 796 c 1
98 0 m 1
 98 187 98 559 98 746 c 1
 209 746 431 746 542 746 c 1
 542 725 542 683 542 662 c 1
 456 662 286 662 200 662 c 1
 200 607 200 495 200 440 c 1
 282 440 444 440 526 440 c 1
 526 419 526 377 526 356 c 1
 444 356 282 356 200 356 c 1
 200 288 200 153 200 85 c 1
 288 85 463 85 551 85 c 1
 551 64 551 21 551 0 c 1
 438 0 211 0 98 0 c 1
EndSplineSet
EndChar

StartChar: "+AMoA"
Encoding: 202 202 140
Width: 616
Flags: W
HStem: 0 85<200 551> 356 84<200 526> 662 84<200 542>
VStem: 98 102<85 356 440 662>
LayerCount: 2
Fore
SplineSet
164 793 m 1
 190 826 244 893 270 926 c 1
 294 926 340 926 364 926 c 1
 390 893 444 826 470 793 c 1
 452 793 418 793 400 793 c 1
 379 815 338 860 317 882 c 1
 296 860 255 815 234 793 c 1
 216 793 182 793 164 793 c 1
98 0 m 1
 98 187 98 559 98 746 c 1
 209 746 431 746 542 746 c 1
 542 725 542 683 542 662 c 1
 456 662 286 662 200 662 c 1
 200 607 200 495 200 440 c 1
 282 440 444 440 526 440 c 1
 526 419 526 377 526 356 c 1
 444 356 282 356 200 356 c 1
 200 288 200 153 200 85 c 1
 288 85 463 85 551 85 c 1
 551 64 551 21 551 0 c 1
 438 0 211 0 98 0 c 1
EndSplineSet
EndChar

StartChar: "+AMsA"
Encoding: 203 203 141
Width: 616
Flags: W
HStem: 0 85<200 551> 356 84<200 526> 662 84<200 542> 824 101<168 270 364 466>
VStem: 98 102<85 356 440 662> 168 102<824 925> 364 102<824 925>
LayerCount: 2
Fore
SplineSet
255 824 m 0xf6
 231 824 232 824 184 824 c 0
 174 824 168 828 168 838 c 0
 168 862 168 862 168 910 c 0
 168 920 174 925 184 925 c 0
 208 925 207 925 255 925 c 0
 265 925 270 920 270 910 c 0
 270 886 270 886 270 838 c 0
 270 828 265 824 255 824 c 0xf6
450 824 m 0
 426 824 427 824 380 824 c 0
 370 824 364 828 364 838 c 0
 364 862 364 862 364 910 c 0
 364 920 370 925 380 925 c 0
 404 925 403 925 450 925 c 0
 460 925 466 920 466 910 c 0
 466 886 466 886 466 838 c 0
 466 828 460 824 450 824 c 0
98 0 m 1xfa
 98 187 98 559 98 746 c 1
 209 746 431 746 542 746 c 1
 542 725 542 683 542 662 c 1
 456 662 286 662 200 662 c 1
 200 607 200 495 200 440 c 1
 282 440 444 440 526 440 c 1
 526 419 526 377 526 356 c 1
 444 356 282 356 200 356 c 1
 200 288 200 153 200 85 c 1
 288 85 463 85 551 85 c 1
 551 64 551 21 551 0 c 1
 438 0 211 0 98 0 c 1xfa
EndSplineSet
EndChar

StartChar: "+AMwA"
Encoding: 204 204 142
Width: 616
Flags: W
HStem: 0 85<100 257 358 515> 662 84<100 257 358 515>
VStem: 257 101<85 662>
LayerCount: 2
Fore
SplineSet
300 796 m 1
 272 829 214 895 186 928 c 1
 209 928 255 928 278 928 c 1
 303 895 351 829 376 796 c 1
 357 796 319 796 300 796 c 1
100 0 m 1
 100 21 100 64 100 85 c 1
 139 85 218 85 257 85 c 1
 257 229 257 518 257 662 c 1
 218 662 139 662 100 662 c 1
 100 683 100 725 100 746 c 1
 204 746 411 746 515 746 c 1
 515 725 515 683 515 662 c 1
 476 662 397 662 358 662 c 1
 358 518 358 229 358 85 c 1
 397 85 476 85 515 85 c 1
 515 64 515 21 515 0 c 1
 411 0 204 0 100 0 c 1
EndSplineSet
EndChar

StartChar: "+AM0A"
Encoding: 205 205 143
Width: 616
Flags: W
HStem: 0 85<100 257 358 515> 662 84<100 257 358 515>
VStem: 257 101<85 662>
LayerCount: 2
Fore
SplineSet
247 796 m 1
 272 829 321 895 346 928 c 1
 369 928 415 928 438 928 c 1
 409 895 353 829 324 796 c 1
 305 796 266 796 247 796 c 1
100 0 m 1
 100 21 100 64 100 85 c 1
 139 85 218 85 257 85 c 1
 257 229 257 518 257 662 c 1
 218 662 139 662 100 662 c 1
 100 683 100 725 100 746 c 1
 204 746 411 746 515 746 c 1
 515 725 515 683 515 662 c 1
 476 662 397 662 358 662 c 1
 358 518 358 229 358 85 c 1
 397 85 476 85 515 85 c 1
 515 64 515 21 515 0 c 1
 411 0 204 0 100 0 c 1
EndSplineSet
EndChar

StartChar: "+AM4A"
Encoding: 206 206 144
Width: 616
Flags: W
HStem: 0 85<100 257 358 515> 662 84<100 257 358 515>
VStem: 257 101<85 662>
LayerCount: 2
Fore
SplineSet
155 793 m 1
 181 826 234 893 260 926 c 1
 284 926 331 926 355 926 c 1
 381 893 434 826 460 793 c 1
 442 793 408 793 390 793 c 1
 369 815 329 860 308 882 c 1
 287 860 246 815 225 793 c 1
 207 793 173 793 155 793 c 1
100 0 m 1
 100 21 100 64 100 85 c 1
 139 85 218 85 257 85 c 1
 257 229 257 518 257 662 c 1
 218 662 139 662 100 662 c 1
 100 683 100 725 100 746 c 1
 204 746 411 746 515 746 c 1
 515 725 515 683 515 662 c 1
 476 662 397 662 358 662 c 1
 358 518 358 229 358 85 c 1
 397 85 476 85 515 85 c 1
 515 64 515 21 515 0 c 1
 411 0 204 0 100 0 c 1
EndSplineSet
EndChar

StartChar: "+AM8A"
Encoding: 207 207 145
Width: 616
Flags: W
HStem: 0 85<100 257 358 515> 662 84<100 257 358 515> 824 101<160 261 356 456>
VStem: 160 101<824 925> 257 101<85 662> 356 100<824 925>
LayerCount: 2
Fore
SplineSet
246 824 m 0xf0
 222 824 222 824 174 824 c 0
 164 824 160 828 160 838 c 0
 160 862 160 862 160 910 c 0
 160 920 164 925 174 925 c 0
 198 925 198 925 246 925 c 0
 256 925 261 920 261 910 c 0
 261 886 261 886 261 838 c 0
 261 828 256 824 246 824 c 0xf0
442 824 m 0
 418 824 417 824 370 824 c 0
 360 824 356 828 356 838 c 0
 356 862 356 862 356 910 c 0
 356 920 360 925 370 925 c 0
 394 925 395 925 442 925 c 0
 452 925 456 920 456 910 c 0
 456 886 456 886 456 838 c 0xe4
 456 828 452 824 442 824 c 0
100 0 m 1
 100 21 100 64 100 85 c 1
 139 85 218 85 257 85 c 1
 257 229 257 518 257 662 c 1
 218 662 139 662 100 662 c 1
 100 683 100 725 100 746 c 1
 204 746 411 746 515 746 c 1
 515 725 515 683 515 662 c 1
 476 662 397 662 358 662 c 1
 358 518 358 229 358 85 c 1xe8
 397 85 476 85 515 85 c 1
 515 64 515 21 515 0 c 1
 411 0 204 0 100 0 c 1
EndSplineSet
EndChar

StartChar: "+ANAA"
Encoding: 208 208 146
Width: 616
Flags: W
HStem: 0 83<170 340.637> 355 74<4 67 170 302> 664 83<170 342.084>
VStem: 67 103<83 355 429 664> 446 105<201.497 545.006>
LayerCount: 2
Fore
SplineSet
66 0 m 1
 66 89 67 266 67 355 c 1
 51 355 20 355 4 355 c 1
 4 374 4 410 4 429 c 1
 20 429 51 429 67 429 c 1
 67 508 67 668 67 747 c 1
 105 747 180 747 218 747 c 0
 332 747 416 717 470 656 c 0
 524 595 551 501 551 373 c 0
 551 246 524 152 470 91 c 0
 442 60 407 37 365 22 c 0
 323 7 274 0 218 0 c 0
 168 0 104 0 66 0 c 1
170 83 m 1
 182 83 206 83 218 83 c 0
 264 83 301 89 329 100 c 0
 357 111 380 126 396 146 c 0
 413 168 426 197 434 234 c 0
 442 271 446 317 446 374 c 0
 446 433 442 480 434 515 c 0
 426 550 413 579 396 600 c 0
 378 622 355 639 326 649 c 0
 297 659 261 664 218 664 c 0
 202 664 182 664 170 664 c 1
 170 605 170 488 170 429 c 1
 203 429 269 429 302 429 c 1
 302 410 302 374 302 355 c 1
 269 355 203 355 170 355 c 1
 170 287 170 151 170 83 c 1
EndSplineSet
EndChar

StartChar: "+ANEA"
Encoding: 209 209 147
Width: 616
Flags: W
HStem: 0 21G<70 167 387.5 547> 726 20G<70 229.5 450 547> 817 60<321.153 402.367> 867 59<213.389 294.716>
VStem: 70 97<0 614> 144 62<816 854.577> 410 63<890.423 926> 450 97<132 746>
LayerCount: 2
Fore
SplineSet
206 816 m 1xd6
 190 816 160 816 144 816 c 1
 144 832 146 847 150 860 c 0
 154 873 161 885 170 896 c 0
 187 916 209 926 238 926 c 0xd6
 248 926 259 925 271 922 c 0
 280 920 293 914 310 905 c 0
 320 900 320 900 339 890 c 0
 346 886 352 882 359 880 c 0
 364 878 370 877 375 877 c 0xe6
 385 877 393 881 400 890 c 0
 407 899 410 910 410 923 c 0
 410 924 410 925 410 926 c 1
 426 926 457 926 473 926 c 1xd6
 472 893 463 867 446 847 c 0
 429 827 406 817 378 817 c 0xe6
 368 817 358 818 347 821 c 0
 342 822 337 824 331 826 c 0
 325 828 316 833 306 838 c 0
 296 844 296 844 277 855 c 0
 273 857 271 858 267 860 c 0
 263 862 260 864 257 865 c 0
 252 867 247 867 242 867 c 0
 231 867 222 863 216 855 c 0
 209 846 206 835 206 820 c 0
 206 819 206 817 206 816 c 1xd6
70 0 m 1xc9
 70 187 70 559 70 746 c 1
 102 746 166 746 198 746 c 1
 261 592 387 286 450 132 c 1
 450 286 450 592 450 746 c 1
 474 746 523 746 547 746 c 1
 547 559 547 187 547 0 c 1
 515 0 451 0 419 0 c 1
 356 154 230 460 167 614 c 1
 167 460 167 154 167 0 c 1
 143 0 94 0 70 0 c 1xc9
EndSplineSet
EndChar

StartChar: "+ANIA"
Encoding: 210 210 148
Width: 616
Flags: W
HStem: -15 82<238.113 379.185> 678 82<236.768 379.185>
VStem: 58 106<174.211 570.603> 453 105<175.415 569.335>
LayerCount: 2
Fore
SplineSet
304 796 m 1
 276 829 219 895 191 928 c 1
 214 928 260 928 283 928 c 1
 308 895 357 829 382 796 c 1
 363 796 323 796 304 796 c 1
417 8 m 0
 385 -7 349 -15 308 -15 c 0
 224 -15 161 17 120 81 c 0
 79 144 58 241 58 372 c 0
 58 503 79 601 120 664 c 0
 162 728 225 760 308 760 c 0
 349 760 385 752 417 737 c 0
 449 722 475 697 496 664 c 0
 537 600 558 502 558 372 c 0
 558 242 537 145 496 81 c 0
 475 48 449 23 417 8 c 0
198 138 m 0
 221 91 257 67 308 67 c 0
 359 67 396 91 419 138 c 0
 441 184 453 261 453 372 c 0
 453 483 441 561 419 607 c 0
 396 654 359 678 308 678 c 0
 257 678 221 654 198 607 c 0
 175 559 164 481 164 372 c 0
 164 264 175 186 198 138 c 0
EndSplineSet
EndChar

StartChar: "+ANMA"
Encoding: 211 211 149
Width: 616
Flags: W
HStem: -15 82<238.113 379.185> 678 82<236.768 379.185>
VStem: 58 106<174.211 570.603> 453 105<175.415 569.335>
LayerCount: 2
Fore
SplineSet
252 796 m 1
 277 829 325 895 350 928 c 1
 373 928 421 928 444 928 c 1
 415 895 358 829 329 796 c 1
 310 796 271 796 252 796 c 1
417 8 m 0
 385 -7 349 -15 308 -15 c 0
 224 -15 161 17 120 81 c 0
 79 144 58 241 58 372 c 0
 58 503 79 601 120 664 c 0
 162 728 225 760 308 760 c 0
 349 760 385 752 417 737 c 0
 449 722 475 697 496 664 c 0
 537 600 558 502 558 372 c 0
 558 242 537 145 496 81 c 0
 475 48 449 23 417 8 c 0
198 138 m 0
 221 91 257 67 308 67 c 0
 359 67 396 91 419 138 c 0
 441 184 453 261 453 372 c 0
 453 483 441 561 419 607 c 0
 396 654 359 678 308 678 c 0
 257 678 221 654 198 607 c 0
 175 559 164 481 164 372 c 0
 164 264 175 186 198 138 c 0
EndSplineSet
EndChar

StartChar: "+ANQA"
Encoding: 212 212 150
Width: 616
Flags: W
HStem: -15 82<238.113 379.185> 678 82<236.768 379.185>
VStem: 58 106<174.211 570.603> 453 105<175.415 569.335>
LayerCount: 2
Fore
SplineSet
164 793 m 1
 190 826 244 893 270 926 c 1
 294 926 340 926 364 926 c 1
 390 893 444 826 470 793 c 1
 452 793 418 793 400 793 c 1
 379 815 338 860 317 882 c 1
 296 860 255 815 234 793 c 1
 216 793 182 793 164 793 c 1
417 8 m 0
 385 -7 349 -15 308 -15 c 0
 224 -15 161 17 120 81 c 0
 79 144 58 241 58 372 c 0
 58 503 79 601 120 664 c 0
 162 728 225 760 308 760 c 0
 349 760 385 752 417 737 c 0
 449 722 475 697 496 664 c 0
 537 600 558 502 558 372 c 0
 558 242 537 145 496 81 c 0
 475 48 449 23 417 8 c 0
198 138 m 0
 221 91 257 67 308 67 c 0
 359 67 396 91 419 138 c 0
 441 184 453 261 453 372 c 0
 453 483 441 561 419 607 c 0
 396 654 359 678 308 678 c 0
 257 678 221 654 198 607 c 0
 175 559 164 481 164 372 c 0
 164 264 175 186 198 138 c 0
EndSplineSet
EndChar

StartChar: "+ANUA"
Encoding: 213 213 151
Width: 616
Flags: W
HStem: -15 82<238.113 379.185> 678 82<236.768 379.185> 817 60<321.153 402.367> 867 59<213.389 294.716>
VStem: 58 106<174.211 570.603> 144 62<816 854.577> 410 63<890.423 926> 453 105<175.415 569.335>
LayerCount: 2
Fore
SplineSet
206 816 m 1xd6
 190 816 160 816 144 816 c 1
 144 832 146 847 150 860 c 0
 154 873 161 885 170 896 c 0
 187 916 209 926 238 926 c 0xd6
 248 926 259 925 271 922 c 0
 280 920 293 914 310 905 c 0
 320 900 320 900 339 890 c 0
 346 886 352 882 359 880 c 0
 364 878 370 877 375 877 c 0xe6
 385 877 393 881 400 890 c 0
 407 899 410 910 410 923 c 0
 410 924 410 925 410 926 c 1
 426 926 457 926 473 926 c 1xd6
 472 893 463 867 446 847 c 0
 429 827 406 817 378 817 c 0xe6
 368 817 358 818 347 821 c 0
 342 822 337 824 331 826 c 0
 325 828 316 833 306 838 c 0
 296 844 296 844 277 855 c 0
 273 857 271 858 267 860 c 0
 263 862 260 864 257 865 c 0
 252 867 247 867 242 867 c 0
 231 867 222 863 216 855 c 0
 209 846 206 835 206 820 c 0
 206 819 206 817 206 816 c 1xd6
417 8 m 0
 385 -7 349 -15 308 -15 c 0
 224 -15 161 17 120 81 c 0
 79 144 58 241 58 372 c 0
 58 503 79 601 120 664 c 0
 162 728 225 760 308 760 c 0
 349 760 385 752 417 737 c 0
 449 722 475 697 496 664 c 0
 537 600 558 502 558 372 c 0xc9
 558 242 537 145 496 81 c 0
 475 48 449 23 417 8 c 0
198 138 m 0
 221 91 257 67 308 67 c 0
 359 67 396 91 419 138 c 0
 441 184 453 261 453 372 c 0
 453 483 441 561 419 607 c 0
 396 654 359 678 308 678 c 0
 257 678 221 654 198 607 c 0
 175 559 164 481 164 372 c 0
 164 264 175 186 198 138 c 0
EndSplineSet
EndChar

StartChar: "+ANYA"
Encoding: 214 214 152
Width: 616
Flags: W
HStem: -15 82<238.113 379.185> 678 82<236.768 379.185> 824 101<160 261 356 456>
VStem: 58 106<174.211 570.603> 160 101<824 925> 356 100<824 925> 453 105<175.415 569.335>
LayerCount: 2
Fore
SplineSet
246 824 m 0xe8
 222 824 222 824 174 824 c 0
 164 824 160 828 160 838 c 0
 160 862 160 862 160 910 c 0
 160 920 164 925 174 925 c 0
 198 925 198 925 246 925 c 0
 256 925 261 920 261 910 c 0
 261 886 261 886 261 838 c 0
 261 828 256 824 246 824 c 0xe8
442 824 m 0
 418 824 417 824 370 824 c 0
 360 824 356 828 356 838 c 0
 356 862 356 862 356 910 c 0
 356 920 360 925 370 925 c 0
 394 925 395 925 442 925 c 0
 452 925 456 920 456 910 c 0
 456 886 456 886 456 838 c 0xe4
 456 828 452 824 442 824 c 0
417 8 m 0
 385 -7 349 -15 308 -15 c 0
 224 -15 161 17 120 81 c 0
 79 144 58 241 58 372 c 0
 58 503 79 601 120 664 c 0
 162 728 225 760 308 760 c 0
 349 760 385 752 417 737 c 0
 449 722 475 697 496 664 c 0
 537 600 558 502 558 372 c 0xf2
 558 242 537 145 496 81 c 0
 475 48 449 23 417 8 c 0
198 138 m 0
 221 91 257 67 308 67 c 0
 359 67 396 91 419 138 c 0
 441 184 453 261 453 372 c 0
 453 483 441 561 419 607 c 0
 396 654 359 678 308 678 c 0
 257 678 221 654 198 607 c 0
 175 559 164 481 164 372 c 0
 164 264 175 186 198 138 c 0
EndSplineSet
EndChar

StartChar: "+ANcA"
Encoding: 215 215 153
Width: 616
Flags: W
LayerCount: 2
Fore
SplineSet
134 87 m 1
 119 102 90 131 75 146 c 1
 119 190 206 276 250 320 c 1
 206 364 119 452 75 496 c 1
 89 511 119 539 133 554 c 1
 177 510 264 423 308 379 c 1
 352 423 440 510 484 554 c 1
 498 539 528 511 542 496 c 1
 498 452 410 364 366 320 c 1
 410 276 496 190 540 146 c 1
 526 131 496 102 482 87 c 1
 438 131 352 218 308 262 c 1
 264 218 178 131 134 87 c 1
EndSplineSet
EndChar

StartChar: "+ANgA"
Encoding: 216 216 154
Width: 616
Flags: W
HStem: -14 81<235.167 380.713> 678 82<234.763 381.554>
VStem: 59 105<235.922 573.474> 453 105<171.385 517.578>
LayerCount: 2
Fore
SplineSet
56 -35 m 1
 43 -26 17 -9 4 -0 c 1
 26 32 71 94 93 126 c 1
 83 149 74 183 68 228 c 0
 65 249 63 271 61 294 c 0
 59 317 59 342 59 370 c 0
 59 438 64 495 74 543 c 0
 84 591 100 632 121 664 c 0
 142 697 168 721 199 737 c 0
 230 753 267 760 308 760 c 0
 328 760 346 759 362 755 c 0
 378 751 394 746 409 739 c 0
 437 726 462 706 481 679 c 1
 504 713 533 754 550 779 c 1
 562 770 588 751 600 742 c 1
 579 712 537 653 516 623 c 1
 523 609 529 594 534 576 c 0
 539 558 544 538 548 518 c 0
 551 499 553 477 555 452 c 0
 557 427 558 401 558 372 c 0
 558 242 538 145 497 81 c 0
 477 50 451 26 420 10 c 0
 389 -6 351 -14 306 -14 c 0
 287 -14 269 -13 252 -10 c 0
 235 -7 218 -1 202 6 c 0
 172 19 147 39 127 66 c 1
 103 32 74 -10 56 -35 c 1
169 235 m 1
 253 355 253 355 421 595 c 1
 417 609 411 621 404 631 c 0
 397 641 389 650 380 657 c 0
 361 671 337 678 307 678 c 0
 279 678 257 672 239 659 c 0
 221 646 208 628 197 604 c 0
 186 579 177 545 172 504 c 0
 167 463 164 409 164 343 c 0
 164 328 164 316 164 307 c 0
 164 298 165 289 166 278 c 0
 166 273 166 268 166 262 c 0
 166 256 167 247 169 235 c 1
234 90 m 0
 256 75 281 67 309 67 c 0
 336 67 358 74 376 86 c 0
 394 98 408 115 419 138 c 0
 430 160 438 190 444 227 c 0
 450 264 453 313 453 374 c 0
 453 391 452 407 452 422 c 0
 452 437 451 450 450 461 c 0
 449 472 448 482 447 491 c 0
 446 500 444 509 442 518 c 1
 356 396 357 395 186 151 c 1
 196 125 212 105 234 90 c 0
EndSplineSet
EndChar

StartChar: "+ANkA"
Encoding: 217 217 155
Width: 616
Flags: W
HStem: -15 82<222.395 394.148> 726 20G<74 175 442 542>
VStem: 74 101<112.938 746> 442 100<113.681 746>
LayerCount: 2
Fore
SplineSet
302 794 m 1
 274 827 216 893 188 926 c 1
 211 926 257 926 280 926 c 1
 305 893 354 827 379 794 c 1
 360 794 321 794 302 794 c 1
361 -10 m 0
 345 -13 328 -15 308 -15 c 0
 273 -15 241 -10 213 -0 c 0
 200 5 187 10 173 18 c 0
 159 26 147 34 136 44 c 0
 126 53 117 64 109 77 c 0
 101 90 94 105 88 124 c 0
 83 141 79 162 77 187 c 0
 75 212 74 245 74 286 c 0
 74 439 74 631 74 746 c 1
 99 746 150 746 175 746 c 1
 175 620 175 366 175 240 c 0
 175 204 176 178 178 163 c 0
 180 148 183 136 188 127 c 0
 199 107 215 92 235 82 c 0
 255 72 279 67 308 67 c 0
 337 67 362 72 382 82 c 0
 403 93 418 108 428 127 c 0
 433 137 436 148 438 162 c 0
 440 178 442 203 442 239 c 0
 442 408 442 619 442 746 c 1
 467 746 517 746 542 746 c 1
 542 631 542 401 542 286 c 0
 542 242 541 208 538 184 c 0
 535 160 532 139 528 124 c 0
 519 92 504 65 480 44 c 0
 469 34 457 25 443 18 c 0
 429 11 416 5 403 0 c 0
 391 -4 377 -7 361 -10 c 0
EndSplineSet
EndChar

StartChar: "+ANoA"
Encoding: 218 218 156
Width: 616
Flags: W
HStem: -15 82<222.395 394.148> 726 20G<74 175 442 542>
VStem: 74 101<112.938 746> 442 100<113.681 746>
LayerCount: 2
Fore
SplineSet
238 796 m 1
 263 829 311 895 336 928 c 1
 359 928 406 928 429 928 c 1
 400 895 343 829 314 796 c 1
 295 796 257 796 238 796 c 1
361 -10 m 0
 345 -13 328 -15 308 -15 c 0
 273 -15 241 -10 213 -0 c 0
 200 5 187 10 173 18 c 0
 159 26 147 34 136 44 c 0
 126 53 117 64 109 77 c 0
 101 90 94 105 88 124 c 0
 83 141 79 162 77 187 c 0
 75 212 74 245 74 286 c 0
 74 439 74 631 74 746 c 1
 99 746 150 746 175 746 c 1
 175 620 175 366 175 240 c 0
 175 204 176 178 178 163 c 0
 180 148 183 136 188 127 c 0
 199 107 215 92 235 82 c 0
 255 72 279 67 308 67 c 0
 337 67 362 72 382 82 c 0
 403 93 418 108 428 127 c 0
 433 137 436 148 438 162 c 0
 440 178 442 203 442 239 c 0
 442 408 442 619 442 746 c 1
 467 746 517 746 542 746 c 1
 542 631 542 401 542 286 c 0
 542 242 541 208 538 184 c 0
 535 160 532 139 528 124 c 0
 519 92 504 65 480 44 c 0
 469 34 457 25 443 18 c 0
 429 11 416 5 403 0 c 0
 391 -4 377 -7 361 -10 c 0
EndSplineSet
EndChar

StartChar: "+ANsA"
Encoding: 219 219 157
Width: 616
Flags: W
HStem: -15 82<222.395 394.148> 726 20G<74 175 442 542>
VStem: 74 101<112.938 746> 442 100<113.681 746>
LayerCount: 2
Fore
SplineSet
156 793 m 1
 182 826 235 893 261 926 c 1
 285 926 332 926 356 926 c 1
 382 893 435 826 461 793 c 1
 443 793 409 793 391 793 c 1
 370 815 329 860 308 882 c 1
 287 860 247 815 226 793 c 1
 208 793 174 793 156 793 c 1
361 -10 m 0
 345 -13 328 -15 308 -15 c 0
 273 -15 241 -10 213 -0 c 0
 200 5 187 10 173 18 c 0
 159 26 147 34 136 44 c 0
 126 53 117 64 109 77 c 0
 101 90 94 105 88 124 c 0
 83 141 79 162 77 187 c 0
 75 212 74 245 74 286 c 0
 74 439 74 631 74 746 c 1
 99 746 150 746 175 746 c 1
 175 620 175 366 175 240 c 0
 175 204 176 178 178 163 c 0
 180 148 183 136 188 127 c 0
 199 107 215 92 235 82 c 0
 255 72 279 67 308 67 c 0
 337 67 362 72 382 82 c 0
 403 93 418 108 428 127 c 0
 433 137 436 148 438 162 c 0
 440 178 442 203 442 239 c 0
 442 408 442 619 442 746 c 1
 467 746 517 746 542 746 c 1
 542 631 542 401 542 286 c 0
 542 242 541 208 538 184 c 0
 535 160 532 139 528 124 c 0
 519 92 504 65 480 44 c 0
 469 34 457 25 443 18 c 0
 429 11 416 5 403 0 c 0
 391 -4 377 -7 361 -10 c 0
EndSplineSet
EndChar

StartChar: "+ANwA"
Encoding: 220 220 158
Width: 616
Flags: W
HStem: -15 82<222.395 394.148> 726 20G<74 175 442 542> 824 101<160 261 356 456>
VStem: 74 101<112.938 746> 160 101<824 925> 356 100<824 925> 442 100<113.681 746>
LayerCount: 2
Fore
SplineSet
246 824 m 0xe8
 222 824 222 824 174 824 c 0
 164 824 160 828 160 838 c 0
 160 862 160 862 160 910 c 0
 160 920 164 925 174 925 c 0
 198 925 198 925 246 925 c 0
 256 925 261 920 261 910 c 0
 261 886 261 886 261 838 c 0
 261 828 256 824 246 824 c 0xe8
442 824 m 0xe2
 418 824 417 824 370 824 c 0
 360 824 356 828 356 838 c 0
 356 862 356 862 356 910 c 0xe4
 356 920 360 925 370 925 c 0
 394 925 395 925 442 925 c 0xe2
 452 925 456 920 456 910 c 0
 456 886 456 886 456 838 c 0xe4
 456 828 452 824 442 824 c 0xe2
361 -10 m 0
 345 -13 328 -15 308 -15 c 0
 273 -15 241 -10 213 -0 c 0
 200 5 187 10 173 18 c 0
 159 26 147 34 136 44 c 0
 126 53 117 64 109 77 c 0
 101 90 94 105 88 124 c 0
 83 141 79 162 77 187 c 0
 75 212 74 245 74 286 c 0
 74 439 74 631 74 746 c 1
 99 746 150 746 175 746 c 1
 175 620 175 366 175 240 c 0
 175 204 176 178 178 163 c 0
 180 148 183 136 188 127 c 0
 199 107 215 92 235 82 c 0
 255 72 279 67 308 67 c 0
 337 67 362 72 382 82 c 0
 403 93 418 108 428 127 c 0
 433 137 436 148 438 162 c 0
 440 178 442 203 442 239 c 0
 442 408 442 619 442 746 c 1
 467 746 517 746 542 746 c 1
 542 631 542 401 542 286 c 0xf2
 542 242 541 208 538 184 c 0
 535 160 532 139 528 124 c 0
 519 92 504 65 480 44 c 0
 469 34 457 25 443 18 c 0
 429 11 416 5 403 0 c 0
 391 -4 377 -7 361 -10 c 0
EndSplineSet
EndChar

StartChar: "+AN0A"
Encoding: 221 221 159
Width: 616
Flags: W
HStem: 0 21G<257 358> 726 20G<18 149 467.5 598>
VStem: 257 101<0 372.191>
LayerCount: 2
Fore
SplineSet
238 794 m 1
 263 827 311 893 336 926 c 1
 359 926 406 926 429 926 c 1
 400 893 343 827 314 794 c 1
 295 794 257 794 238 794 c 1
257 0 m 1
 257 84 257 251 257 335 c 1
 197 438 78 643 18 746 c 1
 45 746 99 746 126 746 c 1
 172 664 262 499 308 417 c 1
 353 499 445 664 490 746 c 1
 517 746 571 746 598 746 c 1
 538 643 418 438 358 335 c 1
 358 251 358 84 358 0 c 1
 333 0 282 0 257 0 c 1
EndSplineSet
EndChar

StartChar: "+AN4A"
Encoding: 222 222 160
Width: 616
Flags: W
HStem: 0 21G<100 202> 184 82<202 418.71> 528 84<202 421.92> 726 20G<100 202>
VStem: 100 102<0 184 266 528 612 746> 476 106<317.624 477.233>
LayerCount: 2
Fore
SplineSet
100 0 m 1
 100 187 100 559 100 746 c 1
 125 746 177 746 202 746 c 1
 202 712 202 646 202 612 c 1
 234 612 296 612 328 612 c 0
 414 612 478 594 520 559 c 0
 561 524 582 470 582 397 c 0
 582 360 577 327 567 301 c 0
 557 275 540 253 520 236 c 0
 478 201 414 184 328 184 c 0
 286 184 234 184 202 184 c 1
 202 138 202 46 202 0 c 1
 177 0 125 0 100 0 c 1
202 266 m 1
 231 266 289 266 318 266 c 0
 370 266 410 277 437 299 c 0
 463 321 476 354 476 398 c 0
 476 419 472 437 466 454 c 0
 460 471 450 485 437 496 c 0
 425 506 410 514 390 520 c 0
 370 526 346 528 318 528 c 0
 279 528 231 528 202 528 c 1
 202 462 202 332 202 266 c 1
EndSplineSet
EndChar

StartChar: "+AN8A"
Encoding: 223 223 161
Width: 616
Flags: W
HStem: -15 76<251.257 446.721> 0 21G<94 187> 702 76<227.826 383.712>
VStem: 94 93<0 658.389> 264 89<387.101 503.792> 423 92<585.463 662.139> 481 93<93.6351 215.689>
LayerCount: 2
Fore
SplineSet
518 30 m 0x7a
 480 1 429 -15 365 -15 c 0
 341 -15 318 -13 296 -9 c 0
 288 -7 278 -5 266 -2 c 0
 254 1 241 5 229 10 c 1
 229 37 229 37 229 92 c 1
 253 82 277 74 301 69 c 0
 323 64 344 61 364 61 c 0
 400 61 428 69 449 85 c 0
 461 94 469 104 474 115 c 0
 479 126 481 140 481 155 c 0xba
 481 175 475 193 464 209 c 0
 456 221 446 231 433 241 c 0
 420 251 405 260 389 270 c 0
 378 276 377 277 355 290 c 0
 339 299 326 308 315 319 c 0
 304 330 294 341 287 352 c 0
 279 363 274 374 270 386 c 0
 266 398 264 411 264 426 c 0
 264 446 267 464 274 482 c 0
 281 500 290 517 304 531 c 0
 330 559 370 579 423 591 c 1
 422 627 412 654 392 673 c 0
 371 692 342 702 305 702 c 0
 265 702 235 691 216 669 c 0
 197 647 187 612 187 566 c 0
 187 377 187 142 187 0 c 1
 164 0 117 0 94 0 c 1
 94 142 94 426 94 568 c 0
 94 639 111 692 146 726 c 0
 181 760 235 778 305 778 c 0
 375 778 426 760 461 723 c 0
 496 686 514 632 515 560 c 1x7c
 464 556 423 543 395 522 c 0
 367 502 353 475 353 442 c 0
 353 426 358 410 367 397 c 0
 373 389 380 382 388 376 c 0
 396 370 404 363 414 356 c 0
 424 350 425 350 444 338 c 0
 470 321 492 307 508 293 c 0
 524 279 537 265 547 250 c 0
 565 222 574 190 574 153 c 0
 574 128 571 105 562 84 c 0
 553 63 538 46 518 30 c 0x7a
EndSplineSet
EndChar

StartChar: "+AOAA"
Encoding: 224 224 162
Width: 616
Flags: W
HStem: -14 77<198.298 359.566> 0 21G<466 561> 282 72<210.897 439> 496 78<176.515 394.681>
VStem: 68 92<100.373 236.687> 439 92<151.262 282 354 452.741>
LayerCount: 2
Fore
SplineSet
304 648 m 1x3c
 263 695 182 789 141 836 c 1
 166 836 215 836 240 836 c 1
 275 789 345 695 380 648 c 1
 361 648 323 648 304 648 c 1x3c
364 10 m 0
 333 -6 298 -14 257 -14 c 0xbc
 199 -14 152 2 119 34 c 0
 103 49 91 67 82 88 c 0
 73 109 68 135 68 164 c 0
 68 226 89 272 131 305 c 0
 172 337 234 354 315 354 c 0
 356 354 408 354 439 354 c 1
 439 358 439 364 439 368 c 0
 439 412 428 445 405 466 c 0
 383 486 347 496 298 496 c 0
 266 496 235 491 203 482 c 0
 170 473 139 460 109 443 c 1
 109 474 109 474 109 535 c 1
 123 540 139 546 156 551 c 0
 173 556 190 560 207 564 c 0
 237 570 268 574 299 574 c 0
 345 574 384 567 417 553 c 0
 432 546 447 537 461 527 c 0
 475 517 486 505 496 492 c 0
 503 482 509 473 513 462 c 0
 517 451 521 440 523 430 c 0
 528 406 531 370 531 320 c 0
 531 282 531 281 531 205 c 0
 532 186 532 169 532 154 c 0
 532 139 534 126 536 113 c 0
 538 99 539 86 541 74 c 0
 543 62 545 52 547 46 c 0
 549 36 552 25 555 16 c 0
 558 7 560 2 561 0 c 1
 530 0 530 0 468 0 c 1x7c
 464 10 460 25 455 44 c 0
 453 51 452 58 450 66 c 0
 448 74 448 80 447 85 c 1
 437 68 424 53 409 40 c 0
 394 27 379 18 364 10 c 0
226 70 m 0
 240 65 257 63 276 63 c 0
 326 63 366 81 395 116 c 0
 424 152 439 200 439 261 c 0
 439 268 439 277 439 282 c 1
 410 282 351 282 322 282 c 0
 269 282 229 273 201 254 c 0
 174 235 160 207 160 169 c 0
 160 136 171 110 191 91 c 0
 201 82 212 75 226 70 c 0
EndSplineSet
EndChar

StartChar: "+AOEA"
Encoding: 225 225 163
Width: 616
Flags: W
HStem: -14 77<198.298 359.566> 0 21G<466 561> 282 72<210.897 439> 496 78<176.515 394.681>
VStem: 68 92<100.373 236.687> 439 92<151.262 282 354 452.741>
LayerCount: 2
Fore
SplineSet
239 648 m 1x3c
 274 695 345 789 380 836 c 1
 405 836 453 836 478 836 c 1
 437 789 357 695 316 648 c 1
 297 648 258 648 239 648 c 1x3c
364 10 m 0
 333 -6 298 -14 257 -14 c 0xbc
 199 -14 152 2 119 34 c 0
 103 49 91 67 82 88 c 0
 73 109 68 135 68 164 c 0
 68 226 89 272 131 305 c 0
 172 337 234 354 315 354 c 0
 356 354 408 354 439 354 c 1
 439 358 439 364 439 368 c 0
 439 412 428 445 405 466 c 0
 383 486 347 496 298 496 c 0
 266 496 235 491 203 482 c 0
 170 473 139 460 109 443 c 1
 109 474 109 474 109 535 c 1
 123 540 139 546 156 551 c 0
 173 556 190 560 207 564 c 0
 237 570 268 574 299 574 c 0
 345 574 384 567 417 553 c 0
 432 546 447 537 461 527 c 0
 475 517 486 505 496 492 c 0
 503 482 509 473 513 462 c 0
 517 451 521 440 523 430 c 0
 528 406 531 370 531 320 c 0
 531 282 531 281 531 205 c 0
 532 186 532 169 532 154 c 0
 532 139 534 126 536 113 c 0
 538 99 539 86 541 74 c 0
 543 62 545 52 547 46 c 0
 549 36 552 25 555 16 c 0
 558 7 560 2 561 0 c 1
 530 0 530 0 468 0 c 1x7c
 464 10 460 25 455 44 c 0
 453 51 452 58 450 66 c 0
 448 74 448 80 447 85 c 1
 437 68 424 53 409 40 c 0
 394 27 379 18 364 10 c 0
226 70 m 0
 240 65 257 63 276 63 c 0
 326 63 366 81 395 116 c 0
 424 152 439 200 439 261 c 0
 439 268 439 277 439 282 c 1
 410 282 351 282 322 282 c 0
 269 282 229 273 201 254 c 0
 174 235 160 207 160 169 c 0
 160 136 171 110 191 91 c 0
 201 82 212 75 226 70 c 0
EndSplineSet
EndChar

StartChar: "+AOIA"
Encoding: 226 226 164
Width: 616
Flags: W
HStem: -14 77<198.298 359.566> 0 21G<466 561> 282 72<210.897 439> 496 78<176.515 394.681>
VStem: 68 92<100.373 236.687> 439 92<151.262 282 354 452.741>
LayerCount: 2
Fore
SplineSet
150 648 m 1x3c
 181 695 242 789 273 836 c 1
 291 836 328 836 346 836 c 1
 377 789 439 695 470 648 c 1
 453 648 417 648 400 648 c 1
 377 679 333 740 310 771 c 1
 288 740 242 679 220 648 c 1
 203 648 167 648 150 648 c 1x3c
364 10 m 0
 333 -6 298 -14 257 -14 c 0xbc
 199 -14 152 2 119 34 c 0
 103 49 91 67 82 88 c 0
 73 109 68 135 68 164 c 0
 68 226 89 272 131 305 c 0
 172 337 234 354 315 354 c 0
 356 354 408 354 439 354 c 1
 439 358 439 364 439 368 c 0
 439 412 428 445 405 466 c 0
 383 486 347 496 298 496 c 0
 266 496 235 491 203 482 c 0
 170 473 139 460 109 443 c 1
 109 474 109 474 109 535 c 1
 123 540 139 546 156 551 c 0
 173 556 190 560 207 564 c 0
 237 570 268 574 299 574 c 0
 345 574 384 567 417 553 c 0
 432 546 447 537 461 527 c 0
 475 517 486 505 496 492 c 0
 503 482 509 473 513 462 c 0
 517 451 521 440 523 430 c 0
 528 406 531 370 531 320 c 0
 531 282 531 281 531 205 c 0
 532 186 532 169 532 154 c 0
 532 139 534 126 536 113 c 0
 538 99 539 86 541 74 c 0
 543 62 545 52 547 46 c 0
 549 36 552 25 555 16 c 0
 558 7 560 2 561 0 c 1
 530 0 530 0 468 0 c 1x7c
 464 10 460 25 455 44 c 0
 453 51 452 58 450 66 c 0
 448 74 448 80 447 85 c 1
 437 68 424 53 409 40 c 0
 394 27 379 18 364 10 c 0
226 70 m 0
 240 65 257 63 276 63 c 0
 326 63 366 81 395 116 c 0
 424 152 439 200 439 261 c 0
 439 268 439 277 439 282 c 1
 410 282 351 282 322 282 c 0
 269 282 229 273 201 254 c 0
 174 235 160 207 160 169 c 0
 160 136 171 110 191 91 c 0
 201 82 212 75 226 70 c 0
EndSplineSet
EndChar

StartChar: "+AOMA"
Encoding: 227 227 165
Width: 616
Flags: W
HStem: -14 77<198.298 359.324> -0 21G<466 561> 282 72<210.897 439> 496 78<176.515 394.681> 670 63<337.505 402.305> 747 63<216.473 282.495>
VStem: 68 92<100.373 236.687> 145 62<670 727.432> 412 62<752.614 811> 439 92<151.262 282 354 452.741>
LayerCount: 2
Fore
SplineSet
207 670 m 1x3d80
 186 670 186 669 145 669 c 1
 145 713 154 748 171 773 c 0
 188 798 212 810 242 810 c 0
 255 810 267 808 278 803 c 0
 289 798 300 791 312 780 c 0
 322 771 322 770 341 752 c 0
 348 746 355 741 360 738 c 0
 365 735 369 733 374 733 c 0
 387 733 396 740 402 752 c 0
 408 765 412 784 412 811 c 1
 433 811 432 811 474 811 c 1
 474 767 465 732 448 707 c 0
 431 682 408 670 378 670 c 0
 365 670 353 672 342 677 c 0
 331 682 320 689 308 700 c 0
 298 709 298 710 279 728 c 0
 275 732 271 735 268 737 c 0
 265 739 262 741 260 742 c 0
 255 745 250 747 245 747 c 0
 232 747 223 740 217 728 c 0
 211 716 208 697 207 670 c 1x3d80
365 9 m 0
 334 -7 298 -14 257 -14 c 0
 199 -14 152 2 119 34 c 0
 103 49 91 67 82 88 c 0
 73 109 68 135 68 164 c 0xbe40
 68 226 89 272 131 305 c 0
 172 337 234 354 315 354 c 0
 356 354 408 354 439 354 c 1
 439 358 439 364 439 368 c 0
 439 412 428 445 405 466 c 0
 383 486 347 496 298 496 c 0
 266 496 235 491 203 482 c 0
 170 473 139 460 109 443 c 1
 109 474 109 474 109 535 c 1
 123 540 139 546 156 551 c 0
 173 556 190 560 207 564 c 0
 237 570 268 574 299 574 c 0
 345 574 384 567 417 553 c 0
 432 546 447 537 461 527 c 0
 475 517 486 505 496 492 c 0
 503 482 509 473 513 462 c 0
 517 451 521 440 523 430 c 0
 528 406 531 370 531 320 c 0
 531 282 531 281 531 205 c 0
 532 186 533 169 533 154 c 0
 533 139 534 126 536 113 c 0
 538 99 539 85 541 73 c 0
 543 61 545 52 547 46 c 0
 549 36 552 25 555 16 c 0
 558 7 560 2 561 -0 c 1
 530 0 530 0 468 -0 c 1x7d40
 464 10 460 24 455 43 c 0
 453 50 452 58 450 66 c 0
 448 74 448 80 447 85 c 1
 437 68 424 53 409 40 c 0
 394 27 380 17 365 9 c 0
226 70 m 0
 240 65 257 63 276 63 c 0
 326 63 366 81 395 116 c 0
 424 152 439 200 439 261 c 0
 439 268 439 277 439 282 c 1
 410 282 351 282 322 282 c 0
 269 282 229 273 201 254 c 0
 174 235 160 207 160 169 c 0
 160 136 171 110 191 91 c 0
 201 82 212 75 226 70 c 0
EndSplineSet
EndChar

StartChar: "+AOQA"
Encoding: 228 228 166
Width: 616
Flags: W
HStem: -14 77<198.298 359.566> 0 21G<466 561> 282 72<210.897 439> 496 78<176.515 394.681> 675 101<161 262 357 458>
VStem: 68 92<100.373 236.687> 161 101<675 776> 357 101<675 776> 439 92<151.262 282 354 452.741>
LayerCount: 2
Fore
SplineSet
248 675 m 0x3e
 224 675 224 675 176 675 c 0
 166 675 161 680 161 690 c 0
 161 714 161 714 161 761 c 0
 161 771 166 776 176 776 c 0
 200 776 200 776 248 776 c 0
 258 776 262 771 262 761 c 0
 262 737 262 737 262 690 c 0
 262 680 258 675 248 675 c 0x3e
443 675 m 0
 419 675 419 675 372 675 c 0
 362 675 357 680 357 690 c 0
 357 714 357 714 357 761 c 0
 357 771 362 776 372 776 c 0
 396 776 396 776 443 776 c 0
 453 776 458 771 458 761 c 0
 458 737 458 737 458 690 c 0x3f
 458 680 453 675 443 675 c 0
364 10 m 0
 333 -6 298 -14 257 -14 c 0xbe80
 199 -14 152 2 119 34 c 0
 103 49 91 67 82 88 c 0
 73 109 68 135 68 164 c 0
 68 226 89 272 131 305 c 0
 172 337 234 354 315 354 c 0
 356 354 408 354 439 354 c 1
 439 358 439 364 439 368 c 0
 439 412 428 445 405 466 c 0
 383 486 347 496 298 496 c 0
 266 496 235 491 203 482 c 0
 170 473 139 460 109 443 c 1
 109 474 109 474 109 535 c 1
 123 540 139 546 156 551 c 0
 173 556 190 560 207 564 c 0
 237 570 268 574 299 574 c 0
 345 574 384 567 417 553 c 0
 432 546 447 537 461 527 c 0
 475 517 486 505 496 492 c 0
 503 482 509 473 513 462 c 0
 517 451 521 440 523 430 c 0
 528 406 531 370 531 320 c 0
 531 282 531 281 531 205 c 0
 532 186 532 169 532 154 c 0
 532 139 534 126 536 113 c 0
 538 99 539 86 541 74 c 0
 543 62 545 52 547 46 c 0
 549 36 552 25 555 16 c 0
 558 7 560 2 561 0 c 1
 530 0 530 0 468 0 c 1x7e80
 464 10 460 25 455 44 c 0
 453 51 452 58 450 66 c 0
 448 74 448 80 447 85 c 1
 437 68 424 53 409 40 c 0
 394 27 379 18 364 10 c 0
226 70 m 0
 240 65 257 63 276 63 c 0
 326 63 366 81 395 116 c 0
 424 152 439 200 439 261 c 0
 439 268 439 277 439 282 c 1
 410 282 351 282 322 282 c 0
 269 282 229 273 201 254 c 0
 174 235 160 207 160 169 c 0
 160 136 171 110 191 91 c 0
 201 82 212 75 226 70 c 0
EndSplineSet
EndChar

StartChar: "+AOUA"
Encoding: 229 229 167
Width: 616
Flags: W
HStem: -14 77<198.298 359.324> 0 21G<466 561> 282 72<210.897 439> 496 78<176.515 394.681> 624 62<256.286 363.397> 838 61<256.07 363.585>
VStem: 68 92<100.373 236.687> 173 61<708.79 815.21> 386 61<708.415 815.585> 439 92<151.262 282 354 452.741>
LayerCount: 2
Fore
SplineSet
408 664 m 0x3f80
 381 637 349 624 310 624 c 0
 272 624 240 637 213 664 c 0
 186 691 173 724 173 762 c 0
 173 800 186 833 213 860 c 0
 239 886 272 899 310 899 c 0
 349 899 382 886 408 860 c 0
 434 834 447 801 447 762 c 0
 447 723 434 690 408 664 c 0x3f80
256 708 m 0
 271 693 289 686 310 686 c 0
 331 686 349 693 364 708 c 0
 379 723 386 741 386 762 c 0
 386 783 379 801 364 816 c 0
 349 831 331 838 309 838 c 0
 288 838 270 830 256 816 c 0
 241 801 234 783 234 762 c 0
 234 741 241 723 256 708 c 0
365 10 m 0
 334 -6 298 -14 257 -14 c 0xbf80
 199 -14 152 2 119 34 c 0
 103 49 91 67 82 88 c 0
 73 109 68 135 68 164 c 0
 68 226 89 272 131 305 c 0
 172 337 234 354 315 354 c 0
 356 354 408 354 439 354 c 1
 439 358 439 364 439 368 c 0
 439 412 428 445 405 466 c 0
 383 486 347 496 298 496 c 0
 266 496 235 491 203 482 c 0
 170 473 139 460 109 443 c 1
 109 474 109 474 109 535 c 1
 123 540 139 546 156 551 c 0
 173 556 190 560 207 564 c 0
 237 570 268 574 299 574 c 0
 345 574 384 567 417 553 c 0
 432 546 447 537 461 527 c 0
 475 517 486 505 496 492 c 0
 503 482 509 473 513 462 c 0
 517 451 521 440 523 430 c 0
 528 406 531 370 531 320 c 0
 531 282 531 281 531 205 c 0
 532 186 533 169 533 154 c 0
 533 139 534 126 536 113 c 0
 538 99 539 86 541 74 c 0
 543 62 545 52 547 46 c 0
 549 36 552 25 555 16 c 0
 558 7 560 2 561 0 c 1
 530 0 530 0 468 0 c 1x7f40
 464 10 460 25 455 44 c 0
 453 51 452 58 450 66 c 0
 448 74 448 80 447 85 c 1
 437 68 424 53 409 40 c 0
 394 27 380 18 365 10 c 0
226 70 m 0
 240 65 257 63 276 63 c 0
 326 63 366 81 395 116 c 0
 424 152 439 200 439 261 c 0
 439 268 439 277 439 282 c 1xbf40
 410 282 351 282 322 282 c 0
 269 282 229 273 201 254 c 0
 174 235 160 207 160 169 c 0
 160 136 171 110 191 91 c 0
 201 82 212 75 226 70 c 0
EndSplineSet
EndChar

StartChar: "+AOYA"
Encoding: 230 230 168
Width: 616
Flags: W
HStem: -14 77<127.397 245.379 390.162 553.781> 257 72<132.125 271 354 518> 497 77<88.4602 241.148 381.36 490.724>
VStem: 20 82<87.8578 227.825> 274 80<102.026 257 329 462.993> 518 82<329 468.418>
LayerCount: 2
Fore
SplineSet
262 6 m 0
 240 -7 212 -14 179 -14 c 0
 128 -14 88 0 61 29 c 0
 47 44 36 61 30 82 c 0
 24 103 20 126 20 152 c 0
 20 180 24 206 32 228 c 0
 40 250 52 268 70 284 c 0
 104 314 153 329 216 329 c 0
 236 329 259 329 274 329 c 1
 274 340 274 362 274 373 c 0
 274 413 266 444 250 465 c 0
 234 486 209 497 178 497 c 0
 158 497 138 493 117 486 c 0
 107 483 96 478 85 473 c 0
 74 468 63 463 53 456 c 1
 53 484 53 484 53 540 c 1
 66 546 78 551 90 555 c 0
 102 559 113 563 124 566 c 0
 145 571 167 574 188 574 c 0
 218 574 244 568 264 558 c 0
 285 547 301 531 313 510 c 1
 336 552 379 574 441 574 c 0
 499 574 540 554 564 515 c 0
 588 475 600 404 600 302 c 0
 600 287 600 268 600 257 c 1
 539 257 415 257 354 257 c 0
 354 254 354 252 354 249 c 0
 354 246 354 244 354 241 c 0
 354 240 354 238 354 236 c 0
 354 234 353 230 353 222 c 0
 353 189 356 163 360 144 c 0
 364 125 371 109 379 98 c 0
 388 85 399 77 413 71 c 0
 427 65 443 62 462 62 c 0
 487 62 510 66 532 75 c 0
 553 83 572 96 589 113 c 1
 589 84 589 84 589 27 c 1
 569 13 548 3 528 -4 c 0
 508 -11 485 -14 459 -14 c 0
 423 -14 393 -8 368 6 c 0
 343 20 325 40 314 66 c 1
 301 40 284 20 262 6 c 0
354 329 m 1
 395 329 477 329 518 329 c 1
 518 335 518 349 518 355 c 0
 518 381 516 403 513 421 c 0
 510 439 505 453 499 464 c 0
 493 474 485 482 475 488 c 0
 465 494 452 497 436 497 c 0
 407 497 386 486 373 463 c 0
 360 440 354 402 354 350 c 0
 354 343 354 334 354 329 c 1
125 87 m 0
 140 71 161 63 188 63 c 0
 219 63 241 74 253 96 c 0
 259 107 263 122 266 141 c 0
 269 160 271 187 271 221 c 0
 271 233 271 248 271 257 c 1
 265 257 253 257 247 257 c 0
 191 257 152 250 132 235 c 0
 112 219 102 193 102 157 c 0
 102 127 110 103 125 87 c 0
EndSplineSet
EndChar

StartChar: "+AOcA"
Encoding: 231 231 169
Width: 616
Flags: W
HStem: -198 62<234.869 366.108> 496 78<267.349 458.003>
VStem: 82 97<160.018 399.927> 372 69<-128.596 -41.4779>
LayerCount: 2
Fore
SplineSet
442 481 m 0
 417 491 389 496 359 496 c 0
 301 496 257 477 226 440 c 0
 195 402 179 349 179 280 c 0
 179 248 183 218 190 191 c 0
 197 164 209 140 226 120 c 0
 258 82 303 63 361 63 c 0
 378 63 392 64 406 67 c 0
 420 70 433 73 445 78 c 0
 460 84 472 90 483 98 c 0
 494 106 505 114 515 124 c 1
 515 92 515 92 515 28 c 1
 504 21 491 16 478 10 c 0
 465 4 452 0 439 -4 c 0
 432 -6 426 -7 419 -9 c 0
 412 -11 405 -11 397 -12 c 1
 410 -27 420 -43 428 -58 c 0
 432 -66 435 -74 437 -82 c 0
 439 -90 441 -100 441 -110 c 0
 441 -138 431 -160 411 -175 c 0
 401 -182 390 -188 375 -192 c 0
 360 -196 343 -198 322 -198 c 0
 308 -198 293 -196 278 -194 c 0
 263 -192 248 -190 234 -186 c 1
 234 -164 234 -164 234 -120 c 1
 257 -131 283 -136 310 -136 c 0
 351 -136 372 -121 372 -90 c 0
 372 -79 368 -66 361 -52 c 0
 358 -47 355 -41 351 -35 c 0
 347 -29 342 -21 337 -14 c 1
 260 -10 200 16 155 64 c 0
 106 116 82 188 82 280 c 0
 82 328 88 369 101 405 c 0
 114 441 133 471 156 496 c 0
 205 548 271 574 356 574 c 0
 386 574 414 570 438 563 c 0
 462 556 488 545 515 530 c 1
 515 498 515 498 515 434 c 1
 490 456 465 472 442 481 c 0
EndSplineSet
EndChar

StartChar: "+AOgA"
Encoding: 232 232 170
Width: 616
Flags: W
HStem: -14 78<242.257 458.48> 258 72<162 465> 496 78<239.828 403.523>
VStem: 62 96<151.451 258 330 401.309> 465 92<330 428.58>
LayerCount: 2
Fore
SplineSet
310 648 m 1
 269 695 188 789 147 836 c 1
 172 836 221 836 246 836 c 1
 281 789 351 695 386 648 c 1
 367 648 329 648 310 648 c 1
386 -12 m 0
 370 -14 355 -14 339 -14 c 0
 253 -14 185 12 136 64 c 0
 87 116 62 188 62 279 c 0
 62 326 68 367 81 403 c 0
 94 439 112 469 134 494 c 0
 158 521 186 541 219 554 c 0
 252 567 287 574 325 574 c 0
 398 574 454 550 495 502 c 0
 536 454 557 388 557 303 c 0
 557 288 557 269 557 258 c 1
 457 258 258 258 158 258 c 1
 158 257 158 256 158 255 c 0
 158 194 174 148 206 114 c 0
 221 98 240 85 262 76 c 0
 284 67 310 64 340 64 c 0
 371 64 401 69 432 78 c 0
 448 83 465 88 482 95 c 0
 499 102 517 111 535 120 c 1
 535 90 535 90 535 29 c 1
 517 22 500 15 482 9 c 0
 464 3 448 -1 434 -4 c 0
 418 -8 402 -10 386 -12 c 0
162 330 m 1
 263 330 263 330 465 330 c 1
 464 359 460 384 453 404 c 0
 446 424 438 441 427 454 c 0
 403 482 368 496 323 496 c 0
 278 496 241 481 213 452 c 0
 185 423 168 382 162 330 c 1
EndSplineSet
EndChar

StartChar: "+AOkA"
Encoding: 233 233 171
Width: 616
Flags: W
HStem: -14 78<242.257 458.48> 258 72<162 465> 496 78<239.828 403.523>
VStem: 62 96<151.451 258 330 401.309> 465 92<330 428.58>
LayerCount: 2
Fore
SplineSet
245 648 m 1
 280 695 351 789 386 836 c 1
 411 836 459 836 484 836 c 1
 443 789 363 695 322 648 c 1
 303 648 264 648 245 648 c 1
386 -12 m 0
 370 -14 355 -14 339 -14 c 0
 253 -14 185 12 136 64 c 0
 87 116 62 188 62 279 c 0
 62 326 68 367 81 403 c 0
 94 439 112 469 134 494 c 0
 158 521 186 541 219 554 c 0
 252 567 287 574 325 574 c 0
 398 574 454 550 495 502 c 0
 536 454 557 388 557 303 c 0
 557 288 557 269 557 258 c 1
 457 258 258 258 158 258 c 1
 158 257 158 256 158 255 c 0
 158 194 174 148 206 114 c 0
 221 98 240 85 262 76 c 0
 284 67 310 64 340 64 c 0
 371 64 401 69 432 78 c 0
 448 83 465 88 482 95 c 0
 499 102 517 111 535 120 c 1
 535 90 535 90 535 29 c 1
 517 22 500 15 482 9 c 0
 464 3 448 -1 434 -4 c 0
 418 -8 402 -10 386 -12 c 0
162 330 m 1
 263 330 263 330 465 330 c 1
 464 359 460 384 453 404 c 0
 446 424 438 441 427 454 c 0
 403 482 368 496 323 496 c 0
 278 496 241 481 213 452 c 0
 185 423 168 382 162 330 c 1
EndSplineSet
EndChar

StartChar: "+AOoA"
Encoding: 234 234 172
Width: 616
Flags: W
HStem: -14 78<242.257 458.48> 258 72<162 465> 496 78<239.828 403.523>
VStem: 62 96<151.451 258 330 401.309> 465 92<330 428.58>
LayerCount: 2
Fore
SplineSet
156 648 m 1
 187 695 248 789 279 836 c 1
 297 836 334 836 352 836 c 1
 383 789 445 695 476 648 c 1
 459 648 423 648 406 648 c 1
 383 679 339 740 316 771 c 1
 294 740 248 679 226 648 c 1
 209 648 173 648 156 648 c 1
386 -12 m 0
 370 -14 355 -14 339 -14 c 0
 253 -14 185 12 136 64 c 0
 87 116 62 188 62 279 c 0
 62 326 68 367 81 403 c 0
 94 439 112 469 134 494 c 0
 158 521 186 541 219 554 c 0
 252 567 287 574 325 574 c 0
 398 574 454 550 495 502 c 0
 536 454 557 388 557 303 c 0
 557 288 557 269 557 258 c 1
 457 258 258 258 158 258 c 1
 158 257 158 256 158 255 c 0
 158 194 174 148 206 114 c 0
 221 98 240 85 262 76 c 0
 284 67 310 64 340 64 c 0
 371 64 401 69 432 78 c 0
 448 83 465 88 482 95 c 0
 499 102 517 111 535 120 c 1
 535 90 535 90 535 29 c 1
 517 22 500 15 482 9 c 0
 464 3 448 -1 434 -4 c 0
 418 -8 402 -10 386 -12 c 0
162 330 m 1
 263 330 263 330 465 330 c 1
 464 359 460 384 453 404 c 0
 446 424 438 441 427 454 c 0
 403 482 368 496 323 496 c 0
 278 496 241 481 213 452 c 0
 185 423 168 382 162 330 c 1
EndSplineSet
EndChar

StartChar: "+AOsA"
Encoding: 235 235 173
Width: 616
Flags: W
HStem: -14 78<242.257 458.48> 258 72<162 465> 496 78<239.828 403.523> 675 101<167 268 363 464>
VStem: 62 96<151.451 258 330 401.309> 167 101<675 776> 363 101<675 776> 465 92<330 428.58>
LayerCount: 2
Fore
SplineSet
254 675 m 0
 230 675 230 675 182 675 c 0
 172 675 167 680 167 690 c 0
 167 714 167 714 167 761 c 0
 167 771 172 776 182 776 c 0
 206 776 206 776 254 776 c 0
 264 776 268 771 268 761 c 0
 268 737 268 737 268 690 c 0
 268 680 264 675 254 675 c 0
449 675 m 0
 425 675 425 675 378 675 c 0
 368 675 363 680 363 690 c 0
 363 714 363 714 363 761 c 0
 363 771 368 776 378 776 c 0
 402 776 402 776 449 776 c 0
 459 776 464 771 464 761 c 0
 464 737 464 737 464 690 c 0
 464 680 459 675 449 675 c 0
386 -12 m 0
 370 -14 355 -14 339 -14 c 0
 253 -14 185 12 136 64 c 0
 87 116 62 188 62 279 c 0
 62 326 68 367 81 403 c 0
 94 439 112 469 134 494 c 0
 158 521 186 541 219 554 c 0
 252 567 287 574 325 574 c 0
 398 574 454 550 495 502 c 0
 536 454 557 388 557 303 c 0
 557 288 557 269 557 258 c 1
 457 258 258 258 158 258 c 1
 158 257 158 256 158 255 c 0
 158 194 174 148 206 114 c 0
 221 98 240 85 262 76 c 0
 284 67 310 64 340 64 c 0
 371 64 401 69 432 78 c 0
 448 83 465 88 482 95 c 0
 499 102 517 111 535 120 c 1
 535 90 535 90 535 29 c 1
 517 22 500 15 482 9 c 0
 464 3 448 -1 434 -4 c 0
 418 -8 402 -10 386 -12 c 0
162 330 m 1
 263 330 263 330 465 330 c 1
 464 359 460 384 453 404 c 0
 446 424 438 441 427 454 c 0
 403 482 368 496 323 496 c 0
 278 496 241 481 213 452 c 0
 185 423 168 382 162 330 c 1
EndSplineSet
EndChar

StartChar: "+AOwA"
Encoding: 236 236 174
Width: 616
Flags: W
HStem: -4 78<380.72 546> 488 72<134 257>
VStem: 257 92<108.106 488>
LayerCount: 2
Fore
SplineSet
272 636 m 1
 231 683 150 777 109 824 c 1
 134 824 183 824 208 824 c 1
 243 777 313 683 348 636 c 1
 329 636 291 636 272 636 c 1
546 -4 m 1
 517 -4 459 -4 430 -4 c 0
 403 -4 379 0 358 8 c 0
 337 16 318 30 302 49 c 0
 272 84 257 134 257 199 c 0
 257 295 257 416 257 488 c 1
 226 488 165 488 134 488 c 1
 134 506 134 542 134 560 c 1
 188 560 295 560 349 560 c 1
 349 470 349 289 349 199 c 0
 349 157 357 126 372 106 c 0
 387 85 409 74 438 74 c 0
 474 74 519 74 546 74 c 1
 546 54 546 16 546 -4 c 1
EndSplineSet
EndChar

StartChar: "+AO0A"
Encoding: 237 237 175
Width: 616
Flags: W
HStem: -4 78<380.72 546> 488 72<134 257>
VStem: 257 92<108.106 488>
LayerCount: 2
Fore
SplineSet
256 636 m 1
 291 683 362 777 397 824 c 1
 422 824 471 824 496 824 c 1
 455 777 375 683 334 636 c 1
 315 636 275 636 256 636 c 1
546 -4 m 1
 517 -4 459 -4 430 -4 c 0
 403 -4 379 0 358 8 c 0
 337 16 318 30 302 49 c 0
 272 84 257 134 257 199 c 0
 257 295 257 416 257 488 c 1
 226 488 165 488 134 488 c 1
 134 506 134 542 134 560 c 1
 188 560 295 560 349 560 c 1
 349 470 349 289 349 199 c 0
 349 157 357 126 372 106 c 0
 387 85 409 74 438 74 c 0
 474 74 519 74 546 74 c 1
 546 54 546 16 546 -4 c 1
EndSplineSet
EndChar

StartChar: "+AO4A"
Encoding: 238 238 176
Width: 616
Flags: W
HStem: -4 78<380.72 546> 488 72<134 257>
VStem: 257 92<108.106 488>
LayerCount: 2
Fore
SplineSet
134 636 m 1
 165 683 226 777 257 824 c 1
 275 824 312 824 330 824 c 1
 361 777 423 683 454 636 c 1
 437 636 401 636 384 636 c 1
 361 667 317 727 294 758 c 1
 272 727 226 667 204 636 c 1
 187 636 151 636 134 636 c 1
546 -4 m 1
 517 -4 459 -4 430 -4 c 0
 403 -4 379 0 358 8 c 0
 337 16 318 30 302 49 c 0
 272 84 257 134 257 199 c 0
 257 295 257 416 257 488 c 1
 226 488 165 488 134 488 c 1
 134 506 134 542 134 560 c 1
 188 560 295 560 349 560 c 1
 349 470 349 289 349 199 c 0
 349 157 357 126 372 106 c 0
 387 85 409 74 438 74 c 0
 474 74 519 74 546 74 c 1
 546 54 546 16 546 -4 c 1
EndSplineSet
EndChar

StartChar: "+AO8A"
Encoding: 239 239 177
Width: 616
Flags: W
HStem: -4 78<380.72 546> 488 72<134 257> 675 101<149 250 345 446>
VStem: 149 101<675 776> 257 92<108.106 488> 345 101<675 776>
LayerCount: 2
Fore
SplineSet
236 675 m 0xf0
 212 675 212 675 164 675 c 0
 154 675 149 680 149 690 c 0
 149 714 149 714 149 761 c 0
 149 771 154 776 164 776 c 0
 188 776 188 776 236 776 c 0
 246 776 250 771 250 761 c 0
 250 737 250 737 250 690 c 0
 250 680 246 675 236 675 c 0xf0
431 675 m 0
 407 675 407 675 360 675 c 0
 350 675 345 680 345 690 c 0
 345 714 345 714 345 761 c 0
 345 771 350 776 360 776 c 0
 384 776 384 776 431 776 c 0
 441 776 446 771 446 761 c 0
 446 737 446 737 446 690 c 0xf4
 446 680 441 675 431 675 c 0
546 -4 m 1
 517 -4 459 -4 430 -4 c 0
 403 -4 379 0 358 8 c 0
 337 16 318 30 302 49 c 0
 272 84 257 134 257 199 c 0
 257 295 257 416 257 488 c 1
 226 488 165 488 134 488 c 1
 134 506 134 542 134 560 c 1
 188 560 295 560 349 560 c 1
 349 470 349 289 349 199 c 0xf8
 349 157 357 126 372 106 c 0
 387 85 409 74 438 74 c 0
 474 74 519 74 546 74 c 1
 546 54 546 16 546 -4 c 1
EndSplineSet
EndChar

StartChar: "+APAA"
Encoding: 240 240 178
Width: 616
Flags: W
HStem: -14 78<232.149 382.812> 472 76<237.568 348> 733 20G<449 469>
VStem: 68 98<142.014 391.103> 450 98<143.794 398.071>
LayerCount: 2
Fore
SplineSet
409 4 m 0
 379 -8 345 -14 308 -14 c 0
 232 -14 173 11 131 60 c 0
 89 110 68 178 68 266 c 0
 68 355 89 425 130 474 c 0
 171 523 233 548 315 548 c 0
 321 548 325 548 327 548 c 0
 329 548 330 548 331 548 c 0
 338 547 342 547 341 547 c 0
 340 547 343 547 348 546 c 1
 346 549 341 555 334 565 c 0
 327 575 320 583 314 591 c 0
 308 599 301 606 295 613 c 0
 289 620 282 628 276 635 c 1
 230 620 172 601 137 589 c 1
 133 601 126 626 122 638 c 1
 152 648 210 668 240 678 c 1
 217 703 173 753 150 778 c 1
 177 778 232 778 259 778 c 1
 275 760 306 724 322 706 c 1
 358 718 431 741 467 753 c 1
 471 741 480 716 484 704 c 1
 453 694 389 674 358 664 c 1
 424 594 472 527 502 463 c 0
 517 431 529 398 537 366 c 0
 545 334 548 300 548 264 c 0
 548 177 528 110 486 60 c 0
 465 35 439 16 409 4 c 0
203 116 m 0
 227 81 262 64 308 64 c 0
 354 64 389 82 413 117 c 0
 438 153 450 203 450 266 c 0
 450 304 446 340 436 374 c 0
 426 408 412 436 396 459 c 0
 390 461 385 463 377 465 c 0
 369 467 363 468 358 469 c 0
 344 471 332 472 319 472 c 0
 269 472 231 455 205 420 c 0
 179 385 166 334 166 267 c 0
 166 202 178 152 203 116 c 0
EndSplineSet
EndChar

StartChar: "+APEA"
Encoding: 241 241 179
Width: 616
Flags: W
HStem: -0 21G<98 190 433 526> 493 80<261.047 394.621> 540 20G<98 181> 643 63<336.423 401.527> 720 64<215.695 281.281>
VStem: 98 92<0 427.887> 98 82<477 560> 144 62<643 701.432> 410 63<725.614 784> 433 93<0 451.491>
LayerCount: 2
Fore
SplineSet
206 643 m 1x9980
 185 643 185 643 144 643 c 1
 144 687 153 722 170 747 c 0
 187 772 210 784 240 784 c 0
 253 784 265 782 276 777 c 0
 287 772 299 764 311 753 c 0
 321 744 320 744 339 726 c 0
 346 720 353 715 358 712 c 0
 363 709 368 706 373 706 c 0
 386 706 395 713 401 725 c 0
 407 738 410 757 410 784 c 1
 431 784 431 784 473 784 c 1
 473 740 464 705 447 680 c 0
 430 655 406 643 376 643 c 0
 363 643 351 645 340 650 c 0
 329 655 318 663 306 674 c 0
 296 683 297 683 278 701 c 0
 274 705 269 709 266 711 c 0
 263 713 260 715 258 716 c 0
 253 719 249 720 244 720 c 0
 231 720 222 714 216 702 c 0
 210 690 207 670 206 643 c 1x9980
98 -0 m 1xdc40
 98 140 98 420 98 560 c 1
 119 560 159 560 180 560 c 1xba
 182 539 188 497 190 476 c 1
 224 541 278 573 355 573 c 0
 385 573 411 569 432 559 c 0
 453 549 470 535 484 517 c 0
 512 479 526 423 526 347 c 0
 526 231 526 87 526 -0 c 1
 503 0 456 0 433 -0 c 1
 433 87 433 260 433 347 c 0
 433 397 425 434 407 458 c 0
 389 482 361 493 323 493 c 0
 280 493 248 478 225 448 c 0
 202 418 190 373 190 316 c 0
 190 210 190 79 190 -0 c 1
 167 0 121 0 98 -0 c 1xdc40
EndSplineSet
EndChar

StartChar: "+APIA"
Encoding: 242 242 180
Width: 616
Flags: W
HStem: -15 78<233.442 383.118> 495 78<233.22 382.78>
VStem: 68 98<143.619 414.914> 450 98<144.689 414.746>
LayerCount: 2
Fore
SplineSet
302 648 m 1
 261 695 181 789 140 836 c 1
 165 836 213 836 238 836 c 1
 273 789 344 695 379 648 c 1
 360 648 321 648 302 648 c 1
486 60 m 0
 446 10 387 -15 308 -15 c 0
 231 -15 171 10 130 60 c 0
 109 86 94 118 84 155 c 0
 74 192 68 233 68 280 c 0
 68 375 89 447 130 498 c 0
 171 548 230 573 308 573 c 0
 386 573 445 548 486 498 c 0
 527 447 548 374 548 280 c 0
 548 183 527 109 486 60 c 0
202 118 m 0
 226 81 261 63 308 63 c 0
 355 63 390 81 414 118 c 0
 438 154 450 208 450 279 c 0
 450 350 438 404 414 441 c 0
 390 477 355 495 308 495 c 0
 261 495 226 477 202 441 c 0
 178 404 166 350 166 279 c 0
 166 208 178 154 202 118 c 0
EndSplineSet
EndChar

StartChar: "+APMA"
Encoding: 243 243 181
Width: 616
Flags: W
HStem: -15 78<233.442 383.118> 495 78<233.22 382.78>
VStem: 68 98<143.619 414.914> 450 98<144.689 414.746>
LayerCount: 2
Fore
SplineSet
238 648 m 1
 273 695 343 789 378 836 c 1
 403 836 452 836 477 836 c 1
 436 789 355 695 314 648 c 1
 295 648 257 648 238 648 c 1
486 60 m 0
 446 10 387 -15 308 -15 c 0
 231 -15 171 10 130 60 c 0
 109 86 94 118 84 155 c 0
 74 192 68 233 68 280 c 0
 68 375 89 447 130 498 c 0
 171 548 230 573 308 573 c 0
 386 573 445 548 486 498 c 0
 527 447 548 374 548 280 c 0
 548 183 527 109 486 60 c 0
202 118 m 0
 226 81 261 63 308 63 c 0
 355 63 390 81 414 118 c 0
 438 154 450 208 450 279 c 0
 450 350 438 404 414 441 c 0
 390 477 355 495 308 495 c 0
 261 495 226 477 202 441 c 0
 178 404 166 350 166 279 c 0
 166 208 178 154 202 118 c 0
EndSplineSet
EndChar

StartChar: "+APQA"
Encoding: 244 244 182
Width: 616
Flags: W
HStem: -15 78<233.442 383.118> 495 78<233.22 382.78>
VStem: 68 98<143.619 414.914> 450 98<144.689 414.746>
LayerCount: 2
Fore
SplineSet
148 648 m 1
 179 695 241 789 272 836 c 1
 290 836 327 836 345 836 c 1
 376 789 437 695 468 648 c 1
 451 648 415 648 398 648 c 1
 375 679 331 740 308 771 c 1
 286 740 240 679 218 648 c 1
 201 648 165 648 148 648 c 1
486 60 m 0
 446 10 387 -15 308 -15 c 0
 231 -15 171 10 130 60 c 0
 109 86 94 118 84 155 c 0
 74 192 68 233 68 280 c 0
 68 375 89 447 130 498 c 0
 171 548 230 573 308 573 c 0
 386 573 445 548 486 498 c 0
 527 447 548 374 548 280 c 0
 548 183 527 109 486 60 c 0
202 118 m 0
 226 81 261 63 308 63 c 0
 355 63 390 81 414 118 c 0
 438 154 450 208 450 279 c 0
 450 350 438 404 414 441 c 0
 390 477 355 495 308 495 c 0
 261 495 226 477 202 441 c 0
 178 404 166 350 166 279 c 0
 166 208 178 154 202 118 c 0
EndSplineSet
EndChar

StartChar: "+APUA"
Encoding: 245 245 183
Width: 616
Flags: W
HStem: -15 78<233.442 383.255> 495 78<233.22 382.916> 643 63<336.423 401.527> 720 64<215.695 281.281>
VStem: 69 97<143.619 414.914> 144 62<643 701.432> 410 63<725.614 784> 450 98<144.689 414.746>
LayerCount: 2
Fore
SplineSet
206 643 m 1xf6
 185 643 185 643 144 643 c 1
 144 687 153 722 170 747 c 0
 187 772 210 784 240 784 c 0
 253 784 265 782 276 777 c 0
 287 772 299 764 311 753 c 0
 321 744 320 744 339 726 c 0
 346 720 353 715 358 712 c 0
 363 709 368 706 373 706 c 0
 386 706 395 713 401 725 c 0
 407 738 410 757 410 784 c 1
 431 784 431 784 473 784 c 1
 473 740 464 705 447 680 c 0
 430 655 406 643 376 643 c 0
 363 643 351 645 340 650 c 0
 329 655 318 663 306 674 c 0
 296 683 297 683 278 701 c 0
 274 705 269 709 266 711 c 0
 263 713 260 715 258 716 c 0
 253 719 249 720 244 720 c 0
 231 720 222 714 216 702 c 0
 210 690 207 670 206 643 c 1xf6
487 60 m 0
 447 10 387 -15 308 -15 c 0
 231 -15 171 10 130 60 c 0
 109 86 94 118 84 155 c 0
 74 192 69 233 69 280 c 0
 69 375 89 447 130 498 c 0
 171 548 230 573 308 573 c 0
 386 573 446 548 487 498 c 0
 528 447 548 374 548 280 c 0xf9
 548 183 528 109 487 60 c 0
202 118 m 0
 226 81 261 63 308 63 c 0
 355 63 390 81 414 118 c 0
 438 154 450 208 450 279 c 0
 450 350 438 404 414 441 c 0
 390 477 355 495 308 495 c 0
 261 495 226 477 202 441 c 0
 178 404 166 350 166 279 c 0
 166 208 178 154 202 118 c 0
EndSplineSet
EndChar

StartChar: "+APYA"
Encoding: 246 246 184
Width: 616
Flags: W
HStem: -15 78<233.442 383.118> 495 78<233.22 382.78> 675 101<160 261 356 456>
VStem: 68 98<143.619 414.914> 160 101<675 776> 356 100<675 776> 450 98<144.689 414.746>
LayerCount: 2
Fore
SplineSet
246 675 m 0xe8
 222 675 222 675 174 675 c 0
 164 675 160 680 160 690 c 0
 160 714 160 714 160 761 c 0
 160 771 164 776 174 776 c 0
 198 776 198 776 246 776 c 0
 256 776 261 771 261 761 c 0
 261 737 261 737 261 690 c 0
 261 680 256 675 246 675 c 0xe8
442 675 m 0
 418 675 417 675 370 675 c 0
 360 675 356 680 356 690 c 0
 356 714 356 714 356 761 c 0
 356 771 360 776 370 776 c 0
 394 776 395 776 442 776 c 0
 452 776 456 771 456 761 c 0
 456 737 456 737 456 690 c 0xe4
 456 680 452 675 442 675 c 0
486 60 m 0
 446 10 387 -15 308 -15 c 0
 231 -15 171 10 130 60 c 0
 109 86 94 118 84 155 c 0
 74 192 68 233 68 280 c 0
 68 375 89 447 130 498 c 0
 171 548 230 573 308 573 c 0
 386 573 445 548 486 498 c 0
 527 447 548 374 548 280 c 0xf2
 548 183 527 109 486 60 c 0
202 118 m 0
 226 81 261 63 308 63 c 0
 355 63 390 81 414 118 c 0
 438 154 450 208 450 279 c 0
 450 350 438 404 414 441 c 0
 390 477 355 495 308 495 c 0
 261 495 226 477 202 441 c 0
 178 404 166 350 166 279 c 0
 166 208 178 154 202 118 c 0
EndSplineSet
EndChar

StartChar: "+APcA"
Encoding: 247 247 185
Width: 616
Flags: W
HStem: 75 123<247 370> 278 86<44 572> 444 124<247 370>
VStem: 247 123<75 198 444 568>
LayerCount: 2
Fore
SplineSet
354 444 m 0
 323 444 324 444 262 444 c 0
 252 444 247 450 247 460 c 0
 247 491 247 490 247 552 c 0
 247 562 252 568 262 568 c 0
 293 568 292 568 354 568 c 0
 364 568 370 562 370 552 c 0
 370 521 370 522 370 460 c 0
 370 450 364 444 354 444 c 0
44 278 m 1
 44 299 44 343 44 364 c 1
 176 364 440 364 572 364 c 1
 572 343 572 299 572 278 c 1
 440 278 176 278 44 278 c 1
354 75 m 0
 323 75 324 75 262 75 c 0
 252 75 247 80 247 90 c 0
 247 121 247 120 247 182 c 0
 247 192 252 198 262 198 c 0
 293 198 292 198 354 198 c 0
 364 198 370 192 370 182 c 0
 370 151 370 152 370 90 c 0
 370 80 364 75 354 75 c 0
EndSplineSet
EndChar

StartChar: "+APgA"
Encoding: 248 248 186
Width: 616
Flags: W
HStem: -15 79<232.062 382.016> 495 79<232.269 385.519>
VStem: 69 95<170.681 413.119> 451 97<145.123 389.214>
LayerCount: 2
Fore
SplineSet
70 -48 m 1
 58 -38 36 -20 24 -10 c 1
 45 15 88 65 109 90 c 1
 101 104 95 118 91 131 c 0
 87 144 82 158 79 174 c 0
 72 206 69 242 69 280 c 0
 69 375 89 447 130 498 c 0
 171 548 231 574 308 574 c 0
 324 574 339 572 355 570 c 0
 371 568 385 565 398 560 c 0
 410 556 422 550 434 543 c 0
 446 536 457 528 467 518 c 1
 491 547 523 584 541 606 c 1
 553 596 575 577 587 567 c 1
 567 543 525 494 505 470 c 1
 519 448 530 421 537 389 c 0
 544 357 548 321 548 280 c 0
 548 183 528 109 487 60 c 0
 446 10 386 -15 308 -15 c 0
 290 -15 272 -14 258 -11 c 0
 244 -8 231 -5 218 0 c 0
 191 10 169 25 150 45 c 1
 123 14 90 -25 70 -48 c 1
178 170 m 1
 255 263 255 262 409 448 c 1
 398 464 384 476 367 484 c 0
 350 492 330 495 308 495 c 0
 262 495 227 478 202 442 c 0
 190 425 180 403 174 378 c 0
 168 353 164 323 164 289 c 0
 164 271 166 252 168 234 c 0
 170 214 173 193 178 170 c 1
277 67 m 0
 286 65 296 64 308 64 c 0
 355 64 391 82 415 119 c 0
 439 155 451 208 451 278 c 0
 451 297 450 316 448 334 c 0
 447 341 446 349 445 358 c 0
 444 367 442 378 439 390 c 1
 362 297 361 297 207 111 c 1
 214 102 221 94 228 89 c 0
 235 84 243 80 251 76 c 0
 259 72 268 69 277 67 c 0
EndSplineSet
EndChar

StartChar: "+APkA"
Encoding: 249 249 187
Width: 616
Flags: W
HStem: -14 80<228.85 362.671> 0 21G<441 526> 539 20G<97 189 433 526>
VStem: 97 92<109.729 559> 433 93<131.899 559> 442 84<0 83.0004>
LayerCount: 2
Fore
SplineSet
302 634 m 1x30
 261 681 181 775 140 822 c 1
 165 822 213 822 238 822 c 1
 273 775 344 681 379 634 c 1
 360 634 321 634 302 634 c 1x30
366 10 m 0
 337 -7 305 -14 267 -14 c 0
 210 -14 167 4 139 42 c 0
 111 79 97 136 97 212 c 0
 97 328 97 472 97 559 c 1
 120 559 166 559 189 559 c 1
 189 472 189 299 189 212 c 0
 189 161 198 124 216 101 c 0
 225 90 236 81 249 75 c 0
 262 69 279 66 299 66 c 0
 342 66 375 81 398 112 c 0
 421 142 433 185 433 242 c 0
 433 348 433 480 433 559 c 1
 456 559 503 559 526 559 c 1xb8
 526 419 526 140 526 0 c 1
 505 0 463 0 442 0 c 1x74
 440 21 435 63 433 84 c 1x78
 417 52 394 27 366 10 c 0
EndSplineSet
EndChar

StartChar: "+APoA"
Encoding: 250 250 188
Width: 616
Flags: W
HStem: -14 80<228.85 362.671> 0 21G<441 526> 539 20G<97 189 433 526>
VStem: 97 92<109.729 559> 433 93<131.899 559> 442 84<0 83.0004>
LayerCount: 2
Fore
SplineSet
238 634 m 1x30
 273 681 343 775 378 822 c 1
 403 822 452 822 477 822 c 1
 436 775 355 681 314 634 c 1
 295 634 257 634 238 634 c 1x30
366 10 m 0
 337 -7 305 -14 267 -14 c 0
 210 -14 167 4 139 42 c 0
 111 79 97 136 97 212 c 0
 97 328 97 472 97 559 c 1
 120 559 166 559 189 559 c 1
 189 472 189 299 189 212 c 0
 189 161 198 124 216 101 c 0
 225 90 236 81 249 75 c 0
 262 69 279 66 299 66 c 0
 342 66 375 81 398 112 c 0
 421 142 433 185 433 242 c 0
 433 348 433 480 433 559 c 1
 456 559 503 559 526 559 c 1xb8
 526 419 526 140 526 0 c 1
 505 0 463 0 442 0 c 1x74
 440 21 435 63 433 84 c 1x78
 417 52 394 27 366 10 c 0
EndSplineSet
EndChar

StartChar: "+APsA"
Encoding: 251 251 189
Width: 616
Flags: W
HStem: -14 80<228.85 362.671> 0 21G<441 526> 539 20G<97 189 433 526>
VStem: 97 92<109.729 559> 433 93<131.899 559> 442 84<0 83.0004>
LayerCount: 2
Fore
SplineSet
148 634 m 1x30
 179 681 241 775 272 822 c 1
 290 822 327 822 345 822 c 1
 376 775 437 681 468 634 c 1
 451 634 415 634 398 634 c 1
 375 665 331 725 308 756 c 1
 286 725 240 665 218 634 c 1
 201 634 165 634 148 634 c 1x30
366 10 m 0
 337 -7 305 -14 267 -14 c 0
 210 -14 167 4 139 42 c 0
 111 79 97 136 97 212 c 0
 97 328 97 472 97 559 c 1
 120 559 166 559 189 559 c 1
 189 472 189 299 189 212 c 0
 189 161 198 124 216 101 c 0
 225 90 236 81 249 75 c 0
 262 69 279 66 299 66 c 0
 342 66 375 81 398 112 c 0
 421 142 433 185 433 242 c 0
 433 348 433 480 433 559 c 1
 456 559 503 559 526 559 c 1xb8
 526 419 526 140 526 0 c 1
 505 0 463 0 442 0 c 1x74
 440 21 435 63 433 84 c 1x78
 417 52 394 27 366 10 c 0
EndSplineSet
EndChar

StartChar: "+APwA"
Encoding: 252 252 190
Width: 616
Flags: W
HStem: -14 80<228.85 362.671> 0 21G<441 526> 539 20G<97 189 433 526> 675 101<160 261 356 456>
VStem: 97 92<109.729 559> 160 101<675 776> 356 100<675 776> 433 93<131.899 559> 442 84<0 83.0004>
LayerCount: 2
Fore
SplineSet
246 675 m 0x34
 222 675 222 675 174 675 c 0
 164 675 160 680 160 690 c 0
 160 714 160 714 160 761 c 0
 160 771 164 776 174 776 c 0
 198 776 198 776 246 776 c 0
 256 776 261 771 261 761 c 0
 261 737 261 737 261 690 c 0
 261 680 256 675 246 675 c 0x34
442 675 m 0x3080
 418 675 417 675 370 675 c 0
 360 675 356 680 356 690 c 0
 356 714 356 714 356 761 c 0x32
 356 771 360 776 370 776 c 0
 394 776 395 776 442 776 c 0x3080
 452 776 456 771 456 761 c 0
 456 737 456 737 456 690 c 0x32
 456 680 452 675 442 675 c 0x3080
366 10 m 0
 337 -7 305 -14 267 -14 c 0
 210 -14 167 4 139 42 c 0
 111 79 97 136 97 212 c 0
 97 328 97 472 97 559 c 1
 120 559 166 559 189 559 c 1
 189 472 189 299 189 212 c 0
 189 161 198 124 216 101 c 0
 225 90 236 81 249 75 c 0
 262 69 279 66 299 66 c 0
 342 66 375 81 398 112 c 0
 421 142 433 185 433 242 c 0
 433 348 433 480 433 559 c 1
 456 559 503 559 526 559 c 1xb9
 526 419 526 140 526 0 c 1
 505 0 463 0 442 0 c 1x7080
 440 21 435 63 433 84 c 1x71
 417 52 394 27 366 10 c 0
EndSplineSet
EndChar

StartChar: "+AP0A"
Encoding: 253 253 191
Width: 616
Flags: W
HStem: -213 77<92 209.31> 540 20G<52 171 458.5 577>
LayerCount: 2
Fore
SplineSet
238 635 m 1
 273 682 343 776 378 823 c 1
 403 823 452 823 477 823 c 1
 436 776 355 682 314 635 c 1
 295 635 257 635 238 635 c 1
92 -213 m 1
 92 -194 92 -155 92 -136 c 1
 106 -136 133 -136 147 -136 c 0
 162 -136 175 -133 185 -129 c 0
 195 -125 203 -120 210 -113 c 0
 217 -105 226 -92 235 -73 c 0
 244 -54 256 -27 269 9 c 1
 197 193 106 422 52 560 c 1
 76 560 126 560 150 560 c 1
 192 450 274 232 316 122 c 1
 357 232 438 450 479 560 c 1
 503 560 553 560 577 560 c 1
 540 465 466 275 429 180 c 0
 414 143 403 115 396 96 c 0
 389 77 384 63 380 54 c 0
 377 45 374 35 371 26 c 0
 354 -21 340 -56 329 -79 c 0
 318 -102 310 -121 303 -134 c 0
 293 -152 284 -165 275 -173 c 0
 266 -181 257 -189 247 -194 c 0
 235 -200 222 -205 208 -208 c 0
 194 -211 180 -213 166 -213 c 0
 141 -213 110 -213 92 -213 c 1
EndSplineSet
EndChar

StartChar: "+AP4A"
Encoding: 254 254 192
Width: 616
Flags: W
HStem: -213 21G<95 188> -14 78<251.242 395.114> 496 78<252.186 394.23>
VStem: 95 93<-213 70 141.142 418.487 489 784> 458 96<140.128 419.18>
LayerCount: 2
Fore
SplineSet
95 -213 m 1
 95 36 95 535 95 784 c 1
 118 784 165 784 188 784 c 1
 188 710 188 563 188 489 c 1
 220 546 270 574 338 574 c 0
 405 574 458 547 496 495 c 0
 534 443 554 371 554 279 c 0
 554 187 535 116 496 64 c 0
 457 12 404 -14 337 -14 c 0
 318 -14 302 -13 288 -9 c 0
 274 -5 260 1 248 8 c 0
 222 23 203 43 188 70 c 1
 188 -24 188 -142 188 -213 c 1
 165 -213 118 -213 95 -213 c 1
222 119 m 0
 245 82 279 64 324 64 c 0
 413 64 458 136 458 280 c 0
 458 424 413 496 324 496 c 0
 279 496 245 477 222 441 c 0
 199 404 188 351 188 280 c 0
 188 209 199 155 222 119 c 0
EndSplineSet
EndChar

StartChar: "+AP8A"
Encoding: 255 255 193
Width: 616
Flags: W
HStem: -213 77<92 207.755> 540 20G<52 170 458.5 576> 660 101<160 261 356 456>
VStem: 160 101<660 761> 356 100<660 761>
LayerCount: 2
Fore
SplineSet
246 660 m 0
 222 660 222 660 174 660 c 0
 164 660 160 665 160 675 c 0
 160 699 160 699 160 746 c 0
 160 756 164 761 174 761 c 0
 198 761 198 761 246 761 c 0
 256 761 261 756 261 746 c 0
 261 722 261 722 261 675 c 0
 261 665 256 660 246 660 c 0
442 660 m 0
 418 660 417 660 370 660 c 0
 360 660 356 665 356 675 c 0
 356 699 356 699 356 746 c 0
 356 756 360 761 370 761 c 0
 394 761 395 761 442 761 c 0
 452 761 456 756 456 746 c 0
 456 722 456 722 456 675 c 0
 456 665 452 660 442 660 c 0
92 -213 m 1
 92 -194 92 -155 92 -136 c 1
 106 -136 132 -136 146 -136 c 0
 161 -136 174 -133 184 -129 c 0
 194 -125 203 -119 210 -112 c 0
 217 -104 226 -92 235 -73 c 0
 244 -54 255 -27 268 9 c 1
 196 193 106 422 52 560 c 1
 76 560 125 560 149 560 c 1
 191 450 273 232 315 122 c 1
 356 232 438 450 479 560 c 1
 503 560 552 560 576 560 c 1
 539 465 466 275 429 180 c 0
 420 155 413 137 408 125 c 0
 403 113 399 104 397 98 c 0
 395 92 393 87 391 83 c 0
 389 79 387 72 384 64 c 0
 381 56 376 44 370 26 c 0
 357 -10 347 -39 338 -60 c 0
 329 -81 321 -97 316 -108 c 0
 311 -119 307 -128 304 -134 c 0
 297 -147 289 -158 280 -168 c 0
 271 -178 259 -187 246 -194 c 0
 223 -207 197 -213 166 -213 c 0
 141 -213 110 -213 92 -213 c 1
EndSplineSet
EndChar

StartChar: "+AQAA"
Encoding: 256 256 194
Width: 616
Flags: W
HStem: 0 21G<18 130 487 598> 194 82<202 414> 726 20G<218.5 398.5> 826 74<158 458>
LayerCount: 2
Fore
SplineSet
158 826 m 1
 158 844 158 882 158 900 c 1
 233 900 383 900 458 900 c 1
 458 882 458 844 458 826 c 1
 383 826 233 826 158 826 c 1
18 0 m 1
 75 187 190 559 247 746 c 1
 278 746 339 746 370 746 c 1
 427 559 541 187 598 0 c 1
 572 0 520 0 494 0 c 1
 480 49 452 145 438 194 c 1
 373 194 242 194 177 194 c 1
 163 145 137 49 123 0 c 1
 97 0 44 0 18 0 c 1
202 276 m 1
 255 276 361 276 414 276 c 1
 387 372 335 562 308 658 c 1
 281 562 229 372 202 276 c 1
EndSplineSet
EndChar

StartChar: "+AQEA"
Encoding: 257 257 195
Width: 616
Flags: W
HStem: -14 77<198.298 359.566> 0 21G<466 561> 282 72<210.897 439> 496 78<176.515 394.681> 674 74<160 459>
VStem: 68 92<100.373 236.687> 439 92<151.262 282 354 452.741>
LayerCount: 2
Fore
SplineSet
160 674 m 1x3e
 160 692 160 730 160 748 c 1
 235 748 384 748 459 748 c 1
 459 730 459 692 459 674 c 1
 384 674 235 674 160 674 c 1x3e
364 10 m 0
 333 -6 298 -14 257 -14 c 0xbe
 199 -14 152 2 119 34 c 0
 103 49 91 67 82 88 c 0
 73 109 68 135 68 164 c 0
 68 226 89 272 131 305 c 0
 172 337 234 354 315 354 c 0
 356 354 408 354 439 354 c 1
 439 358 439 364 439 368 c 0
 439 412 428 445 405 466 c 0
 383 486 347 496 298 496 c 0
 266 496 235 491 203 482 c 0
 170 473 139 460 109 443 c 1
 109 474 109 474 109 535 c 1
 123 540 139 546 156 551 c 0
 173 556 190 560 207 564 c 0
 237 570 268 574 299 574 c 0
 345 574 384 567 417 553 c 0
 432 546 447 537 461 527 c 0
 475 517 486 505 496 492 c 0
 503 482 509 473 513 462 c 0
 517 451 521 440 523 430 c 0
 528 406 531 370 531 320 c 0
 531 282 531 281 531 205 c 0
 532 186 532 169 532 154 c 0
 532 139 534 126 536 113 c 0
 538 99 539 86 541 74 c 0
 543 62 545 52 547 46 c 0
 549 36 552 25 555 16 c 0
 558 7 560 2 561 0 c 1
 530 0 530 0 468 0 c 1x7e
 464 10 460 25 455 44 c 0
 453 51 452 58 450 66 c 0
 448 74 448 80 447 85 c 1
 437 68 424 53 409 40 c 0
 394 27 379 18 364 10 c 0
226 70 m 0
 240 65 257 63 276 63 c 0
 326 63 366 81 395 116 c 0
 424 152 439 200 439 261 c 0
 439 268 439 277 439 282 c 1
 410 282 351 282 322 282 c 0
 269 282 229 273 201 254 c 0
 174 235 160 207 160 169 c 0
 160 136 171 110 191 91 c 0
 201 82 212 75 226 70 c 0
EndSplineSet
EndChar

StartChar: "+AQIA"
Encoding: 258 258 196
Width: 616
Flags: W
HStem: 0 21G<19 130 487 598> 194 82<202 415> 726 20G<218.5 398.5> 794 66<230.471 383.835>
VStem: 152 59<880.965 916> 406 59<880.965 916>
LayerCount: 2
Fore
SplineSet
465 916 m 1
 457 835 405 794 308 794 c 0
 211 794 160 835 152 916 c 1
 172 916 171 916 211 916 c 1
 219 879 252 860 309 860 c 0
 363 860 396 879 406 916 c 1
 426 916 425 916 465 916 c 1
19 0 m 1
 76 187 190 559 247 746 c 1
 278 746 339 746 370 746 c 1
 427 559 541 187 598 0 c 1
 572 0 520 0 494 0 c 1
 480 49 453 145 439 194 c 1
 374 194 242 194 177 194 c 1
 163 145 137 49 123 0 c 1
 97 0 45 0 19 0 c 1
202 276 m 1
 255 276 362 276 415 276 c 1
 388 372 335 562 308 658 c 1
 281 562 229 372 202 276 c 1
EndSplineSet
EndChar

StartChar: "+AQMA"
Encoding: 259 259 197
Width: 616
Flags: W
HStem: -14 77<198.298 359.566> 0 21G<466 561> 282 72<210.897 439> 496 78<176.515 394.681> 648 68<240.261 378.121>
VStem: 68 92<100.373 236.687> 153 59<743.062 792> 407 59<746.754 792> 439 92<151.262 282 354 452.741>
LayerCount: 2
Fore
SplineSet
466 792 m 1x3b
 458 696 407 648 310 648 c 0
 213 648 161 696 153 792 c 1
 173 792 172 792 212 792 c 1
 216 768 226 749 241 736 c 0
 256 723 279 716 309 716 c 0
 365 716 398 742 407 792 c 1
 427 792 426 792 466 792 c 1x3b
364 10 m 0
 333 -6 298 -14 257 -14 c 0xbc80
 199 -14 152 2 119 34 c 0
 103 49 91 67 82 88 c 0
 73 109 68 135 68 164 c 0
 68 226 89 272 131 305 c 0
 172 337 234 354 315 354 c 0
 356 354 408 354 439 354 c 1
 439 358 439 364 439 368 c 0
 439 412 428 445 405 466 c 0
 383 486 347 496 298 496 c 0
 266 496 235 491 203 482 c 0
 170 473 139 460 109 443 c 1
 109 474 109 474 109 535 c 1
 123 540 139 546 156 551 c 0
 173 556 190 560 207 564 c 0
 237 570 268 574 299 574 c 0
 345 574 384 567 417 553 c 0
 432 546 447 537 461 527 c 0
 475 517 486 505 496 492 c 0
 503 482 509 473 513 462 c 0
 517 451 521 440 523 430 c 0
 528 406 531 370 531 320 c 0
 531 282 531 281 531 205 c 0
 532 186 532 169 532 154 c 0
 532 139 534 126 536 113 c 0
 538 99 539 86 541 74 c 0
 543 62 545 52 547 46 c 0
 549 36 552 25 555 16 c 0
 558 7 560 2 561 0 c 1
 530 0 530 0 468 0 c 1x7c80
 464 10 460 25 455 44 c 0
 453 51 452 58 450 66 c 0
 448 74 448 80 447 85 c 1
 437 68 424 53 409 40 c 0
 394 27 379 18 364 10 c 0
226 70 m 0
 240 65 257 63 276 63 c 0
 326 63 366 81 395 116 c 0
 424 152 439 200 439 261 c 0
 439 268 439 277 439 282 c 1
 410 282 351 282 322 282 c 0
 269 282 229 273 201 254 c 0
 174 235 160 207 160 169 c 0
 160 136 171 110 191 91 c 0
 201 82 212 75 226 70 c 0
EndSplineSet
EndChar

StartChar: "+AQQA"
Encoding: 260 260 198
Width: 616
Flags: W
HStem: -197 61<512.79 616.415> 0 21G<18 130> 195 81<202 415> 727 20G<218.5 398.5>
VStem: 438 69<-129.596 -41.2266>
LayerCount: 2
Fore
SplineSet
507 -92 m 0
 507 -121 525 -136 562 -136 c 0
 572 -136 581 -134 589 -132 c 0
 597 -130 607 -126 617 -121 c 1
 617 -143 617 -143 617 -187 c 1
 602 -191 590 -194 582 -195 c 0
 574 -196 564 -197 553 -197 c 0
 476 -197 438 -169 438 -111 c 0
 438 -95 441 -78 449 -61 c 0
 457 -44 472 -23 492 0 c 0
 493 0 494 0 494 0 c 1
 480 49 452 146 438 195 c 1
 373 195 242 195 177 195 c 1
 163 146 137 49 123 0 c 1
 97 0 44 0 18 0 c 1
 75 187 190 560 247 747 c 1
 278 747 339 747 370 747 c 1
 427 560 541 187 598 0 c 1
 586 0 563 0 551 0 c 1
 535 -22 524 -40 517 -54 c 0
 510 -68 507 -81 507 -92 c 0
202 276 m 1
 255 276 362 276 415 276 c 1
 388 372 335 562 308 658 c 1
 281 562 229 372 202 276 c 1
EndSplineSet
EndChar

StartChar: "+AQUA"
Encoding: 261 261 199
Width: 616
Flags: W
HStem: -196 62<488.86 600.181> -14 77<198.298 359.324> 282 72<210.897 439> 496 78<176.515 394.62>
VStem: 68 92<100.373 236.687> 415 69<-127.887 -39.7259> 439 92<151.262 282 354 452.741>
LayerCount: 2
Fore
SplineSet
484 -90 m 0xfc
 484 -119 502 -134 539 -134 c 0
 560 -134 580 -129 601 -119 c 1
 601 -141 601 -142 601 -186 c 1
 587 -190 575 -192 564 -194 c 0
 553 -196 542 -196 530 -196 c 0
 493 -196 464 -189 444 -175 c 0
 424 -161 415 -139 415 -109 c 0xfc
 415 -92 418 -75 426 -59 c 0
 434 -43 448 -22 468 1 c 1
 464 10 460 25 455 44 c 0
 453 51 452 58 450 66 c 0
 448 74 448 80 447 85 c 1
 437 68 424 54 409 41 c 0
 394 28 380 18 365 10 c 0
 334 -6 298 -14 257 -14 c 0
 199 -14 152 2 119 34 c 0
 103 49 91 67 82 88 c 0
 73 109 68 135 68 164 c 0
 68 226 89 272 131 305 c 0
 172 337 234 354 315 354 c 0
 356 354 408 354 439 354 c 1
 439 358 439 364 439 368 c 0
 439 412 428 445 405 466 c 0
 383 486 347 496 298 496 c 0
 266 496 235 491 203 482 c 0
 170 473 139 460 109 443 c 1
 109 474 109 474 109 535 c 1
 123 540 139 546 156 551 c 0
 173 556 190 560 207 564 c 0
 237 570 267 574 298 574 c 0
 344 574 384 567 417 553 c 0
 432 546 447 537 461 527 c 0
 475 517 486 505 496 492 c 0
 503 482 509 473 513 462 c 0
 517 451 521 440 523 430 c 0
 528 406 531 370 531 320 c 0
 531 282 531 281 531 205 c 0xfa
 532 186 532 169 532 154 c 0
 532 139 533 126 535 113 c 0
 537 99 539 86 541 74 c 0
 543 62 545 52 547 46 c 0
 549 36 552 25 555 16 c 0
 558 7 559 2 560 0 c 1
 549 0 549 0 527 0 c 1
 511 -21 500 -39 494 -53 c 0
 488 -67 484 -79 484 -90 c 0xfc
439 261 m 0xfa
 439 268 439 277 439 282 c 1
 410 282 351 282 322 282 c 0
 269 282 229 273 201 254 c 0
 174 235 160 207 160 169 c 0
 160 136 171 110 191 91 c 0
 201 82 212 75 226 70 c 0
 240 65 257 63 276 63 c 0
 326 63 366 81 395 116 c 0
 424 152 439 200 439 261 c 0xfa
EndSplineSet
EndChar

StartChar: "+AQYA"
Encoding: 262 262 200
Width: 616
Flags: W
HStem: -14 82<279.875 472.443> 678 82<280.488 471.705>
VStem: 69 106<201.242 541.58>
LayerCount: 2
Fore
SplineSet
282 794 m 1
 307 827 356 893 381 926 c 1
 404 926 451 926 474 926 c 1
 445 893 389 827 360 794 c 1
 341 794 301 794 282 794 c 1
458 -4 m 0
 431 -11 402 -14 371 -14 c 0
 276 -14 201 19 148 87 c 0
 95 155 69 250 69 372 c 0
 69 432 76 486 89 534 c 0
 102 582 122 624 149 658 c 0
 202 726 276 760 371 760 c 0
 402 760 430 757 457 750 c 0
 483 743 510 733 536 719 c 1
 536 685 536 685 536 616 c 1
 512 636 486 651 457 662 c 0
 428 673 399 678 370 678 c 0
 305 678 257 653 224 602 c 0
 191 551 175 474 175 372 c 0
 175 270 191 195 224 144 c 0
 240 120 260 101 284 88 c 0
 308 75 337 68 371 68 c 0
 400 68 429 73 458 84 c 0
 486 95 512 110 536 130 c 1
 536 96 536 95 536 26 c 1
 510 12 484 3 458 -4 c 0
EndSplineSet
EndChar

StartChar: "+AQcA"
Encoding: 263 263 201
Width: 616
Flags: W
HStem: -14 78<267.727 462.036> 496 78<266.849 458.185>
VStem: 82 97<160.018 400.78>
LayerCount: 2
Fore
SplineSet
267 648 m 1
 302 695 373 789 408 836 c 1
 433 836 481 836 506 836 c 1
 465 789 385 695 344 648 c 1
 325 648 286 648 267 648 c 1
401 -12 m 0
 387 -14 372 -14 356 -14 c 0
 271 -14 205 12 156 64 c 0
 107 116 82 188 82 280 c 0
 82 328 88 369 101 405 c 0
 114 441 132 471 155 496 c 0
 204 548 271 574 356 574 c 0
 386 574 413 570 437 563 c 0
 461 556 488 546 515 531 c 1
 515 499 515 498 515 434 c 1
 490 456 465 472 442 481 c 0
 417 491 389 496 359 496 c 0
 301 496 256 477 225 440 c 0
 194 402 179 349 179 280 c 0
 179 248 183 218 190 191 c 0
 197 164 209 140 226 120 c 0
 258 82 302 64 360 64 c 0
 377 64 392 65 406 68 c 0
 420 71 432 74 444 79 c 0
 459 85 472 90 483 98 c 0
 494 106 505 114 515 124 c 1
 515 92 515 93 515 29 c 1
 504 22 491 16 478 10 c 0
 465 4 452 0 439 -4 c 0
 427 -7 415 -10 401 -12 c 0
EndSplineSet
EndChar

StartChar: "+AQgA"
Encoding: 264 264 202
Width: 616
Flags: W
HStem: -14 82<280.382 473.477> 678 82<280.659 473.462>
VStem: 69 106<203.126 539.968>
LayerCount: 2
Fore
SplineSet
186 793 m 1
 212 826 265 893 291 926 c 1
 315 926 362 926 386 926 c 1
 412 893 465 826 491 793 c 1
 473 793 439 793 421 793 c 1
 400 815 359 860 338 882 c 1
 317 860 277 815 256 793 c 1
 238 793 204 793 186 793 c 1
371 -14 m 0
 276 -14 201 19 148 87 c 0
 95 156 69 251 69 372 c 0
 69 495 96 590 149 658 c 0
 203 726 277 760 371 760 c 0
 430 760 485 746 536 719 c 1
 536 685 536 685 536 616 c 1
 486 658 431 678 370 678 c 0
 240 678 175 576 175 372 c 0
 175 169 240 68 371 68 c 0
 432 68 486 88 536 130 c 1
 536 96 536 95 536 26 c 1
 509 12 483 3 457 -4 c 0
 431 -11 402 -14 371 -14 c 0
EndSplineSet
EndChar

StartChar: "+AQkA"
Encoding: 265 265 203
Width: 616
Flags: W
HStem: -14 78<266.997 462.527> 496 78<267.349 456.716>
VStem: 82 97<160.272 400.002>
LayerCount: 2
Fore
SplineSet
166 648 m 1
 197 695 258 789 289 836 c 1
 307 836 344 836 362 836 c 1
 393 789 455 695 486 648 c 1
 469 648 433 648 416 648 c 1
 393 679 349 740 326 771 c 1
 304 740 258 679 236 648 c 1
 219 648 183 648 166 648 c 1
356 -14 m 0
 270 -14 203 12 155 64 c 0
 106 117 82 189 82 280 c 0
 82 372 107 444 156 496 c 0
 205 548 271 574 356 574 c 0
 386 574 413 571 437 564 c 0
 461 557 487 545 515 530 c 1
 515 498 515 498 515 434 c 1
 490 456 465 471 441 481 c 0
 417 491 389 496 359 496 c 0
 301 496 257 477 226 440 c 0
 195 403 179 349 179 280 c 0
 179 210 195 157 226 120 c 0
 257 83 302 64 360 64 c 0
 392 64 420 68 444 78 c 0
 458 83 470 90 481 97 c 0
 492 104 503 113 515 124 c 1
 515 92 515 92 515 28 c 1
 468 -1 415 -14 356 -14 c 0
EndSplineSet
EndChar

StartChar: "+AQoA"
Encoding: 266 266 204
Width: 616
Flags: W
HStem: -14 82<280.462 472.372> 678 82<280.462 472.242> 824 102<294 396>
VStem: 69 106<204.949 539.787> 294 102<824 926>
LayerCount: 2
Fore
SplineSet
382 824 m 0
 358 824 357 824 309 824 c 0
 299 824 294 828 294 838 c 0
 294 862 294 863 294 911 c 0
 294 921 299 926 309 926 c 0
 333 926 334 926 382 926 c 0
 392 926 396 921 396 911 c 0
 396 887 396 886 396 838 c 0
 396 828 392 824 382 824 c 0
536 26 m 1
 485 -1 431 -14 372 -14 c 0
 276 -14 202 19 149 87 c 0
 96 155 69 250 69 372 c 0
 69 494 96 590 149 658 c 0
 202 726 276 760 372 760 c 0
 431 760 485 746 536 719 c 1
 536 685 536 685 536 616 c 1
 512 636 486 651 458 662 c 0
 430 673 401 678 370 678 c 0
 240 678 175 576 175 372 c 0
 175 169 240 68 370 68 c 0
 431 68 486 88 536 130 c 1
 536 96 536 95 536 26 c 1
EndSplineSet
EndChar

StartChar: "+AQsA"
Encoding: 267 267 205
Width: 616
Flags: W
HStem: -15 79<267.276 460.569> 496 77<265.248 457.608> 674 102<278 381>
VStem: 82 97<159.382 401.181> 278 103<674 776>
LayerCount: 2
Fore
SplineSet
366 674 m 0
 342 674 342 674 294 674 c 0
 284 674 278 679 278 689 c 0
 278 713 278 713 278 761 c 0
 278 771 284 776 294 776 c 0
 318 776 318 776 366 776 c 0
 376 776 381 771 381 761 c 0
 381 737 381 737 381 689 c 0
 381 679 376 674 366 674 c 0
515 28 m 1
 465 -1 413 -15 358 -15 c 0
 271 -15 204 11 155 63 c 0
 106 115 82 187 82 279 c 0
 82 371 106 443 155 495 c 0
 204 547 271 573 358 573 c 0
 385 573 412 570 438 563 c 0
 464 556 489 545 515 530 c 1
 515 498 515 498 515 434 c 1
 491 456 466 471 442 481 c 0
 418 491 389 496 358 496 c 0
 300 496 256 477 225 440 c 0
 194 403 179 349 179 279 c 0
 179 210 195 157 226 120 c 0
 257 83 300 64 358 64 c 0
 420 64 473 84 515 124 c 1
 515 92 515 92 515 28 c 1
EndSplineSet
EndChar

StartChar: "+AQwA"
Encoding: 268 268 206
Width: 616
Flags: W
HStem: -14 82<279.875 472.443> 678 82<280.488 471.705>
VStem: 69 106<201.242 541.58>
LayerCount: 2
Fore
SplineSet
306 793 m 1
 280 826 226 893 200 926 c 1
 218 926 252 926 270 926 c 1
 291 904 332 859 353 837 c 1
 374 859 415 904 436 926 c 1
 454 926 488 926 506 926 c 1
 480 893 426 826 400 793 c 1
 376 793 330 793 306 793 c 1
458 -4 m 0
 431 -11 402 -14 371 -14 c 0
 276 -14 201 19 148 87 c 0
 95 155 69 250 69 372 c 0
 69 432 76 486 89 534 c 0
 102 582 122 624 149 658 c 0
 202 726 276 760 371 760 c 0
 402 760 430 757 457 750 c 0
 483 743 510 733 536 719 c 1
 536 685 536 685 536 616 c 1
 512 636 486 651 457 662 c 0
 428 673 399 678 370 678 c 0
 305 678 257 653 224 602 c 0
 191 551 175 474 175 372 c 0
 175 270 191 195 224 144 c 0
 240 120 260 101 284 88 c 0
 308 75 337 68 371 68 c 0
 400 68 429 73 458 84 c 0
 486 95 512 110 536 130 c 1
 536 96 536 95 536 26 c 1
 510 12 484 3 458 -4 c 0
EndSplineSet
EndChar

StartChar: "+AQ0A"
Encoding: 269 269 207
Width: 616
Flags: W
HStem: -14 78<267.727 462.036> 496 78<266.849 458.185>
VStem: 82 97<160.018 400.78>
LayerCount: 2
Fore
SplineSet
301 648 m 1
 270 695 209 789 178 836 c 1
 195 836 231 836 248 836 c 1
 270 805 316 745 338 714 c 1
 361 745 405 805 428 836 c 1
 445 836 481 836 498 836 c 1
 467 789 405 695 374 648 c 1
 356 648 319 648 301 648 c 1
401 -12 m 0
 387 -14 372 -14 356 -14 c 0
 271 -14 205 12 156 64 c 0
 107 116 82 188 82 280 c 0
 82 328 88 369 101 405 c 0
 114 441 132 471 155 496 c 0
 204 548 271 574 356 574 c 0
 386 574 413 570 437 563 c 0
 461 556 488 546 515 531 c 1
 515 499 515 498 515 434 c 1
 490 456 465 472 442 481 c 0
 417 491 389 496 359 496 c 0
 301 496 256 477 225 440 c 0
 194 402 179 349 179 280 c 0
 179 248 183 218 190 191 c 0
 197 164 209 140 226 120 c 0
 258 82 302 64 360 64 c 0
 377 64 392 65 406 68 c 0
 420 71 432 74 444 79 c 0
 459 85 472 90 483 98 c 0
 494 106 505 114 515 124 c 1
 515 92 515 93 515 29 c 1
 504 22 491 16 478 10 c 0
 465 4 452 0 439 -4 c 0
 427 -7 415 -10 401 -12 c 0
EndSplineSet
EndChar

StartChar: "+AQ4A"
Encoding: 270 270 208
Width: 616
Flags: W
HStem: 0 83<170 339.861> 664 83<170 343.402>
VStem: 68 102<83 664> 446 107<201.497 545.56>
LayerCount: 2
Fore
SplineSet
222 793 m 1
 196 826 142 893 116 926 c 1
 134 926 168 926 186 926 c 1
 207 904 248 859 269 837 c 1
 290 859 331 904 352 926 c 1
 370 926 404 926 422 926 c 1
 396 893 342 826 316 793 c 1
 292 793 246 793 222 793 c 1
68 0 m 1
 68 187 68 560 68 747 c 1
 106 747 182 747 220 747 c 0
 334 747 418 717 472 656 c 0
 526 595 553 501 553 374 c 0
 553 246 526 152 472 91 c 0
 418 30 334 0 220 0 c 0
 170 0 106 0 68 0 c 1
170 83 m 1
 182 83 206 83 218 83 c 0
 275 83 319 92 353 110 c 0
 387 128 411 158 425 200 c 0
 439 242 446 300 446 373 c 0
 446 446 439 505 425 547 c 0
 411 589 386 619 353 637 c 0
 320 655 275 664 218 664 c 0
 202 664 182 664 170 664 c 1
 170 519 170 228 170 83 c 1
EndSplineSet
EndChar

StartChar: "+AQ8A"
Encoding: 271 271 209
Width: 616
Flags: W
HStem: -14 78<207.141 350.311> 0 21G<422 506> 496 78<206.165 350.754>
VStem: 46 98<140.32 419.68> 414 92<140.148 419.852 488 778> 423 83<0 69.1447>
LayerCount: 2
Fore
SplineSet
522 590 m 1x30
 531 637 548 731 557 778 c 1
 582 778 631 778 656 778 c 1
 642 731 614 637 600 590 c 1
 581 590 541 590 522 590 c 1x30
414 70 m 1x78
 383 13 333 -14 263 -14 c 0
 196 -14 144 12 105 64 c 0
 66 116 46 188 46 280 c 0
 46 372 66 444 105 496 c 0
 144 548 197 574 264 574 c 0
 334 574 384 545 414 488 c 1
 414 584 414 706 414 778 c 1
 437 778 483 778 506 778 c 1xb8
 506 584 506 194 506 0 c 1
 485 0 444 0 423 0 c 1x74
 421 18 416 52 414 70 c 1x78
144 280 m 0
 144 136 188 64 278 64 c 0
 369 64 414 136 414 280 c 0
 414 424 369 496 278 496 c 0
 188 496 144 424 144 280 c 0
EndSplineSet
EndChar

StartChar: "+ARAA"
Encoding: 272 272 210
Width: 616
Flags: W
HStem: 0 83<170 342.084> 355 74<4 66 170 302> 664 83<170 342.084>
VStem: 66 104<83 355 429 664> 446 105<201.44 545.503>
LayerCount: 2
Fore
SplineSet
66 0 m 1
 66 89 66 266 66 355 c 1
 50 355 20 355 4 355 c 1
 4 374 4 410 4 429 c 1
 20 429 50 429 66 429 c 1
 66 508 66 668 66 747 c 1
 104 747 180 747 218 747 c 0
 332 747 416 717 470 656 c 0
 524 595 551 501 551 373 c 0
 551 246 524 152 470 91 c 0
 416 30 332 0 218 0 c 0
 168 0 104 0 66 0 c 1
170 83 m 1
 182 83 206 83 218 83 c 0
 275 83 319 92 353 110 c 0
 387 128 411 158 425 200 c 0
 439 242 446 300 446 373 c 0
 446 446 439 505 425 547 c 0
 411 589 386 619 353 637 c 0
 320 655 275 664 218 664 c 0
 202 664 182 664 170 664 c 1
 170 605 170 488 170 429 c 1
 203 429 269 429 302 429 c 1
 302 410 302 374 302 355 c 1
 269 355 203 355 170 355 c 1
 170 287 170 151 170 83 c 1
EndSplineSet
EndChar

StartChar: "+AREA"
Encoding: 273 273 211
Width: 616
Flags: W
HStem: -15 78<221.757 365.747> 0 21G<437 521> 495 79<221.042 365.741> 643 61<277 429 521 617>
VStem: 62 97<140.906 417.075> 429 92<140.142 418.395 488 643 704 778> 438 83<0 69.1447>
LayerCount: 2
Fore
SplineSet
368 8 m 0x7c
 342 -7 313 -15 280 -15 c 0
 245 -15 214 -8 187 6 c 0
 160 20 138 39 120 64 c 0
 81 117 62 189 62 281 c 0
 62 372 81 443 120 495 c 0
 159 547 213 574 280 574 c 0
 314 574 344 566 369 552 c 0
 395 537 414 516 429 488 c 1
 429 540 429 604 429 643 c 1
 391 643 315 643 277 643 c 1
 277 658 277 689 277 704 c 1
 315 704 391 704 429 704 c 1
 429 723 429 759 429 778 c 1
 452 778 498 778 521 778 c 1
 521 759 521 723 521 704 c 1
 545 704 593 704 617 704 c 1
 617 689 617 658 617 643 c 1
 593 643 545 643 521 643 c 1xbc
 521 482 521 161 521 0 c 1
 500 0 459 0 438 0 c 1x7a
 436 18 431 52 429 70 c 1
 421 57 413 45 403 35 c 0
 393 25 382 16 368 8 c 0x7c
236 76 m 0
 253 67 272 63 293 63 c 0
 338 63 372 81 395 118 c 0
 418 154 429 208 429 279 c 0
 429 350 418 404 395 441 c 0
 384 458 371 471 354 481 c 0
 337 491 317 495 293 495 c 0
 248 495 215 477 193 441 c 0
 170 404 159 350 159 279 c 0
 159 208 170 155 193 118 c 0
 205 99 219 85 236 76 c 0
EndSplineSet
EndChar

StartChar: "+ARIA"
Encoding: 274 274 212
Width: 616
Flags: W
HStem: 0 85<200 551> 356 84<200 526> 662 84<200 542> 826 74<168 466>
VStem: 98 102<85 356 440 662>
LayerCount: 2
Fore
SplineSet
168 826 m 1
 168 844 168 882 168 900 c 1
 243 900 391 900 466 900 c 1
 466 882 466 844 466 826 c 1
 391 826 243 826 168 826 c 1
98 0 m 1
 98 187 98 559 98 746 c 1
 209 746 431 746 542 746 c 1
 542 725 542 683 542 662 c 1
 456 662 286 662 200 662 c 1
 200 607 200 495 200 440 c 1
 282 440 444 440 526 440 c 1
 526 419 526 377 526 356 c 1
 444 356 282 356 200 356 c 1
 200 288 200 153 200 85 c 1
 288 85 463 85 551 85 c 1
 551 64 551 21 551 0 c 1
 438 0 211 0 98 0 c 1
EndSplineSet
EndChar

StartChar: "+ARMA"
Encoding: 275 275 213
Width: 616
Flags: W
HStem: -14 78<244.325 457.656> 258 72<162 464> 496 78<240.61 402.145> 674 74<176 476>
VStem: 62 96<151.006 258 330 401.744> 464 92<330 427.664>
LayerCount: 2
Fore
SplineSet
176 674 m 1
 176 692 176 730 176 748 c 1
 251 748 401 748 476 748 c 1
 476 730 476 692 476 674 c 1
 401 674 251 674 176 674 c 1
434 -4 m 0
 402 -11 369 -14 338 -14 c 0
 251 -14 184 12 135 64 c 0
 86 116 62 188 62 278 c 0
 62 338 72 390 94 434 c 0
 116 478 147 513 186 537 c 0
 225 561 270 574 322 574 c 0
 396 574 454 549 495 501 c 0
 536 453 556 387 556 303 c 0
 556 288 556 269 556 258 c 1
 456 258 258 258 158 258 c 1
 158 257 158 256 158 255 c 0
 158 194 174 147 206 114 c 0
 238 81 283 64 340 64 c 0
 398 64 463 82 535 120 c 1
 535 90 535 89 535 28 c 1
 500 14 466 3 434 -4 c 0
162 330 m 1
 263 330 262 330 464 330 c 1
 463 382 451 423 427 452 c 0
 403 481 369 496 324 496 c 0
 279 496 241 481 213 452 c 0
 185 423 168 383 162 330 c 1
EndSplineSet
EndChar

StartChar: "+ARQA"
Encoding: 276 276 214
Width: 616
Flags: W
HStem: 0 85<200 551> 356 84<200 527> 662 84<200 542> 810 65<249.856 406.092>
VStem: 99 101<85 356 440 662> 172 59<895.096 930> 426 59<895.279 930>
LayerCount: 2
Fore
SplineSet
485 930 m 1xf6
 477 849 425 810 328 810 c 0
 231 810 180 849 172 930 c 1
 192 930 191 930 231 930 c 1
 239 893 272 875 329 875 c 0
 383 875 416 893 426 930 c 1
 446 930 445 930 485 930 c 1xf6
99 0 m 1xfa
 99 187 99 559 99 746 c 1
 210 746 431 746 542 746 c 1
 542 725 542 683 542 662 c 1
 456 662 286 662 200 662 c 1
 200 607 200 495 200 440 c 1
 282 440 445 440 527 440 c 1
 527 419 527 377 527 356 c 1
 445 356 282 356 200 356 c 1
 200 288 200 153 200 85 c 1
 288 85 463 85 551 85 c 1
 551 64 551 21 551 0 c 1
 438 0 212 0 99 0 c 1xfa
EndSplineSet
EndChar

StartChar: "+ARUA"
Encoding: 277 277 215
Width: 616
Flags: W
HStem: -14 78<242.257 459.059> 258 72<162 465> 496 78<239.828 403.523> 649 69<252.857 390.014>
VStem: 62 96<151.451 258 330 401.309> 166 59<743.155 792> 465 92<330 428.58>
LayerCount: 2
Fore
SplineSet
434 685 m 0
 407 661 370 649 322 649 c 0
 225 649 174 696 166 792 c 1
 186 792 185 792 225 792 c 1
 229 767 238 748 254 736 c 0
 269 724 292 718 322 718 c 0
 351 718 373 724 388 736 c 0
 404 748 415 767 420 792 c 1
 440 792 439 792 479 792 c 1
 475 744 460 709 434 685 c 0
386 -12 m 0
 370 -14 355 -14 339 -14 c 0
 253 -14 185 12 136 64 c 0
 87 116 62 188 62 279 c 0
 62 326 68 367 81 403 c 0
 94 439 112 469 134 494 c 0
 158 521 186 541 219 554 c 0
 252 567 287 574 325 574 c 0
 398 574 454 550 495 502 c 0
 536 454 557 388 557 303 c 0
 557 288 557 269 557 258 c 1
 457 258 258 258 158 258 c 1
 158 257 158 256 158 255 c 0
 158 194 174 148 206 114 c 0
 221 98 240 85 262 76 c 0
 284 67 310 64 340 64 c 0
 371 64 402 69 433 78 c 0
 449 83 466 88 483 95 c 0
 500 102 517 111 535 120 c 1
 535 90 535 90 535 29 c 1
 501 15 467 4 434 -4 c 0
 418 -8 402 -10 386 -12 c 0
162 330 m 1
 263 330 263 330 465 330 c 1
 464 359 460 384 453 404 c 0
 446 424 438 441 427 454 c 0
 403 482 368 496 323 496 c 0
 278 496 241 481 213 452 c 0
 185 423 168 382 162 330 c 1
EndSplineSet
EndChar

StartChar: "+ARYA"
Encoding: 278 278 216
Width: 616
Flags: W
HStem: 0 85<200 551> 356 84<200 526> 662 84<200 542> 824 102<266 368>
VStem: 98 102<85 356 440 662> 266 102<824 926>
LayerCount: 2
Fore
SplineSet
353 824 m 0
 329 824 328 824 280 824 c 0
 270 824 266 828 266 838 c 0
 266 862 266 863 266 911 c 0
 266 921 270 926 280 926 c 0
 304 926 305 926 353 926 c 0
 363 926 368 921 368 911 c 0
 368 887 368 886 368 838 c 0
 368 828 363 824 353 824 c 0
98 0 m 1
 98 187 98 559 98 746 c 1
 209 746 431 746 542 746 c 1
 542 725 542 683 542 662 c 1
 456 662 286 662 200 662 c 1
 200 607 200 495 200 440 c 1
 282 440 444 440 526 440 c 1
 526 419 526 377 526 356 c 1
 444 356 282 356 200 356 c 1
 200 288 200 153 200 85 c 1
 288 85 463 85 551 85 c 1
 551 64 551 21 551 0 c 1
 438 0 211 0 98 0 c 1
EndSplineSet
EndChar

StartChar: "+ARcA"
Encoding: 279 279 217
Width: 616
Flags: W
HStem: -14 78<244.325 457.656> 258 72<162 464> 496 78<240.61 402.145> 674 102<264 366>
VStem: 62 96<151.006 258 330 401.744> 264 102<674 776> 464 92<330 427.664>
LayerCount: 2
Fore
SplineSet
352 674 m 0
 328 674 327 674 279 674 c 0
 269 674 264 679 264 689 c 0
 264 713 264 713 264 761 c 0
 264 771 269 776 279 776 c 0
 303 776 304 776 352 776 c 0
 362 776 366 771 366 761 c 0
 366 737 366 737 366 689 c 0
 366 679 362 674 352 674 c 0
434 -4 m 0
 402 -11 369 -14 338 -14 c 0
 251 -14 184 12 135 64 c 0
 86 116 62 188 62 278 c 0
 62 338 72 390 94 434 c 0
 116 478 147 513 186 537 c 0
 225 561 270 574 322 574 c 0
 396 574 454 549 495 501 c 0
 536 453 556 387 556 303 c 0
 556 288 556 269 556 258 c 1
 456 258 258 258 158 258 c 1
 158 257 158 256 158 255 c 0
 158 194 174 147 206 114 c 0
 238 81 283 64 340 64 c 0
 398 64 463 82 535 120 c 1
 535 90 535 89 535 28 c 1
 500 14 466 3 434 -4 c 0
162 330 m 1
 263 330 262 330 464 330 c 1
 463 382 451 423 427 452 c 0
 403 481 369 496 324 496 c 0
 279 496 241 481 213 452 c 0
 185 423 168 383 162 330 c 1
EndSplineSet
EndChar

StartChar: "+ARgA"
Encoding: 280 280 218
Width: 616
Flags: W
HStem: -198 62<436.86 548.181> 0 85<200 416 460.641 551> 356 84<200 526> 662 84<200 542>
VStem: 98 102<85 356 440 662> 363 69<-130.005 -40.1063>
LayerCount: 2
Fore
SplineSet
551 0 m 1
 532 0 495 0 476 0 c 1
 460 -22 449 -40 442 -54 c 0
 435 -68 432 -81 432 -92 c 0
 432 -121 450 -136 487 -136 c 0
 508 -136 528 -131 549 -121 c 1
 549 -143 549 -144 549 -188 c 1
 535 -192 523 -193 512 -195 c 0
 501 -197 490 -198 478 -198 c 0
 441 -198 412 -190 392 -176 c 0
 372 -162 363 -140 363 -110 c 0
 363 -94 366 -77 374 -60 c 0
 382 -43 396 -23 416 0 c 1
 310 0 178 0 98 0 c 1
 98 187 98 559 98 746 c 1
 209 746 431 746 542 746 c 1
 542 725 542 683 542 662 c 1
 456 662 286 662 200 662 c 1
 200 607 200 495 200 440 c 1
 282 440 444 440 526 440 c 1
 526 419 526 377 526 356 c 1
 444 356 282 356 200 356 c 1
 200 288 200 153 200 85 c 1
 288 85 463 85 551 85 c 1
 551 64 551 21 551 0 c 1
EndSplineSet
EndChar

StartChar: "+ARkA"
Encoding: 281 281 219
Width: 616
Flags: W
HStem: -198 62<408.243 519.181> -14 78<244.325 416.695> 12 108<488.755 534.297> 258 72<161 464> 496 78<240.504 402.039>
VStem: 62 96<151.006 258 330 403.762> 333 70<-130.005 -40.7523> 464 92<330 427.664>
LayerCount: 2
Fore
SplineSet
556 258 m 1xdf
 456 258 258 258 158 258 c 1
 158 257 158 256 158 255 c 0
 158 194 174 147 206 114 c 0
 238 81 283 64 340 64 c 0xdf
 398 64 463 82 535 120 c 1
 535 90 535 89 535 28 c 1
 520 22 505 17 490 12 c 0xbf
 475 7 460 3 446 -1 c 1
 430 -23 420 -40 413 -54 c 0
 406 -68 403 -81 403 -92 c 0
 403 -121 421 -136 458 -136 c 0
 479 -136 499 -131 520 -121 c 1
 520 -143 520 -144 520 -188 c 1
 506 -192 494 -193 483 -195 c 0
 472 -197 460 -198 448 -198 c 0
 411 -198 383 -190 363 -176 c 0
 343 -162 333 -140 333 -110 c 0
 333 -95 337 -81 343 -65 c 0
 349 -49 360 -32 377 -12 c 1
 365 -13 352 -14 338 -14 c 0
 251 -14 184 12 135 64 c 0
 86 116 62 188 62 278 c 0
 62 338 72 390 94 434 c 0
 116 478 147 513 186 537 c 0
 225 561 270 574 322 574 c 0
 396 574 454 549 495 501 c 0
 536 453 556 387 556 303 c 0
 556 288 556 269 556 258 c 1xdf
427 452 m 0
 403 481 368 496 323 496 c 0
 278 496 241 481 213 452 c 0
 185 423 167 383 161 330 c 1
 262 330 262 330 464 330 c 1
 463 382 451 423 427 452 c 0
EndSplineSet
EndChar

StartChar: "+ARoA"
Encoding: 282 282 220
Width: 616
Flags: W
HStem: 0 85<200 551> 356 84<200 526> 662 84<200 542>
VStem: 98 102<85 356 440 662>
LayerCount: 2
Fore
SplineSet
279 793 m 1
 253 826 200 893 174 926 c 1
 192 926 226 926 244 926 c 1
 265 904 305 859 326 837 c 1
 347 859 388 904 409 926 c 1
 427 926 461 926 479 926 c 1
 453 893 400 826 374 793 c 1
 350 793 303 793 279 793 c 1
98 0 m 1
 98 187 98 559 98 746 c 1
 209 746 431 746 542 746 c 1
 542 725 542 683 542 662 c 1
 456 662 286 662 200 662 c 1
 200 607 200 495 200 440 c 1
 282 440 444 440 526 440 c 1
 526 419 526 377 526 356 c 1
 444 356 282 356 200 356 c 1
 200 288 200 153 200 85 c 1
 288 85 463 85 551 85 c 1
 551 64 551 21 551 0 c 1
 438 0 211 0 98 0 c 1
EndSplineSet
EndChar

